{"glyphs":{"0":{"ha":847,"x_min":67,"x_max":783,"o":"m 414 -25 q 146 99 225 -25 q 67 451 67 224 q 158 799 67 672 q 439 925 249 925 q 706 802 628 925 q 783 451 783 679 q 693 102 783 229 q 414 -25 603 -25 m 425 89 q 547 180 513 89 q 581 451 581 271 q 547 719 581 631 q 425 808 513 808 q 303 719 338 808 q 269 451 269 631 q 303 180 269 271 q 425 89 338 89 z "},"1":{"ha":597,"x_min":61,"x_max":571,"o":"m 67 0 l 67 89 l 228 113 l 228 769 l 61 769 l 61 871 l 304 913 l 413 913 l 413 113 l 571 89 l 571 0 l 67 0 z "},"2":{"ha":710,"x_min":40,"x_max":682,"o":"m 40 94 l 342 408 q 429 535 403 472 q 456 664 456 597 q 422 772 456 739 q 297 804 388 804 q 230 799 257 804 q 176 782 203 793 l 147 638 l 51 638 l 51 876 q 171 910 96 894 q 318 925 246 925 q 572 864 493 925 q 650 686 650 803 q 629 559 650 615 q 567 451 608 503 q 454 326 526 399 l 263 140 l 263 132 l 554 132 l 590 261 l 682 261 l 682 0 l 40 0 l 40 94 z "},"3":{"ha":668,"x_min":28,"x_max":653,"o":"m 304 -24 q 28 46 139 -24 l 42 269 l 150 269 l 165 139 q 219 113 181 128 q 294 97 258 97 q 428 135 389 97 q 467 257 467 174 q 403 374 467 333 q 246 415 339 415 l 203 415 l 176 467 l 176 526 l 242 526 q 377 568 325 526 q 429 682 429 610 q 394 777 429 750 q 279 804 358 804 q 174 786 218 804 l 163 663 l 64 663 l 50 876 q 311 925 169 925 q 528 878 453 925 q 604 721 604 832 q 557 591 604 646 q 444 508 510 536 l 444 496 q 595 420 538 476 q 653 263 653 364 q 601 99 653 163 q 471 6 550 35 q 304 -24 392 -24 z "},"4":{"ha":722,"x_min":-6,"x_max":696,"o":"m 279 0 l 279 81 l 396 106 l 396 229 l 46 229 l -6 335 l 444 960 l 578 918 l 578 361 l 688 361 l 688 229 l 578 229 l 578 106 l 696 81 l 696 0 l 279 0 m 172 361 l 396 361 l 396 676 l 400 694 l 393 696 l 388 676 l 172 375 l 172 361 z "},"5":{"ha":653,"x_min":28,"x_max":636,"o":"m 288 -24 q 129 -4 194 -24 q 28 38 64 15 l 40 265 l 138 265 l 154 138 q 176 125 158 135 q 224 106 193 115 q 294 97 256 97 q 410 140 374 97 q 447 274 447 182 q 391 406 447 365 q 206 447 335 447 l 61 447 l 61 900 l 579 900 l 579 743 l 182 743 l 182 568 l 264 568 q 540 509 443 568 q 636 306 636 450 q 541 60 636 143 q 288 -24 446 -24 z "},"6":{"ha":757,"x_min":63,"x_max":708,"o":"m 372 -21 q 142 72 222 -21 q 63 339 63 164 q 133 654 63 522 q 336 856 203 786 q 656 925 469 925 l 656 849 q 388 744 483 826 q 276 519 293 661 q 465 578 360 578 q 643 506 578 578 q 708 308 708 433 q 667 135 708 210 q 549 20 625 61 q 372 -21 472 -21 m 393 104 q 484 144 457 104 q 511 278 511 183 q 481 398 511 361 q 381 435 450 435 q 276 422 317 435 q 274 353 274 411 q 301 160 274 215 q 393 104 328 104 z "},"7":{"ha":632,"x_min":29,"x_max":639,"o":"m 101 0 l 101 78 l 471 710 l 471 744 l 161 744 l 143 639 l 43 639 l 29 900 l 639 900 l 639 744 l 254 0 l 101 0 z "},"8":{"ha":715,"x_min":58,"x_max":674,"o":"m 349 -19 q 132 35 206 -19 q 58 190 58 90 q 102 326 58 257 q 211 435 146 394 q 108 528 146 474 q 71 663 71 582 q 109 801 71 740 q 215 897 147 863 q 371 932 283 932 q 567 876 494 932 q 640 724 640 819 q 518 494 640 575 q 635 395 596 450 q 674 251 674 340 q 635 117 674 179 q 524 18 597 56 q 349 -19 450 -19 m 425 540 q 471 608 454 567 q 488 696 488 650 q 363 811 488 811 q 251 710 251 811 q 276 632 251 663 q 368 567 300 601 l 425 540 m 365 92 q 463 122 431 92 q 496 210 496 153 q 463 301 496 265 q 356 367 431 336 l 299 392 q 240 307 256 346 q 225 225 225 268 q 365 92 225 92 z "},"9":{"ha":722,"x_min":33,"x_max":682,"o":"m 232 -19 q 106 -8 176 -19 l 106 68 q 321 96 243 68 q 435 188 399 124 q 476 368 471 253 q 403 335 449 349 q 306 321 358 321 q 106 399 178 321 q 33 613 33 476 q 74 778 33 707 q 185 887 115 849 q 339 925 256 925 q 594 827 507 925 q 682 513 682 729 q 567 107 682 233 q 232 -19 451 -19 m 367 464 q 438 469 407 464 q 476 476 468 474 l 476 522 q 467 684 476 625 q 428 772 457 743 q 346 800 400 800 q 258 762 285 800 q 231 632 231 724 q 267 502 231 540 q 367 464 303 464 z "},"\u0000":{"ha":0,"x_min":0,"x_max":0,"o":""},"\r":{"ha":239,"x_min":0,"x_max":0,"o":""}," ":{"ha":239,"x_min":0,"x_max":0,"o":""},"A":{"ha":907,"x_min":-11,"x_max":925,"o":"m -11 86 l 81 103 l 360 910 l 528 910 l 829 103 l 925 85 l 925 0 l 499 0 l 499 86 l 608 103 l 561 250 l 279 250 l 239 131 l 229 101 l 344 86 l 344 0 l -11 0 l -11 86 m 528 361 l 431 656 l 426 689 l 419 689 l 415 656 l 317 361 l 528 361 z "},"Á":{"ha":907,"x_min":-11,"x_max":925,"o":"m 460 1139 q 492 1158 468 1143 q 532 1172 515 1172 q 589 1144 569 1172 q 608 1075 608 1117 q 601 1026 608 1054 l 296 932 l 261 1001 l 460 1139 m -11 86 l 81 103 l 360 910 l 528 910 l 829 103 l 925 85 l 925 0 l 499 0 l 499 86 l 608 103 l 561 250 l 279 250 l 239 131 l 229 101 l 344 86 l 344 0 l -11 0 l -11 86 m 528 361 l 431 656 l 426 689 l 419 689 l 415 656 l 317 361 l 528 361 z "},"Ă":{"ha":907,"x_min":-11,"x_max":925,"o":"m 296 1182 q 316 1156 296 1178 q 374 1115 336 1135 q 463 1096 411 1096 q 558 1113 518 1096 q 619 1151 597 1131 q 642 1174 642 1171 l 704 1129 q 675 1081 704 1122 q 592 1003 646 1039 q 463 967 538 967 q 310 997 369 967 q 221 1063 250 1028 q 192 1106 192 1099 l 296 1182 m -11 86 l 81 103 l 360 910 l 528 910 l 829 103 l 925 85 l 925 0 l 499 0 l 499 86 l 608 103 l 561 250 l 279 250 l 239 131 l 229 101 l 344 86 l 344 0 l -11 0 l -11 86 m 528 361 l 431 656 l 426 689 l 419 689 l 415 656 l 317 361 l 528 361 z "},"Ắ":{"ha":907,"x_min":-11,"x_max":925,"o":"m 0 0 m -11 86 l 81 103 l 360 910 l 528 910 l 829 103 l 925 85 l 925 0 l 499 0 l 499 86 l 608 103 l 561 250 l 279 250 l 239 131 l 229 101 l 344 86 l 344 0 l -11 0 l -11 86 m 528 361 l 431 656 l 426 689 l 419 689 l 415 656 l 317 361 l 528 361 m 301 1182 q 322 1156 301 1178 q 379 1115 342 1135 q 468 1096 417 1096 q 563 1113 524 1096 q 625 1151 603 1131 q 647 1174 647 1171 l 710 1129 q 681 1081 710 1122 q 597 1003 651 1039 q 468 967 543 967 q 315 997 375 967 q 226 1063 256 1028 q 197 1106 197 1099 l 301 1182 m 351 1228 l 550 1365 q 582 1384 558 1369 q 622 1399 606 1399 q 679 1371 660 1399 q 699 1301 699 1343 q 692 1253 699 1281 l 386 1158 l 351 1228 z "},"Ặ":{"ha":907,"x_min":-11,"x_max":925,"o":"m 0 0 m -11 86 l 81 103 l 360 910 l 528 910 l 829 103 l 925 85 l 925 0 l 499 0 l 499 86 l 608 103 l 561 250 l 279 250 l 239 131 l 229 101 l 344 86 l 344 0 l -11 0 l -11 86 m 528 361 l 431 656 l 426 689 l 419 689 l 415 656 l 317 361 l 528 361 m 447 -286 q 371 -255 401 -286 q 340 -175 340 -224 q 375 -91 340 -126 q 458 -56 410 -56 q 536 -85 506 -56 q 567 -164 567 -114 q 533 -250 567 -214 q 447 -286 500 -286 m 301 1182 q 322 1156 301 1178 q 379 1115 342 1135 q 468 1096 417 1096 q 563 1113 524 1096 q 625 1151 603 1131 q 647 1174 647 1171 l 710 1129 q 681 1081 710 1122 q 597 1003 651 1039 q 468 967 543 967 q 315 997 375 967 q 226 1063 256 1028 q 197 1106 197 1099 l 301 1182 z "},"Ằ":{"ha":907,"x_min":-11,"x_max":925,"o":"m 0 0 m -11 86 l 81 103 l 360 910 l 528 910 l 829 103 l 925 85 l 925 0 l 499 0 l 499 86 l 608 103 l 561 250 l 279 250 l 239 131 l 229 101 l 344 86 l 344 0 l -11 0 l -11 86 m 528 361 l 431 656 l 426 689 l 419 689 l 415 656 l 317 361 l 528 361 m 301 1182 q 322 1156 301 1178 q 379 1115 342 1135 q 468 1096 417 1096 q 563 1113 524 1096 q 625 1151 603 1131 q 647 1174 647 1171 l 710 1129 q 681 1081 710 1122 q 597 1003 651 1039 q 468 967 543 967 q 315 997 375 967 q 226 1063 256 1028 q 197 1106 197 1099 l 301 1182 m 221 1253 q 214 1303 214 1281 q 233 1372 214 1344 q 290 1399 253 1399 q 331 1384 307 1399 q 363 1365 354 1369 l 561 1228 l 526 1158 l 221 1253 z "},"Ẳ":{"ha":907,"x_min":-11,"x_max":925,"o":"m 0 0 m -11 86 l 81 103 l 360 910 l 528 910 l 829 103 l 925 85 l 925 0 l 499 0 l 499 86 l 608 103 l 561 250 l 279 250 l 239 131 l 229 101 l 344 86 l 344 0 l -11 0 l -11 86 m 528 361 l 431 656 l 426 689 l 419 689 l 415 656 l 317 361 l 528 361 m 301 1182 q 322 1156 301 1178 q 379 1115 342 1135 q 468 1096 417 1096 q 563 1113 524 1096 q 625 1151 603 1131 q 647 1174 647 1171 l 710 1129 q 681 1081 710 1122 q 597 1003 651 1039 q 468 967 543 967 q 315 997 375 967 q 226 1063 256 1028 q 197 1106 197 1099 l 301 1182 m 410 1144 q 394 1182 394 1168 q 407 1206 394 1194 q 450 1235 419 1218 q 476 1253 467 1244 q 485 1278 485 1263 q 472 1301 485 1294 q 432 1307 460 1307 q 357 1296 397 1307 q 331 1351 331 1325 q 440 1400 331 1400 q 574 1372 526 1400 q 621 1290 621 1343 q 553 1203 621 1238 q 510 1181 518 1188 q 506 1154 501 1174 l 410 1144 z "},"Ẵ":{"ha":907,"x_min":-11,"x_max":925,"o":"m 554 1235 q 475 1247 518 1235 l 336 1283 l 238 1240 l 183 1282 l 232 1340 q 288 1384 260 1374 q 353 1394 317 1394 q 432 1383 394 1394 l 571 1347 l 671 1389 l 724 1349 l 675 1290 q 618 1246 647 1257 q 554 1235 589 1235 m 299 1182 q 319 1156 299 1178 q 376 1115 339 1135 q 465 1096 414 1096 q 560 1113 521 1096 q 622 1151 600 1131 q 644 1174 644 1171 l 707 1129 q 678 1081 707 1122 q 594 1003 649 1039 q 465 967 540 967 q 313 997 372 967 q 224 1063 253 1028 q 194 1106 194 1099 l 299 1182 m -11 86 l 81 103 l 360 910 l 528 910 l 829 103 l 925 85 l 925 0 l 499 0 l 499 86 l 608 103 l 561 250 l 279 250 l 239 131 l 229 101 l 344 86 l 344 0 l -11 0 l -11 86 m 528 361 l 431 656 l 426 689 l 419 689 l 415 656 l 317 361 l 528 361 z "},"Ǎ":{"ha":907,"x_min":-11,"x_max":925,"o":"m 0 0 m -11 86 l 81 103 l 360 910 l 528 910 l 829 103 l 925 85 l 925 0 l 499 0 l 499 86 l 608 103 l 561 250 l 279 250 l 239 131 l 229 101 l 344 86 l 344 0 l -11 0 l -11 86 m 528 361 l 431 656 l 426 689 l 419 689 l 415 656 l 317 361 l 528 361 m 463 1086 l 656 1172 l 696 1114 l 529 975 q 510 959 524 971 q 482 940 496 947 q 454 932 468 932 q 410 951 435 932 q 382 974 386 971 l 211 1100 l 258 1172 l 463 1086 z "},"Â":{"ha":907,"x_min":-11,"x_max":925,"o":"m 375 1129 q 424 1165 410 1158 q 450 1172 439 1172 q 474 1165 461 1172 q 499 1147 486 1157 q 519 1131 513 1136 l 688 1001 l 644 932 l 439 1018 l 243 932 l 206 989 l 375 1129 m -11 86 l 81 103 l 360 910 l 528 910 l 829 103 l 925 85 l 925 0 l 499 0 l 499 86 l 608 103 l 561 250 l 279 250 l 239 131 l 229 101 l 344 86 l 344 0 l -11 0 l -11 86 m 528 361 l 431 656 l 426 689 l 419 689 l 415 656 l 317 361 l 528 361 z "},"Ấ":{"ha":907,"x_min":-11,"x_max":925,"o":"m 0 0 m -11 86 l 81 103 l 360 910 l 528 910 l 829 103 l 925 85 l 925 0 l 499 0 l 499 86 l 608 103 l 561 250 l 279 250 l 239 131 l 229 101 l 344 86 l 344 0 l -11 0 l -11 86 m 528 361 l 431 656 l 426 689 l 419 689 l 415 656 l 317 361 l 528 361 m 386 1129 q 435 1165 421 1158 q 461 1172 450 1172 q 485 1165 472 1172 q 510 1147 497 1157 q 531 1131 524 1136 l 699 1001 l 656 932 l 450 1018 l 254 932 l 217 989 l 386 1129 m 538 1201 l 736 1339 q 768 1358 744 1343 q 808 1372 792 1372 q 865 1344 846 1372 q 885 1275 885 1317 q 878 1226 885 1254 l 572 1132 l 538 1201 z "},"Ậ":{"ha":907,"x_min":-11,"x_max":925,"o":"m 0 0 m -11 86 l 81 103 l 360 910 l 528 910 l 829 103 l 925 85 l 925 0 l 499 0 l 499 86 l 608 103 l 561 250 l 279 250 l 239 131 l 229 101 l 344 86 l 344 0 l -11 0 l -11 86 m 528 361 l 431 656 l 426 689 l 419 689 l 415 656 l 317 361 l 528 361 m 447 -286 q 371 -255 401 -286 q 340 -175 340 -224 q 375 -91 340 -126 q 458 -56 410 -56 q 536 -85 506 -56 q 567 -164 567 -114 q 533 -250 567 -214 q 447 -286 500 -286 m 382 1129 q 431 1165 417 1158 q 457 1172 446 1172 q 481 1165 468 1172 q 506 1147 493 1157 q 526 1131 519 1136 l 694 1001 l 651 932 l 446 1018 l 250 932 l 213 989 l 382 1129 z "},"Ầ":{"ha":907,"x_min":-11,"x_max":925,"o":"m 0 0 m -11 86 l 81 103 l 360 910 l 528 910 l 829 103 l 925 85 l 925 0 l 499 0 l 499 86 l 608 103 l 561 250 l 279 250 l 239 131 l 229 101 l 344 86 l 344 0 l -11 0 l -11 86 m 528 361 l 431 656 l 426 689 l 419 689 l 415 656 l 317 361 l 528 361 m 374 1129 q 423 1165 408 1158 q 449 1172 438 1172 q 472 1165 460 1172 q 498 1147 485 1157 q 518 1131 511 1136 l 686 1001 l 643 932 l 438 1018 l 242 932 l 204 989 l 374 1129 m 392 1226 q 385 1276 385 1254 q 404 1345 385 1318 q 461 1372 424 1372 q 501 1358 478 1372 q 533 1339 525 1343 l 732 1201 l 697 1132 l 392 1226 z "},"Ẩ":{"ha":907,"x_min":-11,"x_max":925,"o":"m 0 0 m -11 86 l 81 103 l 360 910 l 528 910 l 829 103 l 925 85 l 925 0 l 499 0 l 499 86 l 608 103 l 561 250 l 279 250 l 239 131 l 229 101 l 344 86 l 344 0 l -11 0 l -11 86 m 528 361 l 431 656 l 426 689 l 419 689 l 415 656 l 317 361 l 528 361 m 374 1129 q 423 1165 408 1158 q 449 1172 438 1172 q 472 1165 460 1172 q 498 1147 485 1157 q 518 1131 511 1136 l 686 1001 l 643 932 l 438 1018 l 242 932 l 204 989 l 374 1129 m 576 1115 q 561 1153 561 1139 q 574 1177 561 1165 q 617 1206 586 1189 q 642 1224 633 1215 q 651 1249 651 1233 q 639 1272 651 1265 q 599 1278 626 1278 q 524 1267 564 1278 q 497 1322 497 1296 q 607 1371 497 1371 q 740 1342 693 1371 q 788 1261 788 1314 q 719 1174 788 1208 q 676 1151 685 1158 q 672 1125 668 1144 l 576 1115 z "},"Ẫ":{"ha":907,"x_min":-11,"x_max":925,"o":"m 554 1225 q 475 1238 518 1225 l 336 1274 l 238 1231 l 183 1272 l 232 1331 q 288 1374 260 1364 q 353 1385 317 1385 q 432 1374 394 1385 l 571 1338 l 671 1379 l 724 1339 l 675 1281 q 618 1236 647 1247 q 554 1225 589 1225 m 379 1129 q 428 1165 414 1158 q 454 1172 443 1172 q 478 1165 465 1172 q 503 1147 490 1157 q 524 1131 517 1136 l 692 1001 l 649 932 l 443 1018 l 247 932 l 210 989 l 379 1129 m -11 86 l 81 103 l 360 910 l 528 910 l 829 103 l 925 85 l 925 0 l 499 0 l 499 86 l 608 103 l 561 250 l 279 250 l 239 131 l 229 101 l 344 86 l 344 0 l -11 0 l -11 86 m 528 361 l 431 656 l 426 689 l 419 689 l 415 656 l 317 361 l 528 361 z "},"Ȁ":{"ha":907,"x_min":-11,"x_max":925,"o":"m 0 0 m -11 86 l 81 103 l 360 910 l 528 910 l 829 103 l 925 85 l 925 0 l 499 0 l 499 86 l 608 103 l 561 250 l 279 250 l 239 131 l 229 101 l 344 86 l 344 0 l -11 0 l -11 86 m 528 361 l 431 656 l 426 689 l 419 689 l 415 656 l 317 361 l 528 361 m 83 1086 q 111 1160 89 1133 q 161 1188 133 1188 q 196 1176 181 1188 q 229 1144 211 1165 l 367 990 l 318 932 l 83 1086 m 347 1086 q 375 1160 353 1133 q 425 1188 397 1188 q 460 1176 444 1188 q 493 1144 475 1165 l 631 990 l 582 932 l 347 1086 z "},"Ä":{"ha":907,"x_min":-11,"x_max":925,"o":"m 265 965 q 196 994 224 965 q 168 1067 168 1022 q 200 1144 168 1111 q 276 1176 232 1176 q 347 1149 319 1176 q 375 1076 375 1122 q 344 998 375 1031 q 265 965 314 965 m 606 965 q 536 994 564 965 q 508 1067 508 1022 q 540 1144 508 1111 q 617 1176 572 1176 q 688 1149 660 1176 q 715 1076 715 1122 q 685 998 715 1031 q 606 965 654 965 m -11 86 l 81 103 l 360 910 l 528 910 l 829 103 l 925 85 l 925 0 l 499 0 l 499 86 l 608 103 l 561 250 l 279 250 l 239 131 l 229 101 l 344 86 l 344 0 l -11 0 l -11 86 m 528 361 l 431 656 l 426 689 l 419 689 l 415 656 l 317 361 l 528 361 z "},"Ạ":{"ha":907,"x_min":-11,"x_max":925,"o":"m 0 0 m -11 86 l 81 103 l 360 910 l 528 910 l 829 103 l 925 85 l 925 0 l 499 0 l 499 86 l 608 103 l 561 250 l 279 250 l 239 131 l 229 101 l 344 86 l 344 0 l -11 0 l -11 86 m 528 361 l 431 656 l 426 689 l 419 689 l 415 656 l 317 361 l 528 361 m 447 -286 q 371 -255 401 -286 q 340 -175 340 -224 q 375 -91 340 -126 q 458 -56 410 -56 q 536 -85 506 -56 q 567 -164 567 -114 q 533 -250 567 -214 q 447 -286 500 -286 z "},"À":{"ha":907,"x_min":-11,"x_max":925,"o":"m 268 1026 q 261 1076 261 1054 q 281 1145 261 1118 q 338 1172 300 1172 q 378 1158 354 1172 q 410 1139 401 1143 l 608 1001 l 574 932 l 268 1026 m -11 86 l 81 103 l 360 910 l 528 910 l 829 103 l 925 85 l 925 0 l 499 0 l 499 86 l 608 103 l 561 250 l 279 250 l 239 131 l 229 101 l 344 86 l 344 0 l -11 0 l -11 86 m 528 361 l 431 656 l 426 689 l 419 689 l 415 656 l 317 361 l 528 361 z "},"Ả":{"ha":907,"x_min":-11,"x_max":925,"o":"m 0 0 m -11 86 l 81 103 l 360 910 l 528 910 l 829 103 l 925 85 l 925 0 l 499 0 l 499 86 l 608 103 l 561 250 l 279 250 l 239 131 l 229 101 l 344 86 l 344 0 l -11 0 l -11 86 m 528 361 l 431 656 l 426 689 l 419 689 l 415 656 l 317 361 l 528 361 m 407 932 q 392 969 392 956 q 404 994 392 982 q 447 1022 417 1006 q 473 1041 464 1032 q 482 1065 482 1050 q 469 1088 482 1082 q 429 1094 457 1094 q 354 1083 394 1094 q 328 1139 328 1113 q 438 1188 328 1188 q 571 1159 524 1188 q 618 1078 618 1131 q 550 990 618 1025 q 507 968 515 975 q 503 942 499 961 l 407 932 z "},"Ȃ":{"ha":907,"x_min":-11,"x_max":925,"o":"m 0 0 m -11 86 l 81 103 l 360 910 l 528 910 l 829 103 l 925 85 l 925 0 l 499 0 l 499 86 l 608 103 l 561 250 l 279 250 l 239 131 l 229 101 l 344 86 l 344 0 l -11 0 l -11 86 m 528 361 l 431 656 l 426 689 l 419 689 l 415 656 l 317 361 l 528 361 m 606 967 q 585 992 606 971 q 528 1033 565 1014 q 439 1053 490 1053 q 344 1035 383 1053 q 282 998 304 1018 q 260 975 260 978 l 197 1019 q 226 1068 197 1026 q 310 1146 256 1110 q 439 1182 364 1182 q 592 1151 532 1182 q 681 1085 651 1121 q 710 1043 710 1050 l 606 967 z "},"Ā":{"ha":907,"x_min":-11,"x_max":925,"o":"m 211 1119 l 692 1119 l 674 1004 l 193 1004 l 211 1119 m -11 86 l 81 103 l 360 910 l 528 910 l 829 103 l 925 85 l 925 0 l 499 0 l 499 86 l 608 103 l 561 250 l 279 250 l 239 131 l 229 101 l 344 86 l 344 0 l -11 0 l -11 86 m 528 361 l 431 656 l 426 689 l 419 689 l 415 656 l 317 361 l 528 361 z "},"Ą":{"ha":907,"x_min":-11,"x_max":925,"o":"m 643 0 q 594 -52 615 -22 q 574 -112 574 -82 q 622 -160 574 -160 q 694 -132 649 -160 l 728 -189 q 707 -210 728 -192 q 653 -244 686 -228 q 579 -260 619 -260 q 481 -233 518 -260 q 444 -157 444 -207 q 474 -68 444 -108 q 550 0 504 -28 l 499 0 l 499 86 l 608 103 l 561 250 l 279 250 l 239 131 l 229 101 l 344 86 l 344 0 l -11 0 l -11 86 l 81 103 l 360 910 l 528 910 l 829 103 l 925 85 l 925 0 l 643 0 m 317 361 l 528 361 l 431 656 l 426 689 l 419 689 l 415 656 l 317 361 z "},"Å":{"ha":907,"x_min":-11,"x_max":925,"o":"m 303 1050 q 340 1141 303 1103 q 451 1179 376 1179 q 556 1144 522 1179 q 589 1058 589 1110 q 552 967 589 1006 q 442 929 515 929 q 336 963 369 929 q 303 1050 303 997 m 447 1006 q 482 1017 474 1006 q 490 1056 490 1028 q 481 1095 490 1088 q 444 1103 472 1103 q 410 1094 419 1103 q 401 1056 401 1085 q 411 1013 401 1021 q 447 1006 421 1006 m -11 86 l 81 103 l 360 910 l 528 910 l 829 103 l 925 85 l 925 0 l 499 0 l 499 86 l 608 103 l 561 250 l 279 250 l 239 131 l 229 101 l 344 86 l 344 0 l -11 0 l -11 86 m 528 361 l 431 656 l 426 689 l 419 689 l 415 656 l 317 361 l 528 361 z "},"Ǻ":{"ha":907,"x_min":-11,"x_max":925,"o":"m 386 1179 l 351 1249 l 550 1386 q 582 1405 558 1390 q 622 1419 606 1419 q 679 1392 660 1419 q 699 1322 699 1364 q 692 1274 699 1301 l 386 1179 m 925 85 l 925 0 l 499 0 l 499 86 l 608 103 l 561 250 l 279 250 l 239 131 l 229 101 l 344 86 l 344 0 l -11 0 l -11 86 l 81 103 l 360 910 l 385 910 q 311 1018 311 935 q 348 1109 311 1071 q 460 1147 385 1147 q 564 1113 531 1147 q 597 1026 597 1078 q 576 956 597 988 q 514 910 556 924 l 528 910 l 829 103 l 925 85 m 453 1075 q 423 1065 429 1075 q 417 1024 417 1056 q 424 978 417 988 q 456 969 432 969 q 485 979 479 969 q 490 1017 490 989 q 484 1065 490 1056 q 453 1075 478 1075 m 317 361 l 528 361 l 431 656 l 426 689 l 419 689 l 415 656 l 317 361 z "},"Ã":{"ha":907,"x_min":-11,"x_max":925,"o":"m 233 1104 q 290 1159 261 1146 q 354 1172 318 1172 q 433 1158 392 1172 l 572 1113 l 672 1165 l 725 1115 l 676 1042 q 619 986 649 1000 q 556 972 590 972 q 519 976 536 972 q 476 988 503 979 l 338 1033 l 239 979 l 185 1031 l 233 1104 m -11 86 l 81 103 l 360 910 l 528 910 l 829 103 l 925 85 l 925 0 l 499 0 l 499 86 l 608 103 l 561 250 l 279 250 l 239 131 l 229 101 l 344 86 l 344 0 l -11 0 l -11 86 m 528 361 l 431 656 l 426 689 l 419 689 l 415 656 l 317 361 l 528 361 z "},"Æ":{"ha":1225,"x_min":-6,"x_max":1190,"o":"m -6 86 l 97 103 l 469 900 l 1090 900 l 1113 639 l 1021 639 l 969 794 l 801 794 l 742 785 l 769 464 l 896 464 l 918 560 l 992 560 l 1019 253 l 946 253 l 906 358 l 779 358 l 801 106 l 861 106 l 1053 106 l 1076 274 l 1165 274 l 1190 0 l 503 0 l 496 78 l 604 104 l 582 353 l 353 353 l 254 128 l 242 101 l 349 86 l 349 0 l -6 0 l -6 86 m 572 464 l 543 785 l 401 464 l 572 464 z "},"Ǽ":{"ha":1225,"x_min":-6,"x_max":1190,"o":"m 0 0 m -6 86 l 97 103 l 469 900 l 1090 900 l 1113 639 l 1021 639 l 969 794 l 801 794 l 742 785 l 769 464 l 896 464 l 918 560 l 992 560 l 1019 253 l 946 253 l 906 358 l 779 358 l 801 106 l 861 106 l 1053 106 l 1076 274 l 1165 274 l 1190 0 l 503 0 l 496 78 l 604 104 l 582 353 l 353 353 l 254 128 l 242 101 l 349 86 l 349 0 l -6 0 l -6 86 m 572 464 l 543 785 l 401 464 l 572 464 m 582 1001 l 781 1139 q 813 1158 789 1143 q 853 1172 836 1172 q 910 1144 890 1172 q 929 1075 929 1117 q 922 1026 929 1054 l 617 932 l 582 1001 z "},"B":{"ha":885,"x_min":49,"x_max":829,"o":"m 49 78 l 160 104 l 160 796 l 49 822 l 49 900 l 432 900 q 707 844 618 900 q 796 668 796 788 q 761 566 796 615 q 663 478 726 517 q 829 283 829 424 q 741 76 829 151 q 500 0 653 0 l 49 0 l 49 78 m 406 510 q 540 549 492 510 q 588 656 588 588 q 549 759 588 724 q 433 794 510 794 q 357 789 396 794 l 357 510 l 406 510 m 408 106 q 568 142 518 106 q 618 258 618 179 q 407 404 618 404 l 357 404 l 357 107 q 408 106 367 106 z "},"C":{"ha":842,"x_min":49,"x_max":786,"o":"m 786 288 l 786 38 q 651 -7 726 11 q 465 -25 575 -25 q 153 95 258 -25 q 49 439 49 215 q 106 688 49 578 q 265 862 163 799 q 497 925 367 925 q 653 913 578 925 q 781 888 728 901 l 781 638 l 676 638 l 647 783 q 500 808 568 808 q 367 774 415 808 q 297 660 318 739 q 275 443 275 582 q 299 225 275 301 q 372 119 324 149 q 501 90 421 90 q 651 122 581 90 l 683 288 l 786 288 z "},"Ć":{"ha":840,"x_min":49,"x_max":782,"o":"m 535 1139 q 567 1158 543 1143 q 607 1172 590 1172 q 664 1144 644 1172 q 683 1075 683 1117 q 676 1026 683 1054 l 371 932 l 336 1001 l 535 1139 m 782 288 l 782 38 q 648 -7 721 11 q 465 -25 575 -25 q 153 95 258 -25 q 49 439 49 215 q 106 688 49 578 q 265 862 163 799 q 497 925 367 925 q 776 888 638 925 l 776 638 l 676 638 l 647 783 q 500 808 568 808 q 367 774 415 808 q 297 660 318 739 q 275 443 275 582 q 299 225 275 301 q 372 119 324 149 q 501 90 421 90 q 651 122 581 90 l 683 288 l 782 288 z "},"Č":{"ha":840,"x_min":49,"x_max":782,"o":"m 490 1086 l 683 1172 l 724 1114 l 553 972 q 513 942 529 953 q 482 932 496 932 q 444 949 468 932 q 410 974 419 967 l 239 1100 l 286 1172 l 490 1086 m 782 288 l 782 38 q 648 -7 721 11 q 465 -25 575 -25 q 153 95 258 -25 q 49 439 49 215 q 106 688 49 578 q 265 862 163 799 q 497 925 367 925 q 776 888 638 925 l 776 638 l 676 638 l 647 783 q 500 808 568 808 q 367 774 415 808 q 297 660 318 739 q 275 443 275 582 q 299 225 275 301 q 372 119 324 149 q 501 90 421 90 q 651 122 581 90 l 683 288 l 782 288 z "},"Ç":{"ha":840,"x_min":49,"x_max":782,"o":"m 374 -178 q 458 -196 415 -196 q 494 -189 482 -196 q 507 -161 507 -182 q 499 -140 507 -147 q 475 -129 492 -132 l 435 -121 l 403 -89 l 432 -24 q 145 105 242 -14 q 49 439 49 224 q 106 688 49 578 q 265 862 163 799 q 497 925 367 925 q 776 888 638 925 l 776 638 l 676 638 l 647 783 q 500 808 568 808 q 367 774 415 808 q 297 660 318 739 q 275 443 275 582 q 299 225 275 301 q 372 119 324 149 q 501 90 421 90 q 651 122 581 90 l 683 288 l 782 288 l 782 38 q 511 -24 661 -18 l 511 -42 l 540 -49 q 612 -81 589 -61 q 635 -144 635 -100 q 591 -237 635 -206 q 463 -269 547 -269 q 399 -263 425 -269 q 346 -243 372 -257 l 374 -178 z "},"Ĉ":{"ha":842,"x_min":49,"x_max":786,"o":"m 49 0 m 786 288 l 786 38 q 651 -7 726 11 q 465 -25 575 -25 q 153 95 258 -25 q 49 439 49 215 q 106 688 49 578 q 265 862 163 799 q 497 925 367 925 q 653 913 578 925 q 781 888 728 901 l 781 638 l 676 638 l 647 783 q 500 808 568 808 q 367 774 415 808 q 297 660 318 739 q 275 443 275 582 q 299 225 275 301 q 372 119 324 149 q 501 90 421 90 q 651 122 581 90 l 683 288 l 786 288 m 425 1129 q 474 1165 460 1158 q 500 1172 489 1172 q 524 1165 511 1172 q 549 1147 536 1157 q 569 1131 563 1136 l 738 1001 l 694 932 l 489 1018 l 293 932 l 256 989 l 425 1129 z "},"Ċ":{"ha":842,"x_min":49,"x_max":786,"o":"m 49 0 m 786 288 l 786 38 q 651 -7 726 11 q 465 -25 575 -25 q 153 95 258 -25 q 49 439 49 215 q 106 688 49 578 q 265 862 163 799 q 497 925 367 925 q 653 913 578 925 q 781 888 728 901 l 781 638 l 676 638 l 647 783 q 500 808 568 808 q 367 774 415 808 q 297 660 318 739 q 275 443 275 582 q 299 225 275 301 q 372 119 324 149 q 501 90 421 90 q 651 122 581 90 l 683 288 l 786 288 m 490 960 q 414 991 444 960 q 383 1071 383 1022 q 418 1155 383 1119 q 501 1190 453 1190 q 579 1161 549 1190 q 610 1082 610 1132 q 576 996 610 1032 q 490 960 543 960 z "},"D":{"ha":989,"x_min":49,"x_max":940,"o":"m 49 78 l 160 104 l 160 796 l 49 822 l 49 900 l 483 900 q 822 790 704 900 q 940 461 940 679 q 883 219 940 324 q 725 57 826 114 q 492 0 624 0 l 49 0 l 49 78 m 401 106 q 597 137 531 106 q 688 246 663 168 q 714 476 714 324 q 676 678 714 608 q 578 772 639 749 q 429 794 517 794 l 357 794 l 357 106 l 401 106 z "},"Ǳ":{"ha":1711,"x_min":49,"x_max":1701,"o":"m 49 0 m 49 78 l 160 104 l 160 796 l 49 822 l 49 900 l 483 900 q 822 790 704 900 q 940 461 940 679 q 883 219 940 324 q 725 57 826 114 q 492 0 624 0 l 49 0 l 49 78 m 401 106 q 597 137 531 106 q 688 246 663 168 q 714 476 714 324 q 676 678 714 608 q 578 772 639 749 q 429 794 517 794 l 357 794 l 357 106 l 401 106 m 996 106 l 1457 776 l 1457 794 l 1133 794 l 1106 653 l 1008 653 l 1008 900 l 1693 900 l 1693 794 l 1232 121 l 1232 106 l 1575 106 l 1604 247 l 1701 247 l 1701 0 l 996 0 l 996 106 z "},"Ǆ":{"ha":1711,"x_min":49,"x_max":1701,"o":"m 49 0 m 49 78 l 160 104 l 160 796 l 49 822 l 49 900 l 483 900 q 822 790 704 900 q 940 461 940 679 q 883 219 940 324 q 725 57 826 114 q 492 0 624 0 l 49 0 l 49 78 m 401 106 q 597 137 531 106 q 688 246 663 168 q 714 476 714 324 q 676 678 714 608 q 578 772 639 749 q 429 794 517 794 l 357 794 l 357 106 l 401 106 m 996 106 l 1457 776 l 1457 794 l 1133 794 l 1106 653 l 1008 653 l 1008 900 l 1693 900 l 1693 794 l 1232 121 l 1232 106 l 1575 106 l 1604 247 l 1701 247 l 1701 0 l 996 0 l 996 106 m 1336 1086 l 1529 1172 l 1569 1114 l 1403 975 q 1383 959 1397 971 q 1356 940 1369 947 q 1328 932 1342 932 q 1284 951 1308 932 q 1256 974 1260 971 l 1085 1100 l 1132 1172 l 1336 1086 z "},"Ð":{"ha":1001,"x_min":56,"x_max":953,"o":"m 172 104 l 172 411 l 56 411 l 56 518 l 172 518 l 172 796 l 61 822 l 61 900 l 496 900 q 835 790 717 900 q 953 461 953 679 q 896 219 953 324 q 738 57 839 114 q 504 0 636 0 l 61 0 l 61 78 l 172 104 m 414 106 q 609 137 543 106 q 701 246 675 168 q 726 476 726 324 q 689 678 726 608 q 590 772 651 749 q 442 794 529 794 l 369 794 l 369 518 l 535 518 l 535 411 l 369 411 l 369 106 l 414 106 z "},"Ď":{"ha":989,"x_min":49,"x_max":940,"o":"m 482 1086 l 675 1172 l 715 1114 l 549 975 q 529 959 544 972 q 501 939 514 946 q 478 932 488 932 q 445 941 460 932 q 401 974 431 950 l 231 1100 l 278 1172 l 482 1086 m 49 78 l 160 104 l 160 796 l 49 822 l 49 900 l 483 900 q 822 790 704 900 q 940 461 940 679 q 883 219 940 324 q 725 57 826 114 q 492 0 624 0 l 49 0 l 49 78 m 401 106 q 597 137 531 106 q 688 246 663 168 q 714 476 714 324 q 676 678 714 608 q 578 772 639 749 q 429 794 517 794 l 357 794 l 357 106 l 401 106 z "},"Đ":{"ha":1001,"x_min":56,"x_max":953,"o":"m 56 0 m 172 104 l 172 411 l 56 411 l 56 518 l 172 518 l 172 796 l 61 822 l 61 900 l 496 900 q 835 790 717 900 q 953 461 953 679 q 896 219 953 324 q 738 57 839 114 q 504 0 636 0 l 61 0 l 61 78 l 172 104 m 414 106 q 609 137 543 106 q 701 246 675 168 q 726 476 726 324 q 689 678 726 608 q 590 772 651 749 q 442 794 529 794 l 369 794 l 369 518 l 535 518 l 535 411 l 369 411 l 369 106 l 414 106 z "},"Ḍ":{"ha":989,"x_min":49,"x_max":940,"o":"m 49 0 m 49 78 l 160 104 l 160 796 l 49 822 l 49 900 l 483 900 q 822 790 704 900 q 940 461 940 679 q 883 219 940 324 q 725 57 826 114 q 492 0 624 0 l 49 0 l 49 78 m 401 106 q 597 137 531 106 q 688 246 663 168 q 714 476 714 324 q 676 678 714 608 q 578 772 639 749 q 429 794 517 794 l 357 794 l 357 106 l 401 106 m 488 -286 q 411 -255 442 -286 q 381 -175 381 -224 q 415 -91 381 -126 q 499 -56 450 -56 q 576 -85 546 -56 q 607 -164 607 -114 q 574 -250 607 -214 q 488 -286 540 -286 z "},"ǲ":{"ha":1625,"x_min":49,"x_max":1594,"o":"m 49 0 m 49 78 l 160 104 l 160 796 l 49 822 l 49 900 l 483 900 q 822 790 704 900 q 940 461 940 679 q 883 219 940 324 q 725 57 826 114 q 492 0 624 0 l 49 0 l 49 78 m 401 106 q 597 137 531 106 q 688 246 663 168 q 714 476 714 324 q 676 678 714 608 q 578 772 639 749 q 429 794 517 794 l 357 794 l 357 106 l 401 106 m 1010 0 l 1010 111 l 1354 583 l 1156 583 l 1125 482 l 1026 482 l 1026 689 l 1578 689 l 1578 578 l 1229 126 l 1214 106 l 1464 106 l 1490 225 l 1594 225 l 1594 0 l 1010 0 z "},"ǅ":{"ha":1625,"x_min":49,"x_max":1594,"o":"m 49 0 m 49 78 l 160 104 l 160 796 l 49 822 l 49 900 l 483 900 q 822 790 704 900 q 940 461 940 679 q 883 219 940 324 q 725 57 826 114 q 492 0 624 0 l 49 0 l 49 78 m 401 106 q 597 137 531 106 q 688 246 663 168 q 714 476 714 324 q 676 678 714 608 q 578 772 639 749 q 429 794 517 794 l 357 794 l 357 106 l 401 106 m 1010 0 l 1010 111 l 1354 583 l 1156 583 l 1125 482 l 1026 482 l 1026 689 l 1578 689 l 1578 578 l 1229 126 l 1214 106 l 1464 106 l 1490 225 l 1594 225 l 1594 0 l 1010 0 m 1306 747 q 1276 761 1294 747 q 1224 808 1257 775 l 1097 931 l 1157 999 l 1317 894 l 1479 999 l 1524 940 l 1388 808 q 1335 761 1354 775 q 1306 747 1317 747 z "},"E":{"ha":807,"x_min":49,"x_max":751,"o":"m 49 78 l 160 104 l 160 796 l 49 822 l 49 900 l 739 900 l 739 639 l 644 639 l 610 794 l 418 794 l 357 785 l 357 508 l 499 508 l 529 604 l 603 604 l 603 297 l 529 297 l 499 403 l 357 403 l 357 106 l 424 106 l 624 106 l 660 274 l 751 274 l 751 0 l 49 0 l 49 78 z "},"É":{"ha":807,"x_min":49,"x_max":751,"o":"m 472 1139 q 504 1158 481 1143 q 544 1172 528 1172 q 601 1144 582 1172 q 621 1075 621 1117 q 614 1026 621 1054 l 308 932 l 274 1001 l 472 1139 m 49 78 l 160 104 l 160 796 l 49 822 l 49 900 l 739 900 l 739 639 l 644 639 l 610 794 l 418 794 l 357 785 l 357 508 l 499 508 l 529 604 l 603 604 l 603 297 l 529 297 l 499 403 l 357 403 l 357 106 l 424 106 l 624 106 l 660 274 l 751 274 l 751 0 l 49 0 l 49 78 z "},"Ĕ":{"ha":807,"x_min":49,"x_max":751,"o":"m 49 0 m 49 78 l 160 104 l 160 796 l 49 822 l 49 900 l 739 900 l 739 639 l 644 639 l 610 794 l 418 794 l 357 785 l 357 508 l 499 508 l 529 604 l 603 604 l 603 297 l 529 297 l 499 403 l 357 403 l 357 106 l 424 106 l 624 106 l 660 274 l 751 274 l 751 0 l 49 0 l 49 78 m 281 1182 q 301 1156 281 1178 q 358 1115 321 1135 q 447 1096 396 1096 q 542 1113 503 1096 q 604 1151 582 1131 q 626 1174 626 1171 l 689 1129 q 660 1081 689 1122 q 576 1003 631 1039 q 447 967 522 967 q 294 997 354 967 q 206 1063 235 1028 q 176 1106 176 1099 l 281 1182 z "},"Ě":{"ha":807,"x_min":49,"x_max":751,"o":"m 442 1086 l 635 1172 l 675 1114 l 508 975 q 466 944 483 956 q 433 932 449 932 q 390 951 414 932 q 361 974 365 971 l 190 1100 l 238 1172 l 442 1086 m 49 78 l 160 104 l 160 796 l 49 822 l 49 900 l 739 900 l 739 639 l 644 639 l 610 794 l 418 794 l 357 785 l 357 508 l 499 508 l 529 604 l 603 604 l 603 297 l 529 297 l 499 403 l 357 403 l 357 106 l 424 106 l 624 106 l 660 274 l 751 274 l 751 0 l 49 0 l 49 78 z "},"Ê":{"ha":807,"x_min":49,"x_max":751,"o":"m 333 1129 q 383 1165 368 1158 q 408 1172 397 1172 q 432 1165 419 1172 q 458 1147 444 1157 q 478 1131 471 1136 l 646 1001 l 603 932 l 397 1018 l 201 932 l 164 989 l 333 1129 m 49 78 l 160 104 l 160 796 l 49 822 l 49 900 l 739 900 l 739 639 l 644 639 l 610 794 l 418 794 l 357 785 l 357 508 l 499 508 l 529 604 l 603 604 l 603 297 l 529 297 l 499 403 l 357 403 l 357 106 l 424 106 l 624 106 l 660 274 l 751 274 l 751 0 l 49 0 l 49 78 z "},"Ế":{"ha":807,"x_min":49,"x_max":864,"o":"m 49 0 m 49 78 l 160 104 l 160 796 l 49 822 l 49 900 l 739 900 l 739 639 l 644 639 l 610 794 l 418 794 l 357 785 l 357 508 l 499 508 l 529 604 l 603 604 l 603 297 l 529 297 l 499 403 l 357 403 l 357 106 l 424 106 l 624 106 l 660 274 l 751 274 l 751 0 l 49 0 l 49 78 m 365 1129 q 415 1165 400 1158 q 440 1172 429 1172 q 464 1165 451 1172 q 490 1147 476 1157 q 510 1131 503 1136 l 678 1001 l 635 932 l 429 1018 l 233 932 l 196 989 l 365 1129 m 517 1201 l 715 1339 q 747 1358 724 1343 q 788 1372 771 1372 q 844 1344 825 1372 q 864 1275 864 1317 q 857 1226 864 1254 l 551 1132 l 517 1201 z "},"Ệ":{"ha":807,"x_min":49,"x_max":751,"o":"m 49 0 m 49 78 l 160 104 l 160 796 l 49 822 l 49 900 l 739 900 l 739 639 l 644 639 l 610 794 l 418 794 l 357 785 l 357 508 l 499 508 l 529 604 l 603 604 l 603 297 l 529 297 l 499 403 l 357 403 l 357 106 l 424 106 l 624 106 l 660 274 l 751 274 l 751 0 l 49 0 l 49 78 m 397 -286 q 321 -255 351 -286 q 290 -175 290 -224 q 325 -91 290 -126 q 408 -56 360 -56 q 486 -85 456 -56 q 517 -164 517 -114 q 483 -250 517 -214 q 397 -286 450 -286 m 361 1129 q 410 1165 396 1158 q 436 1172 425 1172 q 460 1165 447 1172 q 485 1147 472 1157 q 506 1131 499 1136 l 674 1001 l 631 932 l 425 1018 l 229 932 l 192 989 l 361 1129 z "},"Ề":{"ha":807,"x_min":49,"x_max":751,"o":"m 49 0 m 49 78 l 160 104 l 160 796 l 49 822 l 49 900 l 739 900 l 739 639 l 644 639 l 610 794 l 418 794 l 357 785 l 357 508 l 499 508 l 529 604 l 603 604 l 603 297 l 529 297 l 499 403 l 357 403 l 357 106 l 424 106 l 624 106 l 660 274 l 751 274 l 751 0 l 49 0 l 49 78 m 353 1129 q 402 1165 388 1158 q 428 1172 417 1172 q 451 1165 439 1172 q 477 1147 464 1157 q 497 1131 490 1136 l 665 1001 l 622 932 l 417 1018 l 221 932 l 183 989 l 353 1129 m 371 1226 q 364 1276 364 1254 q 383 1345 364 1318 q 440 1372 403 1372 q 481 1358 457 1372 q 513 1339 504 1343 l 711 1201 l 676 1132 l 371 1226 z "},"Ể":{"ha":807,"x_min":49,"x_max":767,"o":"m 49 0 m 49 78 l 160 104 l 160 796 l 49 822 l 49 900 l 739 900 l 739 639 l 644 639 l 610 794 l 418 794 l 357 785 l 357 508 l 499 508 l 529 604 l 603 604 l 603 297 l 529 297 l 499 403 l 357 403 l 357 106 l 424 106 l 624 106 l 660 274 l 751 274 l 751 0 l 49 0 l 49 78 m 353 1129 q 402 1165 388 1158 q 428 1172 417 1172 q 451 1165 439 1172 q 477 1147 464 1157 q 497 1131 490 1136 l 665 1001 l 622 932 l 417 1018 l 221 932 l 183 989 l 353 1129 m 556 1115 q 540 1153 540 1139 q 553 1177 540 1165 q 596 1206 565 1189 q 622 1224 613 1215 q 631 1249 631 1233 q 618 1272 631 1265 q 578 1278 606 1278 q 503 1267 543 1278 q 476 1322 476 1296 q 586 1371 476 1371 q 719 1342 672 1371 q 767 1261 767 1314 q 699 1174 767 1208 q 656 1151 664 1158 q 651 1125 647 1144 l 556 1115 z "},"Ễ":{"ha":807,"x_min":49,"x_max":751,"o":"m 533 1225 q 454 1238 497 1225 l 315 1274 l 217 1231 l 163 1272 l 211 1331 q 267 1374 239 1364 q 332 1385 296 1385 q 411 1374 374 1385 l 550 1338 l 650 1379 l 703 1339 l 654 1281 q 597 1236 626 1247 q 533 1225 568 1225 m 358 1129 q 408 1165 393 1158 q 433 1172 422 1172 q 457 1165 444 1172 q 483 1147 469 1157 q 503 1131 496 1136 l 671 1001 l 628 932 l 422 1018 l 226 932 l 189 989 l 358 1129 m 49 78 l 160 104 l 160 796 l 49 822 l 49 900 l 739 900 l 739 639 l 644 639 l 610 794 l 418 794 l 357 785 l 357 508 l 499 508 l 529 604 l 603 604 l 603 297 l 529 297 l 499 403 l 357 403 l 357 106 l 424 106 l 624 106 l 660 274 l 751 274 l 751 0 l 49 0 l 49 78 z "},"Ȅ":{"ha":807,"x_min":49,"x_max":751,"o":"m 49 0 m 49 78 l 160 104 l 160 796 l 49 822 l 49 900 l 739 900 l 739 639 l 644 639 l 610 794 l 418 794 l 357 785 l 357 508 l 499 508 l 529 604 l 603 604 l 603 297 l 529 297 l 499 403 l 357 403 l 357 106 l 424 106 l 624 106 l 660 274 l 751 274 l 751 0 l 49 0 l 49 78 m 63 1086 q 90 1160 68 1133 q 140 1188 113 1188 q 175 1176 160 1188 q 208 1144 190 1165 l 346 990 l 297 932 l 63 1086 m 326 1086 q 354 1160 332 1133 q 404 1188 376 1188 q 439 1176 424 1188 q 472 1144 454 1165 l 610 990 l 561 932 l 326 1086 z "},"Ë":{"ha":807,"x_min":49,"x_max":751,"o":"m 228 965 q 158 994 186 965 q 131 1067 131 1022 q 163 1144 131 1111 q 239 1176 194 1176 q 310 1149 282 1176 q 338 1076 338 1122 q 307 998 338 1031 q 228 965 276 965 m 568 965 q 499 994 526 965 q 471 1067 471 1022 q 503 1144 471 1111 q 579 1176 535 1176 q 650 1149 622 1176 q 678 1076 678 1122 q 647 998 678 1031 q 568 965 617 965 m 49 78 l 160 104 l 160 796 l 49 822 l 49 900 l 739 900 l 739 639 l 644 639 l 610 794 l 418 794 l 357 785 l 357 508 l 499 508 l 529 604 l 603 604 l 603 297 l 529 297 l 499 403 l 357 403 l 357 106 l 424 106 l 624 106 l 660 274 l 751 274 l 751 0 l 49 0 l 49 78 z "},"Ė":{"ha":807,"x_min":49,"x_max":751,"o":"m 413 960 q 336 991 367 960 q 306 1071 306 1022 q 340 1155 306 1119 q 424 1190 375 1190 q 501 1161 471 1190 q 532 1082 532 1132 q 499 996 532 1032 q 413 960 465 960 m 49 78 l 160 104 l 160 796 l 49 822 l 49 900 l 739 900 l 739 639 l 644 639 l 610 794 l 418 794 l 357 785 l 357 508 l 499 508 l 529 604 l 603 604 l 603 297 l 529 297 l 499 403 l 357 403 l 357 106 l 424 106 l 624 106 l 660 274 l 751 274 l 751 0 l 49 0 l 49 78 z "},"Ẹ":{"ha":807,"x_min":49,"x_max":751,"o":"m 49 0 m 49 78 l 160 104 l 160 796 l 49 822 l 49 900 l 739 900 l 739 639 l 644 639 l 610 794 l 418 794 l 357 785 l 357 508 l 499 508 l 529 604 l 603 604 l 603 297 l 529 297 l 499 403 l 357 403 l 357 106 l 424 106 l 624 106 l 660 274 l 751 274 l 751 0 l 49 0 l 49 78 m 397 -286 q 321 -255 351 -286 q 290 -175 290 -224 q 325 -91 290 -126 q 408 -56 360 -56 q 486 -85 456 -56 q 517 -164 517 -114 q 483 -250 517 -214 q 397 -286 450 -286 z "},"È":{"ha":807,"x_min":49,"x_max":751,"o":"m 221 1026 q 214 1076 214 1054 q 233 1145 214 1118 q 290 1172 253 1172 q 331 1158 307 1172 q 363 1139 354 1143 l 561 1001 l 526 932 l 221 1026 m 49 78 l 160 104 l 160 796 l 49 822 l 49 900 l 739 900 l 739 639 l 644 639 l 610 794 l 418 794 l 357 785 l 357 508 l 499 508 l 529 604 l 603 604 l 603 297 l 529 297 l 499 403 l 357 403 l 357 106 l 424 106 l 624 106 l 660 274 l 751 274 l 751 0 l 49 0 l 49 78 z "},"Ẻ":{"ha":807,"x_min":49,"x_max":751,"o":"m 49 0 m 49 78 l 160 104 l 160 796 l 49 822 l 49 900 l 739 900 l 739 639 l 644 639 l 610 794 l 418 794 l 357 785 l 357 508 l 499 508 l 529 604 l 603 604 l 603 297 l 529 297 l 499 403 l 357 403 l 357 106 l 424 106 l 624 106 l 660 274 l 751 274 l 751 0 l 49 0 l 49 78 m 386 932 q 371 969 371 956 q 383 994 371 982 q 426 1022 396 1006 q 452 1041 443 1032 q 461 1065 461 1050 q 449 1088 461 1082 q 408 1094 436 1094 q 333 1083 374 1094 q 307 1139 307 1113 q 417 1188 307 1188 q 550 1159 503 1188 q 597 1078 597 1131 q 529 990 597 1025 q 486 968 494 975 q 482 942 478 961 l 386 932 z "},"Ȇ":{"ha":807,"x_min":49,"x_max":751,"o":"m 49 0 m 49 78 l 160 104 l 160 796 l 49 822 l 49 900 l 739 900 l 739 639 l 644 639 l 610 794 l 418 794 l 357 785 l 357 508 l 499 508 l 529 604 l 603 604 l 603 297 l 529 297 l 499 403 l 357 403 l 357 106 l 424 106 l 624 106 l 660 274 l 751 274 l 751 0 l 49 0 l 49 78 m 585 967 q 565 992 585 971 q 507 1033 544 1014 q 418 1053 469 1053 q 323 1035 363 1053 q 261 998 283 1018 q 239 975 239 978 l 176 1019 q 206 1068 176 1026 q 289 1146 235 1110 q 418 1182 343 1182 q 571 1151 511 1182 q 660 1085 631 1121 q 689 1043 689 1050 l 585 967 z "},"Ē":{"ha":807,"x_min":49,"x_max":751,"o":"m 174 1119 l 654 1119 l 636 1004 l 156 1004 l 174 1119 m 49 78 l 160 104 l 160 796 l 49 822 l 49 900 l 739 900 l 739 639 l 644 639 l 610 794 l 418 794 l 357 785 l 357 508 l 499 508 l 529 604 l 603 604 l 603 297 l 529 297 l 499 403 l 357 403 l 357 106 l 424 106 l 624 106 l 660 274 l 751 274 l 751 0 l 49 0 l 49 78 z "},"Ę":{"ha":821,"x_min":49,"x_max":765,"o":"m 160 104 l 160 796 l 49 822 l 49 900 l 739 900 l 739 639 l 647 639 l 610 794 l 418 794 l 357 785 l 357 508 l 499 508 l 529 604 l 603 604 l 603 297 l 529 297 l 499 403 l 357 403 l 357 106 l 419 106 l 624 106 l 663 274 l 751 274 l 751 0 l 681 0 q 632 -52 653 -22 q 611 -112 611 -82 q 660 -160 611 -160 q 732 -132 686 -160 l 765 -189 q 744 -210 765 -192 q 690 -244 724 -228 q 617 -260 657 -260 q 519 -233 556 -260 q 482 -157 482 -207 q 511 -67 482 -107 q 588 0 540 -28 l 49 0 l 49 78 l 160 104 z "},"Ẽ":{"ha":807,"x_min":49,"x_max":751,"o":"m 49 0 m 49 78 l 160 104 l 160 796 l 49 822 l 49 900 l 739 900 l 739 639 l 644 639 l 610 794 l 418 794 l 357 785 l 357 508 l 499 508 l 529 604 l 603 604 l 603 297 l 529 297 l 499 403 l 357 403 l 357 106 l 424 106 l 624 106 l 660 274 l 751 274 l 751 0 l 49 0 l 49 78 m 533 972 q 497 976 514 972 q 454 988 481 979 l 315 1033 l 217 979 l 163 1031 l 211 1104 q 267 1159 239 1146 q 332 1172 296 1172 q 411 1158 369 1172 l 550 1113 l 650 1165 l 703 1115 l 654 1042 q 597 986 626 1000 q 533 972 568 972 z "},"F":{"ha":746,"x_min":49,"x_max":725,"o":"m 49 78 l 160 104 l 160 796 l 49 822 l 49 900 l 725 900 l 725 639 l 631 639 l 596 794 l 418 794 l 357 785 l 357 485 l 522 485 l 553 581 l 626 581 l 626 274 l 553 274 l 522 381 l 357 381 l 357 104 l 468 78 l 468 0 l 49 0 l 49 78 z "},"G":{"ha":900,"x_min":49,"x_max":879,"o":"m 501 386 l 501 464 l 879 464 l 879 386 l 810 360 l 810 0 l 740 0 l 708 36 l 696 36 q 465 -25 597 -25 q 153 90 257 -25 q 49 428 49 206 q 109 696 49 583 q 279 867 169 808 q 533 925 389 925 q 661 915 606 925 q 753 895 717 906 q 801 882 790 885 l 801 632 l 697 632 l 668 782 q 535 808 613 808 q 337 722 399 808 q 275 447 275 635 q 300 233 275 311 q 374 123 325 156 q 501 90 422 90 q 613 108 564 90 l 613 360 l 501 386 z "},"Ǵ":{"ha":900,"x_min":49,"x_max":879,"o":"m 49 0 m 501 386 l 501 464 l 879 464 l 879 386 l 810 360 l 810 0 l 740 0 l 708 36 l 696 36 q 465 -25 597 -25 q 153 90 257 -25 q 49 428 49 206 q 109 696 49 583 q 279 867 169 808 q 533 925 389 925 q 661 915 606 925 q 753 895 717 906 q 801 882 790 885 l 801 632 l 697 632 l 668 782 q 535 808 613 808 q 337 722 399 808 q 275 447 275 635 q 300 233 275 311 q 374 123 325 156 q 501 90 422 90 q 613 108 564 90 l 613 360 l 501 386 m 406 1001 l 604 1139 q 636 1158 613 1143 q 676 1172 660 1172 q 733 1144 714 1172 q 753 1075 753 1117 q 746 1026 753 1054 l 440 932 l 406 1001 z "},"Ğ":{"ha":907,"x_min":49,"x_max":879,"o":"m 314 1182 q 334 1156 314 1178 q 392 1115 354 1135 q 481 1096 429 1096 q 576 1113 536 1096 q 638 1151 615 1131 q 660 1174 660 1171 l 722 1129 q 693 1081 722 1122 q 610 1003 664 1039 q 481 967 556 967 q 328 997 388 967 q 239 1063 268 1028 q 210 1106 210 1099 l 314 1182 m 501 386 l 501 464 l 879 464 l 879 386 l 810 360 l 810 0 l 740 0 l 708 36 l 696 36 q 465 -25 597 -25 q 153 90 257 -25 q 49 428 49 206 q 109 696 49 583 q 279 867 169 808 q 533 925 389 925 q 658 915 604 925 q 771 889 713 906 l 797 882 l 797 632 l 697 632 l 668 782 q 535 808 613 808 q 337 722 399 808 q 275 447 275 635 q 300 233 275 311 q 374 123 325 156 q 501 90 422 90 q 613 108 564 90 l 613 360 l 501 386 z "},"Ǧ":{"ha":900,"x_min":49,"x_max":879,"o":"m 49 0 m 501 386 l 501 464 l 879 464 l 879 386 l 810 360 l 810 0 l 740 0 l 708 36 l 696 36 q 465 -25 597 -25 q 153 90 257 -25 q 49 428 49 206 q 109 696 49 583 q 279 867 169 808 q 533 925 389 925 q 661 915 606 925 q 753 895 717 906 q 801 882 790 885 l 801 632 l 697 632 l 668 782 q 535 808 613 808 q 337 722 399 808 q 275 447 275 635 q 300 233 275 311 q 374 123 325 156 q 501 90 422 90 q 613 108 564 90 l 613 360 l 501 386 m 519 1086 l 713 1172 l 753 1114 l 586 975 q 567 959 581 971 q 539 940 553 947 q 511 932 525 932 q 467 951 492 932 q 439 974 443 971 l 268 1100 l 315 1172 l 519 1086 z "},"Ĝ":{"ha":900,"x_min":49,"x_max":879,"o":"m 49 0 m 501 386 l 501 464 l 879 464 l 879 386 l 810 360 l 810 0 l 740 0 l 708 36 l 696 36 q 465 -25 597 -25 q 153 90 257 -25 q 49 428 49 206 q 109 696 49 583 q 279 867 169 808 q 533 925 389 925 q 661 915 606 925 q 753 895 717 906 q 801 882 790 885 l 801 632 l 697 632 l 668 782 q 535 808 613 808 q 337 722 399 808 q 275 447 275 635 q 300 233 275 311 q 374 123 325 156 q 501 90 422 90 q 613 108 564 90 l 613 360 l 501 386 m 439 1129 q 488 1165 474 1158 q 514 1172 503 1172 q 538 1165 525 1172 q 563 1147 550 1157 q 583 1131 576 1136 l 751 1001 l 708 932 l 503 1018 l 307 932 l 269 989 l 439 1129 z "},"Ģ":{"ha":907,"x_min":49,"x_max":879,"o":"m 501 386 l 501 464 l 879 464 l 879 386 l 810 360 l 810 0 l 740 0 l 708 36 l 696 36 q 465 -25 597 -25 q 153 90 257 -25 q 49 428 49 206 q 109 696 49 583 q 279 867 169 808 q 533 925 389 925 q 658 915 604 925 q 771 889 713 906 l 797 882 l 797 632 l 697 632 l 668 782 q 535 808 613 808 q 337 722 399 808 q 275 447 275 635 q 300 233 275 311 q 374 123 325 156 q 501 90 422 90 q 613 108 564 90 l 613 360 l 501 386 m 419 -294 q 425 -271 421 -289 q 434 -222 429 -253 q 439 -164 439 -192 q 433 -117 439 -136 q 420 -87 426 -97 q 411 -75 414 -78 q 446 -44 428 -56 q 489 -33 464 -33 q 553 -58 532 -33 q 575 -115 575 -82 q 554 -197 575 -157 q 507 -267 533 -236 q 481 -294 481 -297 l 419 -294 z "},"Ġ":{"ha":900,"x_min":49,"x_max":879,"o":"m 49 0 m 501 386 l 501 464 l 879 464 l 879 386 l 810 360 l 810 0 l 740 0 l 708 36 l 696 36 q 465 -25 597 -25 q 153 90 257 -25 q 49 428 49 206 q 109 696 49 583 q 279 867 169 808 q 533 925 389 925 q 661 915 606 925 q 753 895 717 906 q 801 882 790 885 l 801 632 l 697 632 l 668 782 q 535 808 613 808 q 337 722 399 808 q 275 447 275 635 q 300 233 275 311 q 374 123 325 156 q 501 90 422 90 q 613 108 564 90 l 613 360 l 501 386 m 504 960 q 428 991 458 960 q 397 1071 397 1022 q 432 1155 397 1119 q 515 1190 467 1190 q 593 1161 563 1190 q 624 1082 624 1132 q 590 996 624 1032 q 504 960 557 960 z "},"H":{"ha":1058,"x_min":49,"x_max":1010,"o":"m 49 78 l 160 104 l 160 796 l 49 822 l 49 900 l 468 900 l 468 822 l 357 796 l 357 518 l 701 518 l 701 796 l 590 822 l 590 900 l 1010 900 l 1010 822 l 899 796 l 899 104 l 1010 78 l 1010 0 l 590 0 l 590 78 l 701 104 l 701 411 l 357 411 l 357 104 l 468 78 l 468 0 l 49 0 l 49 78 z "},"Ħ":{"ha":1058,"x_min":43,"x_max":1015,"o":"m 49 0 l 49 78 l 160 104 l 160 579 l 43 579 l 43 686 l 160 686 l 160 796 l 49 822 l 49 900 l 468 900 l 468 822 l 357 796 l 357 686 l 701 686 l 701 796 l 590 822 l 590 900 l 1010 900 l 1010 822 l 899 796 l 899 686 l 1015 686 l 1015 579 l 899 579 l 899 104 l 1010 78 l 1010 0 l 590 0 l 590 78 l 701 104 l 701 356 l 357 356 l 357 104 l 468 78 l 468 0 l 49 0 m 357 463 l 701 463 l 701 579 l 357 579 l 357 463 z "},"Ĥ":{"ha":1058,"x_min":49,"x_max":1010,"o":"m 49 0 m 49 78 l 160 104 l 160 796 l 49 822 l 49 900 l 468 900 l 468 822 l 357 796 l 357 518 l 701 518 l 701 796 l 590 822 l 590 900 l 1010 900 l 1010 822 l 899 796 l 899 104 l 1010 78 l 1010 0 l 590 0 l 590 78 l 701 104 l 701 411 l 357 411 l 357 104 l 468 78 l 468 0 l 49 0 l 49 78 m 457 1129 q 506 1165 492 1158 q 532 1172 521 1172 q 556 1165 543 1172 q 581 1147 568 1157 q 601 1131 594 1136 l 769 1001 l 726 932 l 521 1018 l 325 932 l 288 989 l 457 1129 z "},"Ḥ":{"ha":1058,"x_min":49,"x_max":1010,"o":"m 49 0 m 49 78 l 160 104 l 160 796 l 49 822 l 49 900 l 468 900 l 468 822 l 357 796 l 357 518 l 701 518 l 701 796 l 590 822 l 590 900 l 1010 900 l 1010 822 l 899 796 l 899 104 l 1010 78 l 1010 0 l 590 0 l 590 78 l 701 104 l 701 411 l 357 411 l 357 104 l 468 78 l 468 0 l 49 0 l 49 78 m 522 -286 q 446 -255 476 -286 q 415 -175 415 -224 q 450 -91 415 -126 q 533 -56 485 -56 q 611 -85 581 -56 q 642 -164 642 -114 q 608 -250 642 -214 q 522 -286 575 -286 z "},"I":{"ha":517,"x_min":49,"x_max":468,"o":"m 49 78 l 160 104 l 160 796 l 49 822 l 49 900 l 468 900 l 468 822 l 357 796 l 357 104 l 468 78 l 468 0 l 49 0 l 49 78 z "},"Ĳ":{"ha":1093,"x_min":49,"x_max":1085,"o":"m 49 0 m 49 78 l 160 104 l 160 796 l 49 822 l 49 900 l 468 900 l 468 822 l 357 796 l 357 104 l 468 78 l 468 0 l 49 0 l 49 78 m 614 268 l 650 100 q 666 94 653 99 q 699 90 679 90 q 761 108 746 90 q 776 167 776 126 l 776 796 l 665 822 l 665 900 l 1085 900 l 1085 822 l 974 796 l 974 167 q 920 27 974 79 q 719 -25 867 -25 q 600 -11 654 -25 q 517 21 546 3 l 517 268 l 614 268 z "},"Í":{"ha":517,"x_min":49,"x_max":468,"o":"m 282 1139 q 314 1158 290 1143 q 354 1172 338 1172 q 411 1144 392 1172 q 431 1075 431 1117 q 424 1026 431 1054 l 118 932 l 83 1001 l 282 1139 m 49 78 l 160 104 l 160 796 l 49 822 l 49 900 l 468 900 l 468 822 l 357 796 l 357 104 l 468 78 l 468 0 l 49 0 l 49 78 z "},"Ĭ":{"ha":517,"x_min":1,"x_max":514,"o":"m 1 0 m 49 78 l 160 104 l 160 796 l 49 822 l 49 900 l 468 900 l 468 822 l 357 796 l 357 104 l 468 78 l 468 0 l 49 0 l 49 78 m 106 1182 q 126 1156 106 1178 q 183 1115 146 1135 q 272 1096 221 1096 q 367 1113 328 1096 q 429 1151 407 1131 q 451 1174 451 1171 l 514 1129 q 485 1081 514 1122 q 401 1003 456 1039 q 272 967 347 967 q 119 997 179 967 q 31 1063 60 1028 q 1 1106 1 1099 l 106 1182 z "},"Ǐ":{"ha":517,"x_min":15,"x_max":500,"o":"m 15 0 m 49 78 l 160 104 l 160 796 l 49 822 l 49 900 l 468 900 l 468 822 l 357 796 l 357 104 l 468 78 l 468 0 l 49 0 l 49 78 m 267 1086 l 460 1172 l 500 1114 l 333 975 q 314 959 328 971 q 286 940 300 947 q 258 932 272 932 q 215 951 239 932 q 186 974 190 971 l 15 1100 l 63 1172 l 267 1086 z "},"Î":{"ha":517,"x_min":17,"x_max":499,"o":"m 186 1129 q 256 1172 239 1172 q 282 1165 268 1172 q 331 1131 296 1157 l 499 1001 l 456 932 l 250 1018 l 54 932 l 17 989 l 186 1129 m 49 78 l 160 104 l 160 796 l 49 822 l 49 900 l 468 900 l 468 822 l 357 796 l 357 104 l 468 78 l 468 0 l 49 0 l 49 78 z "},"Ȉ":{"ha":517,"x_min":-112,"x_max":468,"o":"m 0 0 m 49 78 l 160 104 l 160 796 l 49 822 l 49 900 l 468 900 l 468 822 l 357 796 l 357 104 l 468 78 l 468 0 l 49 0 l 49 78 m -112 1086 q -85 1160 -107 1133 q -35 1188 -62 1188 q 0 1176 -15 1188 q 33 1144 15 1165 l 171 990 l 122 932 l -112 1086 m 151 1086 q 179 1160 157 1133 q 229 1188 201 1188 q 264 1176 249 1188 q 297 1144 279 1165 l 435 990 l 386 932 l 151 1086 z "},"Ï":{"ha":517,"x_min":-15,"x_max":532,"o":"m 82 965 q 13 994 40 965 q -15 1067 -15 1022 q 17 1144 -15 1111 q 93 1176 49 1176 q 164 1149 136 1176 q 192 1076 192 1122 q 161 998 192 1031 q 82 965 131 965 m 422 965 q 353 994 381 965 q 325 1067 325 1022 q 357 1144 325 1111 q 433 1176 389 1176 q 504 1149 476 1176 q 532 1076 532 1122 q 501 998 532 1031 q 422 965 471 965 m 49 0 l 49 78 l 160 104 l 160 796 l 49 822 l 49 900 l 468 900 l 468 822 l 357 796 l 357 104 l 468 78 l 468 0 l 49 0 z "},"İ":{"ha":517,"x_min":49,"x_max":468,"o":"m 250 960 q 174 991 204 960 q 143 1071 143 1022 q 178 1155 143 1119 q 261 1190 213 1190 q 339 1161 308 1190 q 369 1082 369 1132 q 336 996 369 1032 q 250 960 303 960 m 49 78 l 160 104 l 160 796 l 49 822 l 49 900 l 468 900 l 468 822 l 357 796 l 357 104 l 468 78 l 468 0 l 49 0 l 49 78 z "},"Ị":{"ha":517,"x_min":49,"x_max":468,"o":"m 49 0 m 49 78 l 160 104 l 160 796 l 49 822 l 49 900 l 468 900 l 468 822 l 357 796 l 357 104 l 468 78 l 468 0 l 49 0 l 49 78 m 251 -286 q 175 -255 206 -286 q 144 -175 144 -224 q 179 -91 144 -126 q 263 -56 214 -56 q 340 -85 310 -56 q 371 -164 371 -114 q 338 -250 371 -214 q 251 -286 304 -286 z "},"Ì":{"ha":517,"x_min":49,"x_max":468,"o":"m 81 1026 q 74 1076 74 1054 q 93 1145 74 1118 q 150 1172 113 1172 q 190 1158 167 1172 q 222 1139 214 1143 l 421 1001 l 386 932 l 81 1026 m 49 78 l 160 104 l 160 796 l 49 822 l 49 900 l 468 900 l 468 822 l 357 796 l 357 104 l 468 78 l 468 0 l 49 0 l 49 78 z "},"Ỉ":{"ha":517,"x_min":49,"x_max":468,"o":"m 49 0 m 49 78 l 160 104 l 160 796 l 49 822 l 49 900 l 468 900 l 468 822 l 357 796 l 357 104 l 468 78 l 468 0 l 49 0 l 49 78 m 211 932 q 196 969 196 956 q 208 994 196 982 q 251 1022 221 1006 q 277 1041 268 1032 q 286 1065 286 1050 q 274 1088 286 1082 q 233 1094 261 1094 q 158 1083 199 1094 q 132 1139 132 1113 q 242 1188 132 1188 q 375 1159 328 1188 q 422 1078 422 1131 q 354 990 422 1025 q 311 968 319 975 q 307 942 303 961 l 211 932 z "},"Ȋ":{"ha":517,"x_min":1,"x_max":514,"o":"m 1 0 m 49 78 l 160 104 l 160 796 l 49 822 l 49 900 l 468 900 l 468 822 l 357 796 l 357 104 l 468 78 l 468 0 l 49 0 l 49 78 m 410 967 q 390 992 410 971 q 332 1033 369 1014 q 243 1053 294 1053 q 148 1035 188 1053 q 86 998 108 1018 q 64 975 64 978 l 1 1019 q 31 1068 1 1026 q 114 1146 60 1110 q 243 1182 168 1182 q 396 1151 336 1182 q 485 1085 456 1121 q 514 1043 514 1050 l 410 967 z "},"Ī":{"ha":517,"x_min":8,"x_max":507,"o":"m 8 1025 l 26 1140 l 507 1140 l 489 1025 l 8 1025 m 49 0 l 49 78 l 160 104 l 160 796 l 49 822 l 49 900 l 468 900 l 468 822 l 357 796 l 357 104 l 468 78 l 468 0 l 49 0 z "},"Į":{"ha":517,"x_min":49,"x_max":468,"o":"m 160 104 l 160 796 l 49 822 l 49 900 l 468 900 l 468 822 l 357 796 l 357 104 l 468 78 l 468 0 l 383 0 q 335 -52 356 -22 q 314 -112 314 -82 q 363 -160 314 -160 q 435 -132 389 -160 l 468 -189 q 447 -210 468 -192 q 393 -244 426 -228 q 319 -260 360 -260 q 222 -233 258 -260 q 185 -157 185 -207 q 214 -67 185 -107 q 290 0 243 -28 l 49 0 l 49 78 l 160 104 z "},"Ĩ":{"ha":517,"x_min":-12,"x_max":528,"o":"m 0 0 m 49 78 l 160 104 l 160 796 l 49 822 l 49 900 l 468 900 l 468 822 l 357 796 l 357 104 l 468 78 l 468 0 l 49 0 l 49 78 m 358 972 q 322 976 339 972 q 279 988 306 979 l 140 1033 l 42 979 l -12 1031 l 36 1104 q 92 1159 64 1146 q 157 1172 121 1172 q 236 1158 194 1172 l 375 1113 l 475 1165 l 528 1115 l 479 1042 q 422 986 451 1000 q 358 972 393 972 z "},"J":{"ha":576,"x_min":0,"x_max":568,"o":"m 97 268 l 133 100 q 149 94 136 99 q 182 90 163 90 q 244 108 229 90 q 260 167 260 126 l 260 796 l 149 822 l 149 900 l 568 900 l 568 822 l 457 796 l 457 167 q 403 27 457 79 q 203 -25 350 -25 q 83 -11 138 -25 q 0 21 29 3 l 0 268 l 97 268 z "},"Ĵ":{"ha":576,"x_min":0,"x_max":599,"o":"m 0 0 m 97 268 l 133 100 q 149 94 136 99 q 182 90 163 90 q 244 108 229 90 q 260 167 260 126 l 260 796 l 149 822 l 149 900 l 568 900 l 568 822 l 457 796 l 457 167 q 403 27 457 79 q 203 -25 350 -25 q 83 -11 138 -25 q 0 21 29 3 l 0 268 l 97 268 m 286 1129 q 335 1165 321 1158 q 361 1172 350 1172 q 385 1165 372 1172 q 410 1147 397 1157 q 431 1131 424 1136 l 599 1001 l 556 932 l 350 1018 l 154 932 l 117 989 l 286 1129 z "},"K":{"ha":881,"x_min":49,"x_max":908,"o":"m 160 104 l 160 796 l 49 822 l 49 900 l 468 900 l 468 822 l 357 796 l 357 494 l 378 494 l 611 782 l 611 806 l 544 822 l 544 900 l 868 900 l 868 822 l 772 796 l 528 494 l 796 106 l 908 78 l 908 0 l 700 0 q 647 15 667 0 q 606 63 628 29 l 375 404 l 357 404 l 357 104 l 468 78 l 468 0 l 49 0 l 49 78 l 160 104 z "},"Ķ":{"ha":899,"x_min":49,"x_max":908,"o":"m 49 78 l 160 104 l 160 796 l 49 822 l 49 900 l 468 900 l 468 822 l 357 796 l 357 494 l 378 494 l 611 782 l 611 806 l 544 822 l 544 900 l 868 900 l 868 822 l 772 796 l 528 494 l 796 106 l 908 78 l 908 0 l 700 0 q 647 15 667 0 q 606 63 628 29 l 375 404 l 357 404 l 357 104 l 468 78 l 468 0 l 49 0 l 49 78 m 401 -294 q 407 -271 403 -289 q 416 -222 411 -253 q 421 -164 421 -192 q 415 -117 421 -136 q 402 -87 408 -97 q 393 -75 396 -78 q 428 -44 410 -56 q 471 -33 446 -33 q 535 -58 514 -33 q 557 -115 557 -82 q 536 -197 557 -157 q 489 -267 515 -236 q 463 -294 463 -297 l 401 -294 z "},"L":{"ha":726,"x_min":49,"x_max":719,"o":"m 49 78 l 160 104 l 160 796 l 49 822 l 49 900 l 468 900 l 468 822 l 357 796 l 357 115 l 428 106 l 590 106 l 628 261 l 719 261 l 719 0 l 49 0 l 49 78 z "},"Ǉ":{"ha":1303,"x_min":49,"x_max":1294,"o":"m 49 78 l 160 104 l 160 796 l 49 822 l 49 900 l 468 900 l 468 822 l 357 796 l 357 115 l 428 106 l 549 106 l 586 261 l 678 261 l 678 0 l 49 0 l 49 78 m 824 268 l 860 100 q 876 94 863 99 q 908 90 889 90 q 971 108 956 90 q 986 167 986 126 l 986 796 l 875 822 l 875 900 l 1294 900 l 1294 822 l 1183 796 l 1183 167 q 1130 27 1183 79 q 929 -25 1076 -25 q 810 -11 864 -25 q 726 21 756 3 l 726 268 l 824 268 z "},"Ĺ":{"ha":742,"x_min":49,"x_max":719,"o":"m 126 1001 l 325 1139 q 357 1158 333 1143 q 397 1172 381 1172 q 454 1144 435 1172 q 474 1075 474 1117 q 467 1026 474 1054 l 161 932 l 126 1001 m 49 0 l 49 78 l 160 104 l 160 796 l 49 822 l 49 900 l 468 900 l 468 822 l 357 796 l 357 115 l 428 106 l 590 106 l 628 261 l 719 261 l 719 0 l 49 0 z "},"Ľ":{"ha":742,"x_min":49,"x_max":719,"o":"m 557 669 q 573 744 567 700 q 579 818 579 788 q 572 868 579 843 q 557 901 565 893 q 629 932 583 932 q 690 908 669 932 q 711 854 711 883 q 690 772 711 813 q 644 699 669 731 q 618 669 618 667 l 557 669 m 49 0 l 49 78 l 160 104 l 160 796 l 49 822 l 49 900 l 468 900 l 468 822 l 357 796 l 357 115 l 428 106 l 590 106 l 628 261 l 719 261 l 719 0 l 49 0 z "},"Ļ":{"ha":742,"x_min":49,"x_max":719,"o":"m 49 0 l 49 78 l 160 104 l 160 796 l 49 822 l 49 900 l 468 900 l 468 822 l 357 796 l 357 115 l 428 106 l 590 106 l 628 261 l 719 261 l 719 0 l 49 0 m 322 -294 q 328 -271 324 -289 q 337 -222 332 -253 q 342 -164 342 -192 q 335 -117 342 -136 q 323 -87 329 -97 q 314 -75 317 -78 q 349 -44 331 -56 q 392 -33 367 -33 q 456 -58 435 -33 q 478 -115 478 -82 q 457 -197 478 -157 q 410 -267 436 -236 q 383 -294 383 -297 l 322 -294 z "},"Ŀ":{"ha":726,"x_min":49,"x_max":719,"o":"m 49 0 m 49 78 l 160 104 l 160 796 l 49 822 l 49 900 l 468 900 l 468 822 l 357 796 l 357 115 l 428 106 l 590 106 l 628 261 l 719 261 l 719 0 l 49 0 l 49 78 m 533 411 q 463 440 490 411 q 435 513 435 468 q 467 590 435 557 q 543 622 499 622 q 614 595 586 622 q 642 524 642 568 q 611 444 642 478 q 533 411 581 411 z "},"ǈ":{"ha":1090,"x_min":49,"x_max":1007,"o":"m 49 0 m 49 78 l 160 104 l 160 796 l 49 822 l 49 900 l 468 900 l 468 822 l 357 796 l 357 115 l 428 106 l 590 106 l 628 261 l 719 261 l 719 0 l 49 0 l 49 78 m 888 779 q 811 810 842 779 q 781 890 781 842 q 815 974 781 939 q 899 1010 850 1010 q 976 981 946 1010 q 1007 901 1007 951 q 974 815 1007 851 q 888 779 940 779 m 833 -235 q 760 -229 794 -235 q 704 -217 725 -224 q 678 -210 683 -211 l 678 -139 l 819 -107 l 819 568 l 707 590 l 707 671 l 951 703 l 1003 683 l 1003 -110 q 960 -201 1003 -167 q 833 -235 917 -235 z "},"Ł":{"ha":726,"x_min":49,"x_max":719,"o":"m 49 78 l 160 104 l 160 400 l 56 364 l 56 447 l 160 485 l 160 796 l 49 822 l 49 900 l 468 900 l 468 822 l 357 796 l 357 557 l 481 603 l 481 514 l 357 469 l 357 115 l 428 106 l 590 106 l 628 261 l 719 261 l 719 0 l 49 0 l 49 78 z "},"M":{"ha":1219,"x_min":44,"x_max":1171,"o":"m 44 0 l 44 78 l 156 104 l 156 797 l 64 815 l 64 900 l 403 900 l 603 249 l 607 206 l 614 249 l 818 900 l 1154 900 l 1154 814 l 1060 797 l 1060 104 l 1171 78 l 1171 0 l 753 0 l 753 78 l 864 104 l 864 600 l 867 633 l 860 633 l 853 600 l 665 0 l 497 0 l 299 633 l 290 633 l 293 600 l 293 104 l 404 78 l 404 0 l 44 0 z "},"N":{"ha":1013,"x_min":49,"x_max":985,"o":"m 49 0 l 49 78 l 160 104 l 160 797 l 68 815 l 68 900 l 360 900 l 725 324 l 731 303 l 736 303 l 736 796 l 625 821 l 625 900 l 985 900 l 985 821 l 874 796 l 874 0 l 703 0 l 308 600 l 303 621 l 297 621 l 297 104 l 408 78 l 408 0 l 49 0 z "},"Ǌ":{"ha":1589,"x_min":49,"x_max":1581,"o":"m 49 0 m 49 0 l 49 78 l 160 104 l 160 797 l 68 815 l 68 900 l 360 900 l 725 324 l 731 303 l 736 303 l 736 796 l 625 821 l 625 900 l 985 900 l 985 821 l 874 796 l 874 0 l 703 0 l 308 600 l 303 621 l 297 621 l 297 104 l 408 78 l 408 0 l 49 0 m 1110 268 l 1146 100 q 1162 94 1149 99 q 1194 90 1175 90 q 1257 108 1242 90 q 1272 167 1272 126 l 1272 796 l 1161 822 l 1161 900 l 1581 900 l 1581 822 l 1469 796 l 1469 167 q 1416 27 1469 79 q 1215 -25 1363 -25 q 1096 -11 1150 -25 q 1013 21 1042 3 l 1013 268 l 1110 268 z "},"Ń":{"ha":1019,"x_min":49,"x_max":985,"o":"m 368 1001 l 567 1139 q 599 1158 575 1143 q 639 1172 622 1172 q 696 1144 676 1172 q 715 1075 715 1117 q 708 1026 715 1054 l 403 932 l 368 1001 m 49 0 l 49 78 l 160 104 l 160 797 l 68 815 l 68 900 l 360 900 l 725 324 l 731 303 l 736 303 l 736 796 l 625 821 l 625 900 l 985 900 l 985 821 l 874 796 l 874 0 l 703 0 l 308 600 l 303 621 l 297 621 l 297 104 l 408 78 l 408 0 l 49 0 z "},"Ň":{"ha":1019,"x_min":49,"x_max":985,"o":"m 514 958 q 484 972 503 958 q 432 1019 465 986 l 306 1142 l 365 1210 l 525 1106 l 688 1210 l 732 1151 l 596 1019 q 544 972 563 986 q 514 958 525 958 m 49 0 l 49 78 l 160 104 l 160 797 l 68 815 l 68 900 l 360 900 l 725 324 l 731 303 l 736 303 l 736 796 l 625 821 l 625 900 l 985 900 l 985 821 l 874 796 l 874 0 l 703 0 l 308 600 l 303 621 l 297 621 l 297 104 l 408 78 l 408 0 l 49 0 z "},"Ņ":{"ha":1019,"x_min":49,"x_max":985,"o":"m 49 0 l 49 78 l 160 104 l 160 797 l 68 815 l 68 900 l 360 900 l 725 324 l 731 303 l 736 303 l 736 796 l 625 821 l 625 900 l 985 900 l 985 821 l 874 796 l 874 0 l 703 0 l 308 600 l 303 621 l 297 621 l 297 104 l 408 78 l 408 0 l 49 0 m 440 -294 q 446 -271 442 -289 q 455 -222 450 -253 q 460 -164 460 -192 q 453 -117 460 -136 q 441 -87 447 -97 q 432 -75 435 -78 q 467 -44 449 -56 q 510 -33 485 -33 q 574 -58 553 -33 q 596 -115 596 -82 q 575 -197 596 -157 q 528 -267 554 -236 q 501 -294 501 -297 l 440 -294 z "},"Ṅ":{"ha":1013,"x_min":49,"x_max":985,"o":"m 49 0 m 49 0 l 49 78 l 160 104 l 160 797 l 68 815 l 68 900 l 360 900 l 725 324 l 731 303 l 736 303 l 736 796 l 625 821 l 625 900 l 985 900 l 985 821 l 874 796 l 874 0 l 703 0 l 308 600 l 303 621 l 297 621 l 297 104 l 408 78 l 408 0 l 49 0 m 500 960 q 424 991 454 960 q 393 1071 393 1022 q 428 1155 393 1119 q 511 1190 463 1190 q 589 1161 558 1190 q 619 1082 619 1132 q 586 996 619 1032 q 500 960 553 960 z "},"Ŋ":{"ha":1013,"x_min":49,"x_max":985,"o":"m 985 900 l 985 821 l 874 796 l 874 -110 q 831 -201 874 -167 q 704 -235 788 -235 q 631 -229 665 -235 q 575 -217 596 -224 q 549 -210 554 -211 l 549 -139 l 690 -107 l 690 19 l 308 600 l 303 621 l 297 621 l 297 104 l 408 78 l 408 0 l 49 0 l 49 78 l 160 104 l 160 797 l 68 815 l 68 900 l 360 900 l 725 324 l 731 303 l 736 303 l 736 796 l 625 821 l 625 900 l 985 900 z "},"Ɲ":{"ha":1013,"x_min":18,"x_max":985,"o":"m 160 -235 q 92 -229 124 -235 q 42 -217 61 -224 q 18 -210 22 -211 l 18 -139 l 160 -107 l 160 797 l 68 815 l 68 900 l 360 900 l 725 324 l 731 303 l 736 303 l 736 796 l 625 821 l 625 900 l 985 900 l 985 821 l 874 796 l 874 0 l 703 0 l 308 600 l 303 621 l 297 621 l 297 -110 q 263 -201 297 -167 q 160 -235 228 -235 z "},"ǋ":{"ha":1418,"x_min":49,"x_max":1335,"o":"m 49 0 m 49 0 l 49 78 l 160 104 l 160 797 l 68 815 l 68 900 l 360 900 l 725 324 l 731 303 l 736 303 l 736 796 l 625 821 l 625 900 l 985 900 l 985 821 l 874 796 l 874 0 l 703 0 l 308 600 l 303 621 l 297 621 l 297 104 l 408 78 l 408 0 l 49 0 m 1215 779 q 1139 810 1169 779 q 1108 890 1108 842 q 1143 974 1108 939 q 1226 1010 1178 1010 q 1304 981 1274 1010 q 1335 901 1335 951 q 1301 815 1335 851 q 1215 779 1268 779 m 1161 -235 q 1088 -229 1122 -235 q 1032 -217 1053 -224 q 1006 -210 1011 -211 l 1006 -139 l 1147 -107 l 1147 568 l 1035 590 l 1035 671 l 1279 703 l 1331 683 l 1331 -110 q 1288 -201 1331 -167 q 1161 -235 1244 -235 z "},"Ñ":{"ha":1019,"x_min":49,"x_max":985,"o":"m 621 972 q 585 976 601 972 q 542 988 568 979 l 403 1033 l 304 979 l 250 1031 l 299 1104 q 355 1159 326 1146 q 419 1172 383 1172 q 499 1158 457 1172 l 638 1113 l 738 1165 l 790 1115 l 742 1042 q 685 986 714 1000 q 621 972 657 972 m 49 0 l 49 78 l 160 104 l 160 797 l 68 815 l 68 900 l 360 900 l 725 324 l 731 303 l 736 303 l 736 796 l 625 821 l 625 900 l 985 900 l 985 821 l 874 796 l 874 0 l 703 0 l 308 600 l 303 621 l 297 621 l 297 104 l 408 78 l 408 0 l 49 0 z "},"O":{"ha":982,"x_min":49,"x_max":933,"o":"m 474 -25 q 158 92 268 -25 q 49 435 49 210 q 104 690 49 578 q 264 863 160 801 q 508 925 368 925 q 824 808 714 925 q 933 465 933 690 q 878 210 933 321 q 720 37 824 99 q 474 -25 617 -25 m 500 90 q 618 122 574 90 q 684 227 663 153 q 706 429 706 301 q 682 651 706 568 q 610 772 658 735 q 483 808 561 808 q 365 777 410 808 q 297 673 319 746 q 275 472 275 600 q 299 249 275 332 q 372 128 324 165 q 500 90 421 90 z "},"Ó":{"ha":982,"x_min":49,"x_max":933,"o":"m 331 1001 l 529 1139 q 561 1158 538 1143 q 601 1172 585 1172 q 658 1144 639 1172 q 678 1075 678 1117 q 671 1026 678 1054 l 365 932 l 331 1001 m 474 -25 q 158 92 268 -25 q 49 435 49 210 q 104 690 49 578 q 264 863 160 801 q 508 925 368 925 q 824 808 714 925 q 933 465 933 690 q 878 210 933 321 q 720 37 824 99 q 474 -25 617 -25 m 500 90 q 618 122 574 90 q 684 227 663 153 q 706 429 706 301 q 682 651 706 568 q 610 772 658 735 q 483 808 561 808 q 365 777 410 808 q 297 673 319 746 q 275 472 275 600 q 299 249 275 332 q 372 128 324 165 q 500 90 421 90 z "},"Ŏ":{"ha":982,"x_min":49,"x_max":933,"o":"m 49 0 m 474 -25 q 158 92 268 -25 q 49 435 49 210 q 104 690 49 578 q 264 863 160 801 q 508 925 368 925 q 824 808 714 925 q 933 465 933 690 q 878 210 933 321 q 720 37 824 99 q 474 -25 617 -25 m 500 90 q 618 122 574 90 q 684 227 663 153 q 706 429 706 301 q 682 651 706 568 q 610 772 658 735 q 483 808 561 808 q 365 777 410 808 q 297 673 319 746 q 275 472 275 600 q 299 249 275 332 q 372 128 324 165 q 500 90 421 90 m 339 1182 q 359 1156 339 1178 q 417 1115 379 1135 q 506 1096 454 1096 q 601 1113 561 1096 q 663 1151 640 1131 q 685 1174 685 1171 l 747 1129 q 718 1081 747 1122 q 635 1003 689 1039 q 506 967 581 967 q 353 997 413 967 q 264 1063 293 1028 q 235 1106 235 1099 l 339 1182 z "},"Ǒ":{"ha":982,"x_min":49,"x_max":933,"o":"m 49 0 m 474 -25 q 158 92 268 -25 q 49 435 49 210 q 104 690 49 578 q 264 863 160 801 q 508 925 368 925 q 824 808 714 925 q 933 465 933 690 q 878 210 933 321 q 720 37 824 99 q 474 -25 617 -25 m 500 90 q 618 122 574 90 q 684 227 663 153 q 706 429 706 301 q 682 651 706 568 q 610 772 658 735 q 483 808 561 808 q 365 777 410 808 q 297 673 319 746 q 275 472 275 600 q 299 249 275 332 q 372 128 324 165 q 500 90 421 90 m 500 1086 l 693 1172 l 733 1114 l 567 975 q 547 959 561 971 q 519 940 533 947 q 492 932 506 932 q 448 951 472 932 q 419 974 424 971 l 249 1100 l 296 1172 l 500 1086 z "},"Ô":{"ha":982,"x_min":49,"x_max":933,"o":"m 419 1129 q 469 1165 454 1158 q 494 1172 483 1172 q 518 1165 506 1172 q 544 1147 531 1157 q 564 1131 557 1136 l 732 1001 l 689 932 l 483 1018 l 288 932 l 250 989 l 419 1129 m 474 -25 q 158 92 268 -25 q 49 435 49 210 q 104 690 49 578 q 264 863 160 801 q 508 925 368 925 q 824 808 714 925 q 933 465 933 690 q 878 210 933 321 q 720 37 824 99 q 474 -25 617 -25 m 500 90 q 618 122 574 90 q 684 227 663 153 q 706 429 706 301 q 682 651 706 568 q 610 772 658 735 q 483 808 561 808 q 365 777 410 808 q 297 673 319 746 q 275 472 275 600 q 299 249 275 332 q 372 128 324 165 q 500 90 421 90 z "},"Ố":{"ha":982,"x_min":49,"x_max":933,"o":"m 49 0 m 474 -25 q 158 92 268 -25 q 49 435 49 210 q 104 690 49 578 q 264 863 160 801 q 508 925 368 925 q 824 808 714 925 q 933 465 933 690 q 878 210 933 321 q 720 37 824 99 q 474 -25 617 -25 m 500 90 q 618 122 574 90 q 684 227 663 153 q 706 429 706 301 q 682 651 706 568 q 610 772 658 735 q 483 808 561 808 q 365 777 410 808 q 297 673 319 746 q 275 472 275 600 q 299 249 275 332 q 372 128 324 165 q 500 90 421 90 m 424 1129 q 473 1165 458 1158 q 499 1172 488 1172 q 522 1165 510 1172 q 548 1147 535 1157 q 568 1131 561 1136 l 736 1001 l 693 932 l 488 1018 l 292 932 l 254 989 l 424 1129 m 575 1201 l 774 1339 q 806 1358 782 1343 q 846 1372 829 1372 q 903 1344 883 1372 q 922 1275 922 1317 q 915 1226 922 1254 l 610 1132 l 575 1201 z "},"Ộ":{"ha":982,"x_min":49,"x_max":933,"o":"m 49 0 m 474 -25 q 158 92 268 -25 q 49 435 49 210 q 104 690 49 578 q 264 863 160 801 q 508 925 368 925 q 824 808 714 925 q 933 465 933 690 q 878 210 933 321 q 720 37 824 99 q 474 -25 617 -25 m 500 90 q 618 122 574 90 q 684 227 663 153 q 706 429 706 301 q 682 651 706 568 q 610 772 658 735 q 483 808 561 808 q 365 777 410 808 q 297 673 319 746 q 275 472 275 600 q 299 249 275 332 q 372 128 324 165 q 500 90 421 90 m 485 -286 q 408 -255 439 -286 q 378 -175 378 -224 q 413 -91 378 -126 q 496 -56 447 -56 q 574 -85 543 -56 q 604 -164 604 -114 q 571 -250 604 -214 q 485 -286 538 -286 m 419 1129 q 469 1165 454 1158 q 494 1172 483 1172 q 518 1165 506 1172 q 544 1147 531 1157 q 564 1131 557 1136 l 732 1001 l 689 932 l 483 1018 l 288 932 l 250 989 l 419 1129 z "},"Ồ":{"ha":982,"x_min":49,"x_max":933,"o":"m 49 0 m 474 -25 q 158 92 268 -25 q 49 435 49 210 q 104 690 49 578 q 264 863 160 801 q 508 925 368 925 q 824 808 714 925 q 933 465 933 690 q 878 210 933 321 q 720 37 824 99 q 474 -25 617 -25 m 500 90 q 618 122 574 90 q 684 227 663 153 q 706 429 706 301 q 682 651 706 568 q 610 772 658 735 q 483 808 561 808 q 365 777 410 808 q 297 673 319 746 q 275 472 275 600 q 299 249 275 332 q 372 128 324 165 q 500 90 421 90 m 411 1129 q 460 1165 446 1158 q 486 1172 475 1172 q 510 1165 497 1172 q 535 1147 522 1157 q 556 1131 549 1136 l 724 1001 l 681 932 l 475 1018 l 279 932 l 242 989 l 411 1129 m 429 1226 q 422 1276 422 1254 q 442 1345 422 1318 q 499 1372 461 1372 q 539 1358 515 1372 q 571 1339 563 1343 l 769 1201 l 735 1132 l 429 1226 z "},"Ổ":{"ha":982,"x_min":49,"x_max":933,"o":"m 49 0 m 474 -25 q 158 92 268 -25 q 49 435 49 210 q 104 690 49 578 q 264 863 160 801 q 508 925 368 925 q 824 808 714 925 q 933 465 933 690 q 878 210 933 321 q 720 37 824 99 q 474 -25 617 -25 m 500 90 q 618 122 574 90 q 684 227 663 153 q 706 429 706 301 q 682 651 706 568 q 610 772 658 735 q 483 808 561 808 q 365 777 410 808 q 297 673 319 746 q 275 472 275 600 q 299 249 275 332 q 372 128 324 165 q 500 90 421 90 m 411 1129 q 460 1165 446 1158 q 486 1172 475 1172 q 510 1165 497 1172 q 535 1147 522 1157 q 556 1131 549 1136 l 724 1001 l 681 932 l 475 1018 l 279 932 l 242 989 l 411 1129 m 614 1115 q 599 1153 599 1139 q 611 1177 599 1165 q 654 1206 624 1189 q 680 1224 671 1215 q 689 1249 689 1233 q 676 1272 689 1265 q 636 1278 664 1278 q 561 1267 601 1278 q 535 1322 535 1296 q 644 1371 535 1371 q 778 1342 731 1371 q 825 1261 825 1314 q 757 1174 825 1208 q 714 1151 722 1158 q 710 1125 706 1144 l 614 1115 z "},"Ỗ":{"ha":982,"x_min":49,"x_max":933,"o":"m 592 1225 q 513 1238 556 1225 l 374 1274 l 275 1231 l 221 1272 l 269 1331 q 326 1374 297 1364 q 390 1385 354 1385 q 469 1374 432 1385 l 608 1338 l 708 1379 l 761 1339 l 713 1281 q 656 1236 685 1247 q 592 1225 626 1225 m 417 1129 q 466 1165 451 1158 q 492 1172 481 1172 q 515 1165 503 1172 q 541 1147 528 1157 q 561 1131 554 1136 l 729 1001 l 686 932 l 481 1018 l 285 932 l 247 989 l 417 1129 m 474 -25 q 158 92 268 -25 q 49 435 49 210 q 104 690 49 578 q 264 863 160 801 q 508 925 368 925 q 824 808 714 925 q 933 465 933 690 q 878 210 933 321 q 720 37 824 99 q 474 -25 617 -25 m 500 90 q 618 122 574 90 q 684 227 663 153 q 706 429 706 301 q 682 651 706 568 q 610 772 658 735 q 483 808 561 808 q 365 777 410 808 q 297 673 319 746 q 275 472 275 600 q 299 249 275 332 q 372 128 324 165 q 500 90 421 90 z "},"Ȍ":{"ha":982,"x_min":49,"x_max":933,"o":"m 49 0 m 474 -25 q 158 92 268 -25 q 49 435 49 210 q 104 690 49 578 q 264 863 160 801 q 508 925 368 925 q 824 808 714 925 q 933 465 933 690 q 878 210 933 321 q 720 37 824 99 q 474 -25 617 -25 m 500 90 q 618 122 574 90 q 684 227 663 153 q 706 429 706 301 q 682 651 706 568 q 610 772 658 735 q 483 808 561 808 q 365 777 410 808 q 297 673 319 746 q 275 472 275 600 q 299 249 275 332 q 372 128 324 165 q 500 90 421 90 m 121 1086 q 149 1160 126 1133 q 199 1188 171 1188 q 233 1176 218 1188 q 267 1144 249 1165 l 404 990 l 356 932 l 121 1086 m 385 1086 q 413 1160 390 1133 q 463 1188 435 1188 q 497 1176 482 1188 q 531 1144 513 1165 l 668 990 l 619 932 l 385 1086 z "},"Ö":{"ha":982,"x_min":49,"x_max":933,"o":"m 314 965 q 244 994 272 965 q 217 1067 217 1022 q 249 1144 217 1111 q 325 1176 281 1176 q 396 1149 368 1176 q 424 1076 424 1122 q 393 998 424 1031 q 314 965 363 965 m 654 965 q 585 994 613 965 q 557 1067 557 1022 q 589 1144 557 1111 q 665 1176 621 1176 q 736 1149 708 1176 q 764 1076 764 1122 q 733 998 764 1031 q 654 965 703 965 m 474 -25 q 158 92 268 -25 q 49 435 49 210 q 104 690 49 578 q 264 863 160 801 q 508 925 368 925 q 824 808 714 925 q 933 465 933 690 q 878 210 933 321 q 720 37 824 99 q 474 -25 617 -25 m 500 90 q 618 122 574 90 q 684 227 663 153 q 706 429 706 301 q 682 651 706 568 q 610 772 658 735 q 483 808 561 808 q 365 777 410 808 q 297 673 319 746 q 275 472 275 600 q 299 249 275 332 q 372 128 324 165 q 500 90 421 90 z "},"Ọ":{"ha":982,"x_min":49,"x_max":933,"o":"m 49 0 m 474 -25 q 158 92 268 -25 q 49 435 49 210 q 104 690 49 578 q 264 863 160 801 q 508 925 368 925 q 824 808 714 925 q 933 465 933 690 q 878 210 933 321 q 720 37 824 99 q 474 -25 617 -25 m 500 90 q 618 122 574 90 q 684 227 663 153 q 706 429 706 301 q 682 651 706 568 q 610 772 658 735 q 483 808 561 808 q 365 777 410 808 q 297 673 319 746 q 275 472 275 600 q 299 249 275 332 q 372 128 324 165 q 500 90 421 90 m 485 -286 q 408 -255 439 -286 q 378 -175 378 -224 q 413 -91 378 -126 q 496 -56 447 -56 q 574 -85 543 -56 q 604 -164 604 -114 q 571 -250 604 -214 q 485 -286 538 -286 z "},"Ò":{"ha":982,"x_min":49,"x_max":933,"o":"m 314 1026 q 307 1076 307 1054 q 326 1145 307 1118 q 383 1172 346 1172 q 424 1158 400 1172 q 456 1139 447 1143 l 654 1001 l 619 932 l 314 1026 m 474 -25 q 158 92 268 -25 q 49 435 49 210 q 104 690 49 578 q 264 863 160 801 q 508 925 368 925 q 824 808 714 925 q 933 465 933 690 q 878 210 933 321 q 720 37 824 99 q 474 -25 617 -25 m 500 90 q 618 122 574 90 q 684 227 663 153 q 706 429 706 301 q 682 651 706 568 q 610 772 658 735 q 483 808 561 808 q 365 777 410 808 q 297 673 319 746 q 275 472 275 600 q 299 249 275 332 q 372 128 324 165 q 500 90 421 90 z "},"Ỏ":{"ha":982,"x_min":49,"x_max":933,"o":"m 49 0 m 474 -25 q 158 92 268 -25 q 49 435 49 210 q 104 690 49 578 q 264 863 160 801 q 508 925 368 925 q 824 808 714 925 q 933 465 933 690 q 878 210 933 321 q 720 37 824 99 q 474 -25 617 -25 m 500 90 q 618 122 574 90 q 684 227 663 153 q 706 429 706 301 q 682 651 706 568 q 610 772 658 735 q 483 808 561 808 q 365 777 410 808 q 297 673 319 746 q 275 472 275 600 q 299 249 275 332 q 372 128 324 165 q 500 90 421 90 m 444 932 q 429 969 429 956 q 442 994 429 982 q 485 1022 454 1006 q 510 1041 501 1032 q 519 1065 519 1050 q 507 1088 519 1082 q 467 1094 494 1094 q 392 1083 432 1094 q 365 1139 365 1113 q 475 1188 365 1188 q 608 1159 561 1188 q 656 1078 656 1131 q 588 990 656 1025 q 544 968 553 975 q 540 942 536 961 l 444 932 z "},"Ơ":{"ha":982,"x_min":49,"x_max":1097,"o":"m 1097 928 q 893 700 1097 819 q 933 465 933 600 q 878 210 933 321 q 720 37 824 99 q 474 -25 617 -25 q 158 92 268 -25 q 49 435 49 210 q 104 690 49 578 q 264 863 160 801 q 508 925 368 925 q 726 881 635 925 q 868 749 817 836 q 969 885 969 822 q 965 908 969 899 q 950 925 960 917 l 950 946 l 1051 1013 q 1065 1003 1053 1011 q 1087 974 1076 994 q 1097 928 1097 953 m 500 90 q 618 122 574 90 q 684 227 663 153 q 706 429 706 301 q 682 651 706 568 q 610 772 658 735 q 483 808 561 808 q 365 777 410 808 q 297 673 319 746 q 275 472 275 600 q 299 249 275 332 q 372 128 324 165 q 500 90 421 90 z "},"Ớ":{"ha":982,"x_min":49,"x_max":1097,"o":"m 49 0 m 1097 928 q 893 700 1097 819 q 933 465 933 600 q 878 210 933 321 q 720 37 824 99 q 474 -25 617 -25 q 158 92 268 -25 q 49 435 49 210 q 104 690 49 578 q 264 863 160 801 q 508 925 368 925 q 726 881 635 925 q 868 749 817 836 q 969 885 969 822 q 965 908 969 899 q 950 925 960 917 l 950 946 l 1051 1013 q 1065 1003 1053 1011 q 1087 974 1076 994 q 1097 928 1097 953 m 500 90 q 618 122 574 90 q 684 227 663 153 q 706 429 706 301 q 682 651 706 568 q 610 772 658 735 q 483 808 561 808 q 365 777 410 808 q 297 673 319 746 q 275 472 275 600 q 299 249 275 332 q 372 128 324 165 q 500 90 421 90 m 386 1001 l 585 1139 q 617 1158 593 1143 q 657 1172 640 1172 q 714 1144 694 1172 q 733 1075 733 1117 q 726 1026 733 1054 l 421 932 l 386 1001 z "},"Ợ":{"ha":982,"x_min":49,"x_max":1097,"o":"m 49 0 m 1097 928 q 893 700 1097 819 q 933 465 933 600 q 878 210 933 321 q 720 37 824 99 q 474 -25 617 -25 q 158 92 268 -25 q 49 435 49 210 q 104 690 49 578 q 264 863 160 801 q 508 925 368 925 q 726 881 635 925 q 868 749 817 836 q 969 885 969 822 q 965 908 969 899 q 950 925 960 917 l 950 946 l 1051 1013 q 1065 1003 1053 1011 q 1087 974 1076 994 q 1097 928 1097 953 m 500 90 q 618 122 574 90 q 684 227 663 153 q 706 429 706 301 q 682 651 706 568 q 610 772 658 735 q 483 808 561 808 q 365 777 410 808 q 297 673 319 746 q 275 472 275 600 q 299 249 275 332 q 372 128 324 165 q 500 90 421 90 m 485 -286 q 408 -255 439 -286 q 378 -175 378 -224 q 413 -91 378 -126 q 496 -56 447 -56 q 574 -85 543 -56 q 604 -164 604 -114 q 571 -250 604 -214 q 485 -286 538 -286 z "},"Ờ":{"ha":982,"x_min":49,"x_max":1097,"o":"m 49 0 m 1097 928 q 893 700 1097 819 q 933 465 933 600 q 878 210 933 321 q 720 37 824 99 q 474 -25 617 -25 q 158 92 268 -25 q 49 435 49 210 q 104 690 49 578 q 264 863 160 801 q 508 925 368 925 q 726 881 635 925 q 868 749 817 836 q 969 885 969 822 q 965 908 969 899 q 950 925 960 917 l 950 946 l 1051 1013 q 1065 1003 1053 1011 q 1087 974 1076 994 q 1097 928 1097 953 m 500 90 q 618 122 574 90 q 684 227 663 153 q 706 429 706 301 q 682 651 706 568 q 610 772 658 735 q 483 808 561 808 q 365 777 410 808 q 297 673 319 746 q 275 472 275 600 q 299 249 275 332 q 372 128 324 165 q 500 90 421 90 m 256 1026 q 249 1076 249 1054 q 268 1145 249 1118 q 325 1172 288 1172 q 365 1158 342 1172 q 397 1139 389 1143 l 596 1001 l 561 932 l 256 1026 z "},"Ở":{"ha":982,"x_min":49,"x_max":1097,"o":"m 49 0 m 1097 928 q 893 700 1097 819 q 933 465 933 600 q 878 210 933 321 q 720 37 824 99 q 474 -25 617 -25 q 158 92 268 -25 q 49 435 49 210 q 104 690 49 578 q 264 863 160 801 q 508 925 368 925 q 726 881 635 925 q 868 749 817 836 q 969 885 969 822 q 965 908 969 899 q 950 925 960 917 l 950 946 l 1051 1013 q 1065 1003 1053 1011 q 1087 974 1076 994 q 1097 928 1097 953 m 500 90 q 618 122 574 90 q 684 227 663 153 q 706 429 706 301 q 682 651 706 568 q 610 772 658 735 q 483 808 561 808 q 365 777 410 808 q 297 673 319 746 q 275 472 275 600 q 299 249 275 332 q 372 128 324 165 q 500 90 421 90 m 444 932 q 429 969 429 956 q 442 994 429 982 q 485 1022 454 1006 q 510 1041 501 1032 q 519 1065 519 1050 q 507 1088 519 1082 q 467 1094 494 1094 q 392 1083 432 1094 q 365 1139 365 1113 q 475 1188 365 1188 q 608 1159 561 1188 q 656 1078 656 1131 q 588 990 656 1025 q 544 968 553 975 q 540 942 536 961 l 444 932 z "},"Ỡ":{"ha":982,"x_min":49,"x_max":1097,"o":"m 49 0 m 1097 928 q 893 700 1097 819 q 933 465 933 600 q 878 210 933 321 q 720 37 824 99 q 474 -25 617 -25 q 158 92 268 -25 q 49 435 49 210 q 104 690 49 578 q 264 863 160 801 q 508 925 368 925 q 726 881 635 925 q 868 749 817 836 q 969 885 969 822 q 965 908 969 899 q 950 925 960 917 l 950 946 l 1051 1013 q 1065 1003 1053 1011 q 1087 974 1076 994 q 1097 928 1097 953 m 500 90 q 618 122 574 90 q 684 227 663 153 q 706 429 706 301 q 682 651 706 568 q 610 772 658 735 q 483 808 561 808 q 365 777 410 808 q 297 673 319 746 q 275 472 275 600 q 299 249 275 332 q 372 128 324 165 q 500 90 421 90 m 592 972 q 556 976 572 972 q 513 988 539 979 l 374 1033 l 275 979 l 221 1031 l 269 1104 q 326 1159 297 1146 q 390 1172 354 1172 q 469 1158 428 1172 l 608 1113 l 708 1165 l 761 1115 l 713 1042 q 656 986 685 1000 q 592 972 626 972 z "},"Ő":{"ha":982,"x_min":49,"x_max":933,"o":"m 246 990 l 383 1144 q 417 1176 401 1165 q 451 1188 432 1188 q 501 1160 479 1188 q 529 1086 524 1133 l 294 932 l 246 990 m 510 990 l 647 1144 q 681 1176 665 1165 q 715 1188 696 1188 q 765 1160 743 1188 q 793 1086 788 1133 l 558 932 l 510 990 m 474 -25 q 158 92 268 -25 q 49 435 49 210 q 104 690 49 578 q 264 863 160 801 q 508 925 368 925 q 824 808 714 925 q 933 465 933 690 q 878 210 933 321 q 720 37 824 99 q 474 -25 617 -25 m 500 90 q 618 122 574 90 q 684 227 663 153 q 706 429 706 301 q 682 651 706 568 q 610 772 658 735 q 483 808 561 808 q 365 777 410 808 q 297 673 319 746 q 275 472 275 600 q 299 249 275 332 q 372 128 324 165 q 500 90 421 90 z "},"Ȏ":{"ha":982,"x_min":49,"x_max":933,"o":"m 49 0 m 474 -25 q 158 92 268 -25 q 49 435 49 210 q 104 690 49 578 q 264 863 160 801 q 508 925 368 925 q 824 808 714 925 q 933 465 933 690 q 878 210 933 321 q 720 37 824 99 q 474 -25 617 -25 m 500 90 q 618 122 574 90 q 684 227 663 153 q 706 429 706 301 q 682 651 706 568 q 610 772 658 735 q 483 808 561 808 q 365 777 410 808 q 297 673 319 746 q 275 472 275 600 q 299 249 275 332 q 372 128 324 165 q 500 90 421 90 m 643 967 q 623 992 643 971 q 565 1033 603 1014 q 476 1053 528 1053 q 381 1035 421 1053 q 319 998 342 1018 q 297 975 297 978 l 235 1019 q 264 1068 235 1026 q 347 1146 293 1110 q 476 1182 401 1182 q 629 1151 569 1182 q 718 1085 689 1121 q 747 1043 747 1050 l 643 967 z "},"Ō":{"ha":982,"x_min":49,"x_max":933,"o":"m 242 1004 l 260 1119 l 740 1119 l 722 1004 l 242 1004 m 474 -25 q 158 92 268 -25 q 49 435 49 210 q 104 690 49 578 q 264 863 160 801 q 508 925 368 925 q 824 808 714 925 q 933 465 933 690 q 878 210 933 321 q 720 37 824 99 q 474 -25 617 -25 m 500 90 q 618 122 574 90 q 684 227 663 153 q 706 429 706 301 q 682 651 706 568 q 610 772 658 735 q 483 808 561 808 q 365 777 410 808 q 297 673 319 746 q 275 472 275 600 q 299 249 275 332 q 372 128 324 165 q 500 90 421 90 z "},"Ǫ":{"ha":982,"x_min":49,"x_max":933,"o":"m 690 21 q 629 -33 665 6 q 593 -112 593 -72 q 642 -160 593 -160 q 714 -132 668 -160 l 747 -189 q 726 -210 747 -192 q 672 -244 706 -228 q 599 -260 639 -260 q 501 -233 538 -260 q 464 -157 464 -207 q 539 -21 464 -81 q 474 -25 508 -25 q 158 92 268 -25 q 49 435 49 210 q 104 690 49 578 q 264 863 160 801 q 508 925 368 925 q 824 808 714 925 q 933 465 933 690 q 870 194 933 311 q 690 21 807 78 m 275 472 q 299 249 275 332 q 372 128 324 165 q 500 90 421 90 q 618 122 574 90 q 684 227 663 153 q 706 429 706 301 q 682 651 706 568 q 610 772 658 735 q 483 808 561 808 q 365 777 410 808 q 297 673 319 746 q 275 472 275 600 z "},"Ø":{"ha":982,"x_min":49,"x_max":933,"o":"m 238 29 q 97 184 144 82 q 49 435 49 286 q 104 690 49 578 q 264 863 160 801 q 508 925 368 925 q 619 915 571 925 l 657 1000 l 754 957 l 722 882 q 879 727 825 832 q 933 465 933 622 q 878 210 933 321 q 720 37 824 99 q 474 -25 617 -25 q 339 -10 404 -25 l 299 -106 l 199 -62 l 238 29 m 568 794 q 483 808 526 808 q 365 777 410 808 q 297 673 319 746 q 275 472 275 600 q 314 206 275 296 l 568 794 m 392 114 q 500 90 435 90 q 618 122 574 90 q 684 227 663 153 q 706 429 706 301 q 653 721 706 633 l 392 114 z "},"Ǿ":{"ha":982,"x_min":49,"x_max":933,"o":"m 49 0 m 238 29 q 97 184 144 82 q 49 435 49 286 q 104 690 49 578 q 264 863 160 801 q 508 925 368 925 q 619 915 571 925 l 657 1000 l 754 957 l 722 882 q 879 727 825 832 q 933 465 933 622 q 878 210 933 321 q 720 37 824 99 q 474 -25 617 -25 q 339 -10 404 -25 l 299 -106 l 199 -62 l 238 29 m 568 794 q 483 808 526 808 q 365 777 410 808 q 297 673 319 746 q 275 472 275 600 q 314 206 275 296 l 568 794 m 392 114 q 500 90 435 90 q 618 122 574 90 q 684 227 663 153 q 706 429 706 301 q 653 721 706 633 l 392 114 m 286 1001 l 485 1139 q 517 1158 493 1143 q 557 1172 540 1172 q 614 1144 594 1172 q 633 1075 633 1117 q 626 1026 633 1054 l 321 932 l 286 1001 z "},"Õ":{"ha":982,"x_min":49,"x_max":933,"o":"m 594 972 q 558 976 575 972 q 515 988 542 979 l 376 1033 l 278 979 l 224 1031 l 272 1104 q 328 1159 300 1146 q 393 1172 357 1172 q 472 1158 431 1172 l 611 1113 l 711 1165 l 764 1115 l 715 1042 q 659 986 688 1000 q 594 972 631 972 m 474 -25 q 158 92 268 -25 q 49 435 49 210 q 104 690 49 578 q 264 863 160 801 q 508 925 368 925 q 824 808 714 925 q 933 465 933 690 q 878 210 933 321 q 720 37 824 99 q 474 -25 617 -25 m 500 90 q 618 122 574 90 q 684 227 663 153 q 706 429 706 301 q 682 651 706 568 q 610 772 658 735 q 483 808 561 808 q 365 777 410 808 q 297 673 319 746 q 275 472 275 600 q 299 249 275 332 q 372 128 324 165 q 500 90 421 90 z "},"Œ":{"ha":1278,"x_min":49,"x_max":1222,"o":"m 479 0 q 49 435 49 0 q 103 683 49 578 q 262 844 158 788 q 507 900 365 900 l 1210 900 l 1210 639 l 1118 639 l 1081 794 l 889 794 l 828 785 l 828 508 l 969 508 l 1000 604 l 1074 604 l 1074 297 l 1000 297 l 969 403 l 828 403 l 828 106 l 918 106 l 1094 106 l 1133 274 l 1222 274 l 1222 0 l 479 0 m 497 110 q 631 121 571 110 l 631 776 q 493 788 579 788 q 333 719 390 788 q 275 472 275 651 q 298 254 275 333 q 369 142 321 175 q 497 110 417 110 z "},"P":{"ha":810,"x_min":49,"x_max":796,"o":"m 49 78 l 160 104 l 160 796 l 49 822 l 49 900 l 440 900 q 710 842 625 900 q 796 640 796 785 q 753 490 796 553 q 636 394 710 426 q 472 363 563 363 q 422 365 456 363 l 415 431 q 550 489 513 442 q 588 640 588 536 q 433 794 588 794 q 387 792 410 794 q 357 789 364 790 l 357 104 l 468 78 l 468 0 l 49 0 l 49 78 z "},"Þ":{"ha":808,"x_min":49,"x_max":767,"o":"m 49 78 l 160 104 l 160 796 l 49 822 l 49 900 l 468 900 l 468 822 l 357 796 l 357 710 l 471 710 q 697 653 628 710 q 767 478 767 597 q 669 265 767 335 q 407 194 572 194 l 357 194 l 357 104 l 468 78 l 468 0 l 49 0 l 49 78 m 400 300 q 529 341 490 300 q 568 464 568 382 q 532 569 568 533 q 418 604 496 604 q 357 600 399 604 l 357 300 l 400 300 z "},"Q":{"ha":982,"x_min":49,"x_max":983,"o":"m 497 -60 q 381 -18 449 -29 q 133 122 218 6 q 49 435 49 239 q 104 687 49 575 q 264 862 160 799 q 508 925 368 925 q 823 806 713 925 q 933 465 933 688 q 855 171 933 296 q 635 0 776 46 l 838 -107 l 983 -107 l 983 -178 q 955 -193 978 -182 q 899 -215 932 -204 q 836 -225 867 -225 q 704 -186 761 -225 l 497 -60 m 500 90 q 618 122 574 90 q 684 231 663 153 q 706 450 706 308 q 651 723 706 638 q 482 808 597 808 q 364 777 408 808 q 297 672 319 746 q 275 468 275 597 q 328 178 275 265 q 500 90 382 90 z "},"R":{"ha":871,"x_min":49,"x_max":875,"o":"m 49 78 l 160 104 l 160 796 l 49 822 l 49 900 l 440 900 q 700 844 617 900 q 783 646 783 789 q 735 493 783 556 q 600 399 688 431 l 772 101 l 875 78 l 875 0 l 667 0 q 617 10 635 0 q 585 46 599 19 l 415 367 l 357 367 l 357 104 l 468 78 l 468 0 l 49 0 l 49 78 m 399 472 q 531 516 485 472 q 576 646 576 560 q 545 760 576 725 q 428 794 514 794 q 357 789 382 794 l 357 472 l 399 472 z "},"Ŕ":{"ha":883,"x_min":49,"x_max":865,"o":"m 281 1001 l 479 1139 q 511 1158 488 1143 q 551 1172 535 1172 q 608 1144 589 1172 q 628 1075 628 1117 q 621 1026 628 1054 l 315 932 l 281 1001 m 49 78 l 160 104 l 160 796 l 49 822 l 49 900 l 440 900 q 700 844 617 900 q 783 646 783 789 q 735 492 783 556 q 599 396 686 428 l 763 101 l 865 78 l 865 0 l 669 0 q 619 10 638 0 q 588 46 601 19 l 418 367 l 357 367 l 357 104 l 468 78 l 468 0 l 49 0 l 49 78 m 399 472 q 531 516 485 472 q 578 646 578 560 q 547 759 578 724 q 432 794 517 794 q 357 789 385 794 l 357 472 l 399 472 z "},"Ř":{"ha":883,"x_min":49,"x_max":865,"o":"m 436 932 q 392 951 417 932 q 364 974 368 971 l 193 1100 l 240 1172 l 444 1086 l 638 1172 l 678 1114 l 511 975 q 469 944 486 956 q 436 932 451 932 m 49 78 l 160 104 l 160 796 l 49 822 l 49 900 l 440 900 q 700 844 617 900 q 783 646 783 789 q 735 492 783 556 q 599 396 686 428 l 763 101 l 865 78 l 865 0 l 669 0 q 619 10 638 0 q 588 46 601 19 l 418 367 l 357 367 l 357 104 l 468 78 l 468 0 l 49 0 l 49 78 m 399 472 q 531 516 485 472 q 578 646 578 560 q 547 759 578 724 q 432 794 517 794 q 357 789 385 794 l 357 472 l 399 472 z "},"Ŗ":{"ha":883,"x_min":49,"x_max":865,"o":"m 49 78 l 160 104 l 160 796 l 49 822 l 49 900 l 440 900 q 700 844 617 900 q 783 646 783 789 q 735 492 783 556 q 599 396 686 428 l 763 101 l 865 78 l 865 0 l 669 0 q 619 10 638 0 q 588 46 601 19 l 418 367 l 357 367 l 357 104 l 468 78 l 468 0 l 49 0 l 49 78 m 399 472 q 531 516 485 472 q 578 646 578 560 q 547 759 578 724 q 432 794 517 794 q 357 789 385 794 l 357 472 l 399 472 m 379 -294 q 385 -271 381 -289 q 394 -222 389 -253 q 399 -164 399 -192 q 392 -117 399 -136 q 380 -87 386 -97 q 371 -75 374 -78 q 406 -44 388 -56 q 449 -33 424 -33 q 513 -58 492 -33 q 535 -115 535 -82 q 514 -197 535 -157 q 467 -267 493 -236 q 440 -294 440 -297 l 379 -294 z "},"Ȑ":{"ha":871,"x_min":49,"x_max":875,"o":"m 49 0 m 49 78 l 160 104 l 160 796 l 49 822 l 49 900 l 440 900 q 700 844 617 900 q 783 646 783 789 q 735 493 783 556 q 600 399 688 431 l 772 101 l 875 78 l 875 0 l 667 0 q 617 10 635 0 q 585 46 599 19 l 415 367 l 357 367 l 357 104 l 468 78 l 468 0 l 49 0 l 49 78 m 399 472 q 531 516 485 472 q 576 646 576 560 q 545 760 576 725 q 428 794 514 794 q 357 789 382 794 l 357 472 l 399 472 m 65 1086 q 93 1160 71 1133 q 143 1188 115 1188 q 178 1176 163 1188 q 211 1144 193 1165 l 349 990 l 300 932 l 65 1086 m 329 1086 q 357 1160 335 1133 q 407 1188 379 1188 q 442 1176 426 1188 q 475 1144 457 1165 l 613 990 l 564 932 l 329 1086 z "},"Ṛ":{"ha":871,"x_min":49,"x_max":875,"o":"m 49 0 m 49 78 l 160 104 l 160 796 l 49 822 l 49 900 l 440 900 q 700 844 617 900 q 783 646 783 789 q 735 493 783 556 q 600 399 688 431 l 772 101 l 875 78 l 875 0 l 667 0 q 617 10 635 0 q 585 46 599 19 l 415 367 l 357 367 l 357 104 l 468 78 l 468 0 l 49 0 l 49 78 m 399 472 q 531 516 485 472 q 576 646 576 560 q 545 760 576 725 q 428 794 514 794 q 357 789 382 794 l 357 472 l 399 472 m 449 -286 q 372 -255 403 -286 q 342 -175 342 -224 q 376 -91 342 -126 q 460 -56 411 -56 q 538 -85 507 -56 q 568 -164 568 -114 q 535 -250 568 -214 q 449 -286 501 -286 z "},"Ȓ":{"ha":871,"x_min":49,"x_max":875,"o":"m 49 0 m 49 78 l 160 104 l 160 796 l 49 822 l 49 900 l 440 900 q 700 844 617 900 q 783 646 783 789 q 735 493 783 556 q 600 399 688 431 l 772 101 l 875 78 l 875 0 l 667 0 q 617 10 635 0 q 585 46 599 19 l 415 367 l 357 367 l 357 104 l 468 78 l 468 0 l 49 0 l 49 78 m 399 472 q 531 516 485 472 q 576 646 576 560 q 545 760 576 725 q 428 794 514 794 q 357 789 382 794 l 357 472 l 399 472 m 588 967 q 567 992 588 971 q 510 1033 547 1014 q 421 1053 472 1053 q 326 1035 365 1053 q 264 998 286 1018 q 242 975 242 978 l 179 1019 q 208 1068 179 1026 q 292 1146 238 1110 q 421 1182 346 1182 q 574 1151 514 1182 q 663 1085 633 1121 q 692 1043 692 1050 l 588 967 z "},"S":{"ha":744,"x_min":54,"x_max":688,"o":"m 350 -24 q 170 -1 247 -24 q 54 46 93 22 l 54 293 l 151 293 l 181 150 q 254 107 207 124 q 346 90 301 90 q 474 124 435 90 q 513 211 513 157 q 501 266 513 246 q 455 307 490 286 q 338 364 419 328 l 297 381 q 169 443 218 414 q 88 525 121 472 q 54 660 54 578 q 94 798 54 738 q 208 892 133 858 q 381 925 282 925 q 527 914 451 925 q 647 890 603 903 l 647 638 l 551 638 l 522 782 q 386 808 458 808 q 269 781 303 808 q 236 696 236 754 q 253 642 236 664 q 296 608 269 621 q 374 574 322 594 q 403 563 383 571 q 556 490 497 525 q 651 401 615 454 q 688 271 688 347 q 590 45 688 114 q 350 -24 492 -24 z "},"Ś":{"ha":744,"x_min":54,"x_max":688,"o":"m 219 1001 l 418 1139 q 450 1158 426 1143 q 490 1172 474 1172 q 547 1144 528 1172 q 567 1075 567 1117 q 560 1026 567 1054 l 254 932 l 219 1001 m 350 -24 q 170 -1 247 -24 q 54 46 93 22 l 54 293 l 151 293 l 181 150 q 254 107 207 124 q 346 90 301 90 q 474 124 435 90 q 513 211 513 157 q 501 266 513 246 q 455 307 490 286 q 338 364 419 328 l 297 381 q 169 443 218 414 q 88 525 121 472 q 54 660 54 578 q 94 798 54 738 q 208 892 133 858 q 381 925 282 925 q 527 914 451 925 q 647 890 603 903 l 647 638 l 551 638 l 522 782 q 386 808 458 808 q 269 781 303 808 q 236 696 236 754 q 253 642 236 664 q 296 608 269 621 q 374 574 322 594 q 403 563 383 571 q 556 490 497 525 q 651 401 615 454 q 688 271 688 347 q 590 45 688 114 q 350 -24 492 -24 z "},"Ꞌ":{"ha":201,"x_min":22,"x_max":179,"o":"m 22 497 m 22 903 q 103 924 61 924 q 161 910 143 924 q 179 869 179 897 q 172 794 179 835 q 149 690 164 754 l 100 497 l 22 497 l 22 903 z "},"Š":{"ha":744,"x_min":54,"x_max":688,"o":"m 382 932 q 358 940 372 932 q 333 958 344 949 q 311 974 321 967 l 140 1100 l 188 1172 l 392 1086 l 585 1172 l 625 1114 l 458 975 q 415 944 433 956 q 382 932 397 932 m 350 -24 q 170 -1 247 -24 q 54 46 93 22 l 54 293 l 151 293 l 181 150 q 254 107 207 124 q 346 90 301 90 q 474 124 435 90 q 513 211 513 157 q 501 266 513 246 q 455 307 490 286 q 338 364 419 328 l 297 381 q 169 443 218 414 q 88 525 121 472 q 54 660 54 578 q 94 798 54 738 q 208 892 133 858 q 381 925 282 925 q 527 914 451 925 q 647 890 603 903 l 647 638 l 551 638 l 522 782 q 386 808 458 808 q 269 781 303 808 q 236 696 236 754 q 253 642 236 664 q 296 608 269 621 q 374 574 322 594 q 403 563 383 571 q 556 490 497 525 q 651 401 615 454 q 688 271 688 347 q 590 45 688 114 q 350 -24 492 -24 z "},"Ş":{"ha":744,"x_min":58,"x_max":692,"o":"m 350 -269 q 286 -263 313 -269 q 233 -243 260 -257 l 261 -178 q 346 -196 303 -196 q 382 -189 369 -196 q 394 -161 394 -182 q 387 -140 394 -147 q 363 -129 379 -132 l 322 -121 l 290 -89 l 319 -22 q 160 3 229 -18 q 58 46 92 25 l 58 293 l 156 293 l 185 150 q 258 107 211 124 q 350 90 306 90 q 479 119 442 90 q 517 211 517 149 q 506 268 517 247 q 458 310 494 289 q 342 364 422 332 q 194 431 249 401 q 99 516 139 460 q 58 660 58 572 q 98 798 58 738 q 212 892 138 858 q 385 925 286 925 q 531 914 456 925 q 651 890 607 903 l 651 638 l 556 638 l 526 782 q 390 808 458 808 q 272 782 303 808 q 240 696 240 756 q 261 641 240 664 q 313 603 282 618 q 407 563 344 588 q 560 490 501 525 q 656 401 619 454 q 692 271 692 347 q 608 58 692 126 q 399 -21 525 -11 l 399 -42 l 428 -49 q 499 -81 476 -61 q 522 -144 522 -100 q 478 -237 522 -206 q 350 -269 435 -269 z "},"Ŝ":{"ha":744,"x_min":54,"x_max":688,"o":"m 54 0 m 350 -24 q 170 -1 247 -24 q 54 46 93 22 l 54 293 l 151 293 l 181 150 q 254 107 207 124 q 346 90 301 90 q 474 124 435 90 q 513 211 513 157 q 501 266 513 246 q 455 307 490 286 q 338 364 419 328 l 297 381 q 169 443 218 414 q 88 525 121 472 q 54 660 54 578 q 94 798 54 738 q 208 892 133 858 q 381 925 282 925 q 527 914 451 925 q 647 890 603 903 l 647 638 l 551 638 l 522 782 q 386 808 458 808 q 269 781 303 808 q 236 696 236 754 q 253 642 236 664 q 296 608 269 621 q 374 574 322 594 q 403 563 383 571 q 556 490 497 525 q 651 401 615 454 q 688 271 688 347 q 590 45 688 114 q 350 -24 492 -24 m 300 1129 q 349 1165 335 1158 q 375 1172 364 1172 q 399 1165 386 1172 q 424 1147 411 1157 q 444 1131 438 1136 l 613 1001 l 569 932 l 364 1018 l 168 932 l 131 989 l 300 1129 z "},"Ș":{"ha":744,"x_min":58,"x_max":692,"o":"m 354 -24 q 174 -1 251 -24 q 58 46 97 22 l 58 293 l 156 293 l 185 150 q 258 107 211 124 q 350 90 306 90 q 479 119 442 90 q 517 211 517 149 q 506 268 517 247 q 458 310 494 289 q 342 364 422 332 q 194 431 249 401 q 99 516 139 460 q 58 660 58 572 q 98 798 58 738 q 212 892 138 858 q 385 925 286 925 q 531 914 456 925 q 651 890 607 903 l 651 638 l 556 638 l 526 782 q 390 808 458 808 q 272 782 303 808 q 240 696 240 756 q 261 641 240 664 q 313 603 282 618 q 407 563 344 588 q 560 490 501 525 q 656 401 619 454 q 692 271 692 347 q 594 45 692 114 q 354 -24 496 -24 m 286 -294 q 292 -271 288 -289 q 301 -222 296 -253 q 306 -164 306 -192 q 299 -117 306 -136 q 287 -87 293 -97 q 278 -75 281 -78 q 313 -44 294 -56 q 356 -33 331 -33 q 420 -58 399 -33 q 442 -115 442 -82 q 421 -197 442 -157 q 374 -267 400 -236 q 347 -294 347 -297 l 286 -294 z "},"Ṣ":{"ha":744,"x_min":54,"x_max":688,"o":"m 54 0 m 350 -24 q 170 -1 247 -24 q 54 46 93 22 l 54 293 l 151 293 l 181 150 q 254 107 207 124 q 346 90 301 90 q 474 124 435 90 q 513 211 513 157 q 501 266 513 246 q 455 307 490 286 q 338 364 419 328 l 297 381 q 169 443 218 414 q 88 525 121 472 q 54 660 54 578 q 94 798 54 738 q 208 892 133 858 q 381 925 282 925 q 527 914 451 925 q 647 890 603 903 l 647 638 l 551 638 l 522 782 q 386 808 458 808 q 269 781 303 808 q 236 696 236 754 q 253 642 236 664 q 296 608 269 621 q 374 574 322 594 q 403 563 383 571 q 556 490 497 525 q 651 401 615 454 q 688 271 688 347 q 590 45 688 114 q 350 -24 492 -24 m 365 -286 q 289 -255 319 -286 q 258 -175 258 -224 q 293 -91 258 -126 q 376 -56 328 -56 q 454 -85 424 -56 q 485 -164 485 -114 q 451 -250 485 -214 q 365 -286 418 -286 z "},"ẞ":{"ha":1015,"x_min":4,"x_max":958,"o":"m 654 -24 q 521 -4 586 -24 q 429 32 456 15 l 429 279 l 526 279 l 556 136 q 601 104 571 118 q 668 90 632 90 q 756 130 728 90 q 783 232 783 169 q 540 417 783 417 l 514 417 l 514 521 l 696 782 l 696 796 q 551 808 621 808 q 408 776 460 808 q 334 680 356 744 q 313 513 313 615 l 313 0 l 4 0 l 4 78 l 115 104 l 115 476 q 167 711 115 610 q 322 869 219 813 q 571 925 425 925 q 752 913 644 925 q 900 889 860 900 l 900 794 l 710 525 l 710 514 q 897 427 835 494 q 958 254 958 360 q 916 100 958 163 q 804 7 874 38 q 654 -24 735 -24 z "},"Ə":{"ha":940,"x_min":49,"x_max":890,"o":"m 449 -25 q 153 92 257 -25 q 49 435 49 210 q 54 518 49 483 l 663 518 q 630 698 657 635 q 555 785 603 761 q 429 810 507 810 q 271 778 344 810 l 239 613 l 136 613 l 136 863 q 275 907 197 889 q 465 925 353 925 q 781 808 674 925 q 890 461 888 690 q 835 201 889 311 q 682 33 781 92 q 449 -25 583 -25 m 481 90 q 583 120 544 90 q 642 220 622 150 q 664 411 663 290 l 276 411 q 331 164 282 238 q 481 90 381 90 z "},"T":{"ha":782,"x_min":11,"x_max":779,"o":"m 188 78 l 299 104 l 299 794 l 140 794 l 103 639 l 11 639 l 11 900 l 779 900 l 779 639 l 688 639 l 650 794 l 496 794 l 496 104 l 607 78 l 607 0 l 188 0 l 188 78 z "},"Ŧ":{"ha":782,"x_min":11,"x_max":779,"o":"m 650 794 l 496 794 l 496 518 l 739 518 l 739 411 l 496 411 l 496 104 l 607 78 l 607 0 l 188 0 l 188 78 l 299 104 l 299 411 l 43 411 l 43 518 l 299 518 l 299 794 l 140 794 l 103 639 l 11 639 l 11 900 l 779 900 l 779 639 l 688 639 l 650 794 z "},"Ť":{"ha":796,"x_min":14,"x_max":782,"o":"m 415 1086 l 608 1172 l 649 1114 l 482 975 q 463 959 476 971 q 435 940 449 947 q 407 932 421 932 q 363 951 388 932 q 335 974 339 971 l 164 1100 l 211 1172 l 415 1086 m 190 78 l 301 104 l 301 794 l 143 794 l 106 639 l 14 639 l 14 900 l 782 900 l 782 639 l 690 639 l 653 794 l 499 794 l 499 104 l 610 78 l 610 0 l 190 0 l 190 78 z "},"Ţ":{"ha":796,"x_min":14,"x_max":782,"o":"m 383 -269 q 319 -263 346 -269 q 267 -243 293 -257 l 294 -178 q 379 -196 336 -196 q 415 -189 403 -196 q 428 -161 428 -182 q 420 -140 428 -147 q 396 -129 413 -132 l 356 -121 l 324 -89 l 364 0 l 190 0 l 190 78 l 301 104 l 301 794 l 143 794 l 106 639 l 14 639 l 14 900 l 782 900 l 782 639 l 690 639 l 653 794 l 499 794 l 499 104 l 610 78 l 610 0 l 432 0 l 432 -42 l 461 -49 q 533 -81 510 -61 q 556 -144 556 -100 q 512 -237 556 -206 q 383 -269 468 -269 z "},"Ț":{"ha":796,"x_min":14,"x_max":782,"o":"m 190 0 l 190 78 l 301 104 l 301 794 l 143 794 l 106 639 l 14 639 l 14 900 l 782 900 l 782 639 l 690 639 l 653 794 l 499 794 l 499 104 l 610 78 l 610 0 l 190 0 m 326 -294 q 332 -271 328 -289 q 341 -222 336 -253 q 346 -164 346 -192 q 340 -117 346 -136 q 327 -87 333 -97 q 318 -75 321 -78 q 353 -44 335 -56 q 396 -33 371 -33 q 460 -58 439 -33 q 482 -115 482 -82 q 461 -197 482 -157 q 414 -267 440 -236 q 388 -294 388 -297 l 326 -294 z "},"Ṭ":{"ha":782,"x_min":11,"x_max":779,"o":"m 11 0 m 188 78 l 299 104 l 299 794 l 140 794 l 103 639 l 11 639 l 11 900 l 779 900 l 779 639 l 688 639 l 650 794 l 496 794 l 496 104 l 607 78 l 607 0 l 188 0 l 188 78 m 385 -286 q 308 -255 339 -286 q 278 -175 278 -224 q 313 -91 278 -126 q 396 -56 347 -56 q 474 -85 443 -56 q 504 -164 504 -114 q 471 -250 504 -214 q 385 -286 438 -286 z "},"U":{"ha":950,"x_min":4,"x_max":946,"o":"m 4 822 l 4 900 l 415 900 l 415 822 l 313 796 l 313 386 q 331 202 313 264 q 392 118 350 140 q 515 96 435 96 q 623 119 585 96 q 678 206 661 143 q 696 386 696 268 l 696 796 l 586 821 l 586 900 l 946 900 l 946 821 l 835 796 l 835 386 q 802 149 835 239 q 694 17 769 60 q 489 -25 619 -25 q 265 15 346 -25 q 150 142 185 54 q 115 386 115 231 l 115 796 l 4 822 z "},"Ú":{"ha":950,"x_min":4,"x_max":946,"o":"m 338 1001 l 536 1139 q 568 1158 544 1143 q 608 1172 592 1172 q 665 1144 646 1172 q 685 1075 685 1117 q 678 1026 685 1054 l 372 932 l 338 1001 m 489 -25 q 265 15 346 -25 q 150 142 185 54 q 115 386 115 231 l 115 796 l 4 822 l 4 900 l 415 900 l 415 822 l 313 796 l 313 386 q 331 202 313 264 q 392 118 350 140 q 515 96 435 96 q 626 119 588 96 q 679 204 664 143 q 694 386 694 265 l 694 796 l 586 821 l 586 900 l 946 900 l 946 821 l 835 796 l 835 386 q 752 73 835 171 q 489 -25 669 -25 z "},"Ŭ":{"ha":950,"x_min":4,"x_max":946,"o":"m 4 0 m 4 822 l 4 900 l 415 900 l 415 822 l 313 796 l 313 386 q 331 202 313 264 q 392 118 350 140 q 515 96 435 96 q 623 119 585 96 q 678 206 661 143 q 696 386 696 268 l 696 796 l 586 821 l 586 900 l 946 900 l 946 821 l 835 796 l 835 386 q 802 149 835 239 q 694 17 769 60 q 489 -25 619 -25 q 265 15 346 -25 q 150 142 185 54 q 115 386 115 231 l 115 796 l 4 822 m 322 1182 q 342 1156 322 1178 q 400 1115 363 1135 q 489 1096 438 1096 q 584 1113 544 1096 q 646 1151 624 1131 q 668 1174 668 1171 l 731 1129 q 701 1081 731 1122 q 618 1003 672 1039 q 489 967 564 967 q 336 997 396 967 q 247 1063 276 1028 q 218 1106 218 1099 l 322 1182 z "},"Ǔ":{"ha":950,"x_min":4,"x_max":946,"o":"m 4 0 m 4 822 l 4 900 l 415 900 l 415 822 l 313 796 l 313 386 q 331 202 313 264 q 392 118 350 140 q 515 96 435 96 q 623 119 585 96 q 678 206 661 143 q 696 386 696 268 l 696 796 l 586 821 l 586 900 l 946 900 l 946 821 l 835 796 l 835 386 q 802 149 835 239 q 694 17 769 60 q 489 -25 619 -25 q 265 15 346 -25 q 150 142 185 54 q 115 386 115 231 l 115 796 l 4 822 m 483 1086 l 676 1172 l 717 1114 l 550 975 q 531 959 544 971 q 503 940 517 947 q 475 932 489 932 q 431 951 456 932 q 403 974 407 971 l 232 1100 l 279 1172 l 483 1086 z "},"Û":{"ha":950,"x_min":4,"x_max":946,"o":"m 429 1129 q 478 1165 464 1158 q 504 1172 493 1172 q 528 1165 515 1172 q 553 1147 540 1157 q 574 1131 567 1136 l 742 1001 l 699 932 l 493 1018 l 297 932 l 260 989 l 429 1129 m 4 822 l 4 900 l 415 900 l 415 822 l 313 796 l 313 386 q 331 202 313 264 q 392 118 350 140 q 515 96 435 96 q 626 119 588 96 q 679 204 664 143 q 694 386 694 265 l 694 796 l 586 821 l 586 900 l 946 900 l 946 821 l 835 796 l 835 386 q 752 73 835 171 q 489 -25 669 -25 q 265 15 346 -25 q 150 142 185 54 q 115 386 115 231 l 115 796 l 4 822 z "},"Ȕ":{"ha":950,"x_min":4,"x_max":946,"o":"m 4 0 m 4 822 l 4 900 l 415 900 l 415 822 l 313 796 l 313 386 q 331 202 313 264 q 392 118 350 140 q 515 96 435 96 q 623 119 585 96 q 678 206 661 143 q 696 386 696 268 l 696 796 l 586 821 l 586 900 l 946 900 l 946 821 l 835 796 l 835 386 q 802 149 835 239 q 694 17 769 60 q 489 -25 619 -25 q 265 15 346 -25 q 150 142 185 54 q 115 386 115 231 l 115 796 l 4 822 m 104 1086 q 132 1160 110 1133 q 182 1188 154 1188 q 217 1176 201 1188 q 250 1144 232 1165 l 388 990 l 339 932 l 104 1086 m 368 1086 q 396 1160 374 1133 q 446 1188 418 1188 q 481 1176 465 1188 q 514 1144 496 1165 l 651 990 l 603 932 l 368 1086 z "},"Ü":{"ha":950,"x_min":4,"x_max":946,"o":"m 303 965 q 233 994 261 965 q 206 1067 206 1022 q 238 1144 206 1111 q 314 1176 269 1176 q 385 1149 357 1176 q 413 1076 413 1122 q 382 998 413 1031 q 303 965 351 965 m 643 965 q 574 994 601 965 q 546 1067 546 1022 q 578 1144 546 1111 q 654 1176 610 1176 q 725 1149 697 1176 q 753 1076 753 1122 q 722 998 753 1031 q 643 965 692 965 m 489 -25 q 265 15 346 -25 q 150 142 185 54 q 115 386 115 231 l 115 796 l 4 822 l 4 900 l 415 900 l 415 822 l 313 796 l 313 386 q 331 202 313 264 q 392 118 350 140 q 515 96 435 96 q 626 119 588 96 q 679 204 664 143 q 694 386 694 265 l 694 796 l 586 821 l 586 900 l 946 900 l 946 821 l 835 796 l 835 386 q 752 73 835 171 q 489 -25 669 -25 z "},"Ǘ":{"ha":950,"x_min":4,"x_max":946,"o":"m 4 0 m 4 822 l 4 900 l 415 900 l 415 822 l 313 796 l 313 386 q 331 202 313 264 q 392 118 350 140 q 515 96 435 96 q 623 119 585 96 q 678 206 661 143 q 696 386 696 268 l 696 796 l 586 821 l 586 900 l 946 900 l 946 821 l 835 796 l 835 386 q 802 149 835 239 q 694 17 769 60 q 489 -25 619 -25 q 265 15 346 -25 q 150 142 185 54 q 115 386 115 231 l 115 796 l 4 822 m 299 965 q 229 994 257 965 q 201 1067 201 1022 q 233 1144 201 1111 q 310 1176 265 1176 q 381 1149 353 1176 q 408 1076 408 1122 q 378 998 408 1031 q 299 965 347 965 m 639 965 q 569 994 597 965 q 542 1067 542 1022 q 574 1144 542 1111 q 650 1176 606 1176 q 721 1149 693 1176 q 749 1076 749 1122 q 718 998 749 1031 q 639 965 688 965 m 372 1278 l 571 1415 q 603 1434 579 1419 q 643 1449 626 1449 q 700 1421 681 1449 q 719 1351 719 1393 q 713 1303 719 1331 l 407 1208 l 372 1278 z "},"Ǚ":{"ha":950,"x_min":4,"x_max":946,"o":"m 4 0 m 4 822 l 4 900 l 415 900 l 415 822 l 313 796 l 313 386 q 331 202 313 264 q 392 118 350 140 q 515 96 435 96 q 623 119 585 96 q 678 206 661 143 q 696 386 696 268 l 696 796 l 586 821 l 586 900 l 946 900 l 946 821 l 835 796 l 835 386 q 802 149 835 239 q 694 17 769 60 q 489 -25 619 -25 q 265 15 346 -25 q 150 142 185 54 q 115 386 115 231 l 115 796 l 4 822 m 299 965 q 229 994 257 965 q 201 1067 201 1022 q 233 1144 201 1111 q 310 1176 265 1176 q 381 1149 353 1176 q 408 1076 408 1122 q 378 998 408 1031 q 299 965 347 965 m 639 965 q 569 994 597 965 q 542 1067 542 1022 q 574 1144 542 1111 q 650 1176 606 1176 q 721 1149 693 1176 q 749 1076 749 1122 q 718 998 749 1031 q 639 965 688 965 m 486 1363 l 679 1449 l 719 1390 l 553 1251 q 533 1235 547 1247 q 506 1216 519 1224 q 478 1208 492 1208 q 434 1228 458 1208 q 406 1250 410 1247 l 235 1376 l 282 1449 l 486 1363 z "},"Ǜ":{"ha":950,"x_min":4,"x_max":946,"o":"m 4 0 m 4 822 l 4 900 l 415 900 l 415 822 l 313 796 l 313 386 q 331 202 313 264 q 392 118 350 140 q 515 96 435 96 q 623 119 585 96 q 678 206 661 143 q 696 386 696 268 l 696 796 l 586 821 l 586 900 l 946 900 l 946 821 l 835 796 l 835 386 q 802 149 835 239 q 694 17 769 60 q 489 -25 619 -25 q 265 15 346 -25 q 150 142 185 54 q 115 386 115 231 l 115 796 l 4 822 m 299 965 q 229 994 257 965 q 201 1067 201 1022 q 233 1144 201 1111 q 310 1176 265 1176 q 381 1149 353 1176 q 408 1076 408 1122 q 378 998 408 1031 q 299 965 347 965 m 639 965 q 569 994 597 965 q 542 1067 542 1022 q 574 1144 542 1111 q 650 1176 606 1176 q 721 1149 693 1176 q 749 1076 749 1122 q 718 998 749 1031 q 639 965 688 965 m 242 1303 q 235 1353 235 1331 q 254 1422 235 1394 q 311 1449 274 1449 q 351 1434 328 1449 q 383 1415 375 1419 l 582 1278 l 547 1208 l 242 1303 z "},"Ǖ":{"ha":950,"x_min":4,"x_max":946,"o":"m 4 0 m 4 822 l 4 900 l 415 900 l 415 822 l 313 796 l 313 386 q 331 202 313 264 q 392 118 350 140 q 515 96 435 96 q 623 119 585 96 q 678 206 661 143 q 696 386 696 268 l 696 796 l 586 821 l 586 900 l 946 900 l 946 821 l 835 796 l 835 386 q 802 149 835 239 q 694 17 769 60 q 489 -25 619 -25 q 265 15 346 -25 q 150 142 185 54 q 115 386 115 231 l 115 796 l 4 822 m 299 965 q 229 994 257 965 q 201 1067 201 1022 q 233 1144 201 1111 q 310 1176 265 1176 q 381 1149 353 1176 q 408 1076 408 1122 q 378 998 408 1031 q 299 965 347 965 m 639 965 q 569 994 597 965 q 542 1067 542 1022 q 574 1144 542 1111 q 650 1176 606 1176 q 721 1149 693 1176 q 749 1076 749 1122 q 718 998 749 1031 q 639 965 688 965 m 246 1396 l 726 1396 l 708 1281 l 228 1281 l 246 1396 z "},"Ụ":{"ha":950,"x_min":4,"x_max":946,"o":"m 4 0 m 4 822 l 4 900 l 415 900 l 415 822 l 313 796 l 313 386 q 331 202 313 264 q 392 118 350 140 q 515 96 435 96 q 623 119 585 96 q 678 206 661 143 q 696 386 696 268 l 696 796 l 586 821 l 586 900 l 946 900 l 946 821 l 835 796 l 835 386 q 802 149 835 239 q 694 17 769 60 q 489 -25 619 -25 q 265 15 346 -25 q 150 142 185 54 q 115 386 115 231 l 115 796 l 4 822 m 468 -286 q 392 -255 422 -286 q 361 -175 361 -224 q 396 -91 361 -126 q 479 -56 431 -56 q 557 -85 526 -56 q 588 -164 588 -114 q 554 -250 588 -214 q 468 -286 521 -286 z "},"Ù":{"ha":950,"x_min":4,"x_max":946,"o":"m 326 1026 q 319 1076 319 1054 q 339 1145 319 1118 q 396 1172 358 1172 q 436 1158 413 1172 q 468 1139 460 1143 l 667 1001 l 632 932 l 326 1026 m 489 -25 q 265 15 346 -25 q 150 142 185 54 q 115 386 115 231 l 115 796 l 4 822 l 4 900 l 415 900 l 415 822 l 313 796 l 313 386 q 331 202 313 264 q 392 118 350 140 q 515 96 435 96 q 626 119 588 96 q 679 204 664 143 q 694 386 694 265 l 694 796 l 586 821 l 586 900 l 946 900 l 946 821 l 835 796 l 835 386 q 752 73 835 171 q 489 -25 669 -25 z "},"Ủ":{"ha":950,"x_min":4,"x_max":946,"o":"m 4 0 m 4 822 l 4 900 l 415 900 l 415 822 l 313 796 l 313 386 q 331 202 313 264 q 392 118 350 140 q 515 96 435 96 q 623 119 585 96 q 678 206 661 143 q 696 386 696 268 l 696 796 l 586 821 l 586 900 l 946 900 l 946 821 l 835 796 l 835 386 q 802 149 835 239 q 694 17 769 60 q 489 -25 619 -25 q 265 15 346 -25 q 150 142 185 54 q 115 386 115 231 l 115 796 l 4 822 m 428 932 q 413 969 413 956 q 425 994 413 982 q 468 1022 438 1006 q 494 1041 485 1032 q 503 1065 503 1050 q 490 1088 503 1082 q 450 1094 478 1094 q 375 1083 415 1094 q 349 1139 349 1113 q 458 1188 349 1188 q 592 1159 544 1188 q 639 1078 639 1131 q 571 990 639 1025 q 528 968 536 975 q 524 942 519 961 l 428 932 z "},"Ư":{"ha":950,"x_min":4,"x_max":1024,"o":"m 489 -25 q 265 15 346 -25 q 150 142 185 54 q 115 386 115 231 l 115 796 l 4 822 l 4 900 l 415 900 l 415 822 l 313 796 l 313 386 q 331 202 313 264 q 392 118 350 140 q 515 96 435 96 q 623 119 585 96 q 678 206 661 143 q 696 386 696 268 l 696 796 l 586 821 l 586 900 l 800 900 q 864 905 844 900 q 890 920 883 910 q 896 954 896 931 q 891 977 896 968 q 876 994 886 986 l 876 1015 l 978 1082 q 991 1072 979 1081 q 1013 1043 1003 1064 q 1024 997 1024 1022 q 981 898 1024 951 q 835 800 939 844 l 835 386 q 802 149 835 239 q 694 17 769 60 q 489 -25 619 -25 z "},"Ứ":{"ha":950,"x_min":4,"x_max":1024,"o":"m 4 0 m 489 -25 q 265 15 346 -25 q 150 142 185 54 q 115 386 115 231 l 115 796 l 4 822 l 4 900 l 415 900 l 415 822 l 313 796 l 313 386 q 331 202 313 264 q 392 118 350 140 q 515 96 435 96 q 623 119 585 96 q 678 206 661 143 q 696 386 696 268 l 696 796 l 586 821 l 586 900 l 800 900 q 864 905 844 900 q 890 920 883 910 q 896 954 896 931 q 891 977 896 968 q 876 994 886 986 l 876 1015 l 978 1082 q 991 1072 979 1081 q 1013 1043 1003 1064 q 1024 997 1024 1022 q 981 898 1024 951 q 835 800 939 844 l 835 386 q 802 149 835 239 q 694 17 769 60 q 489 -25 619 -25 m 369 1001 l 568 1139 q 600 1158 576 1143 q 640 1172 624 1172 q 697 1144 678 1172 q 717 1075 717 1117 q 710 1026 717 1054 l 404 932 l 369 1001 z "},"Ự":{"ha":950,"x_min":4,"x_max":1024,"o":"m 4 0 m 489 -25 q 265 15 346 -25 q 150 142 185 54 q 115 386 115 231 l 115 796 l 4 822 l 4 900 l 415 900 l 415 822 l 313 796 l 313 386 q 331 202 313 264 q 392 118 350 140 q 515 96 435 96 q 623 119 585 96 q 678 206 661 143 q 696 386 696 268 l 696 796 l 586 821 l 586 900 l 800 900 q 864 905 844 900 q 890 920 883 910 q 896 954 896 931 q 891 977 896 968 q 876 994 886 986 l 876 1015 l 978 1082 q 991 1072 979 1081 q 1013 1043 1003 1064 q 1024 997 1024 1022 q 981 898 1024 951 q 835 800 939 844 l 835 386 q 802 149 835 239 q 694 17 769 60 q 489 -25 619 -25 m 468 -286 q 392 -255 422 -286 q 361 -175 361 -224 q 396 -91 361 -126 q 479 -56 431 -56 q 557 -85 526 -56 q 588 -164 588 -114 q 554 -250 588 -214 q 468 -286 521 -286 z "},"Ừ":{"ha":950,"x_min":4,"x_max":1024,"o":"m 4 0 m 489 -25 q 265 15 346 -25 q 150 142 185 54 q 115 386 115 231 l 115 796 l 4 822 l 4 900 l 415 900 l 415 822 l 313 796 l 313 386 q 331 202 313 264 q 392 118 350 140 q 515 96 435 96 q 623 119 585 96 q 678 206 661 143 q 696 386 696 268 l 696 796 l 586 821 l 586 900 l 800 900 q 864 905 844 900 q 890 920 883 910 q 896 954 896 931 q 891 977 896 968 q 876 994 886 986 l 876 1015 l 978 1082 q 991 1072 979 1081 q 1013 1043 1003 1064 q 1024 997 1024 1022 q 981 898 1024 951 q 835 800 939 844 l 835 386 q 802 149 835 239 q 694 17 769 60 q 489 -25 619 -25 m 239 1026 q 232 1076 232 1054 q 251 1145 232 1118 q 308 1172 271 1172 q 349 1158 325 1172 q 381 1139 372 1143 l 579 1001 l 544 932 l 239 1026 z "},"Ử":{"ha":950,"x_min":4,"x_max":1024,"o":"m 4 0 m 489 -25 q 265 15 346 -25 q 150 142 185 54 q 115 386 115 231 l 115 796 l 4 822 l 4 900 l 415 900 l 415 822 l 313 796 l 313 386 q 331 202 313 264 q 392 118 350 140 q 515 96 435 96 q 623 119 585 96 q 678 206 661 143 q 696 386 696 268 l 696 796 l 586 821 l 586 900 l 800 900 q 864 905 844 900 q 890 920 883 910 q 896 954 896 931 q 891 977 896 968 q 876 994 886 986 l 876 1015 l 978 1082 q 991 1072 979 1081 q 1013 1043 1003 1064 q 1024 997 1024 1022 q 981 898 1024 951 q 835 800 939 844 l 835 386 q 802 149 835 239 q 694 17 769 60 q 489 -25 619 -25 m 428 932 q 413 969 413 956 q 425 994 413 982 q 468 1022 438 1006 q 494 1041 485 1032 q 503 1065 503 1050 q 490 1088 503 1082 q 450 1094 478 1094 q 375 1083 415 1094 q 349 1139 349 1113 q 458 1188 349 1188 q 592 1159 544 1188 q 639 1078 639 1131 q 571 990 639 1025 q 528 968 536 975 q 524 942 519 961 l 428 932 z "},"Ữ":{"ha":950,"x_min":4,"x_max":1024,"o":"m 4 0 m 489 -25 q 265 15 346 -25 q 150 142 185 54 q 115 386 115 231 l 115 796 l 4 822 l 4 900 l 415 900 l 415 822 l 313 796 l 313 386 q 331 202 313 264 q 392 118 350 140 q 515 96 435 96 q 623 119 585 96 q 678 206 661 143 q 696 386 696 268 l 696 796 l 586 821 l 586 900 l 800 900 q 864 905 844 900 q 890 920 883 910 q 896 954 896 931 q 891 977 896 968 q 876 994 886 986 l 876 1015 l 978 1082 q 991 1072 979 1081 q 1013 1043 1003 1064 q 1024 997 1024 1022 q 981 898 1024 951 q 835 800 939 844 l 835 386 q 802 149 835 239 q 694 17 769 60 q 489 -25 619 -25 m 575 972 q 539 976 556 972 q 496 988 522 979 l 357 1033 l 258 979 l 204 1031 l 253 1104 q 309 1159 281 1146 q 374 1172 338 1172 q 453 1158 411 1172 l 592 1113 l 692 1165 l 744 1115 l 696 1042 q 639 986 668 1000 q 575 972 610 972 z "},"Ű":{"ha":950,"x_min":4,"x_max":946,"o":"m 243 990 l 381 1144 q 414 1176 399 1165 q 449 1188 429 1188 q 499 1160 476 1188 q 526 1086 521 1133 l 292 932 l 243 990 m 507 990 l 644 1144 q 678 1176 663 1165 q 713 1188 693 1188 q 763 1160 740 1188 q 790 1086 785 1133 l 556 932 l 507 990 m 489 -25 q 265 15 346 -25 q 150 142 185 54 q 115 386 115 231 l 115 796 l 4 822 l 4 900 l 415 900 l 415 822 l 313 796 l 313 386 q 331 202 313 264 q 392 118 350 140 q 515 96 435 96 q 625 119 588 96 q 677 204 663 143 q 693 386 692 265 l 696 796 l 586 821 l 586 900 l 946 900 l 946 821 l 835 796 l 835 386 q 752 73 835 171 q 489 -25 669 -25 z "},"Ȗ":{"ha":950,"x_min":4,"x_max":946,"o":"m 4 0 m 4 822 l 4 900 l 415 900 l 415 822 l 313 796 l 313 386 q 331 202 313 264 q 392 118 350 140 q 515 96 435 96 q 623 119 585 96 q 678 206 661 143 q 696 386 696 268 l 696 796 l 586 821 l 586 900 l 946 900 l 946 821 l 835 796 l 835 386 q 802 149 835 239 q 694 17 769 60 q 489 -25 619 -25 q 265 15 346 -25 q 150 142 185 54 q 115 386 115 231 l 115 796 l 4 822 m 626 967 q 606 992 626 971 q 549 1033 586 1014 q 460 1053 511 1053 q 365 1035 404 1053 q 303 998 325 1018 q 281 975 281 978 l 218 1019 q 247 1068 218 1026 q 331 1146 276 1110 q 460 1182 385 1182 q 613 1151 553 1182 q 701 1085 672 1121 q 731 1043 731 1050 l 626 967 z "},"Ū":{"ha":950,"x_min":4,"x_max":946,"o":"m 267 1119 l 747 1119 l 729 1004 l 249 1004 l 267 1119 m 4 822 l 4 900 l 415 900 l 415 822 l 313 796 l 313 386 q 331 202 313 264 q 392 118 350 140 q 515 96 435 96 q 625 119 588 96 q 677 204 663 143 q 693 386 692 265 l 696 796 l 586 821 l 586 900 l 946 900 l 946 821 l 835 796 l 835 386 q 752 73 835 171 q 489 -25 669 -25 q 265 15 346 -25 q 150 142 185 54 q 115 386 115 231 l 115 796 l 4 822 z "},"Ų":{"ha":950,"x_min":4,"x_max":946,"o":"m 608 -260 q 510 -233 547 -260 q 474 -157 474 -207 q 547 -22 474 -83 q 489 -25 511 -25 q 265 15 346 -25 q 150 142 185 54 q 115 386 115 231 l 115 796 l 4 822 l 4 900 l 415 900 l 415 822 l 313 796 l 313 386 q 331 202 313 264 q 392 118 350 140 q 515 96 435 96 q 625 119 588 96 q 677 204 663 143 q 693 386 692 265 l 696 796 l 586 821 l 586 900 l 946 900 l 946 821 l 835 796 l 835 386 q 799 154 835 244 q 686 18 764 64 q 619 -49 636 -12 q 603 -112 603 -85 q 651 -160 603 -160 q 724 -132 678 -160 l 757 -189 q 690 -240 732 -219 q 608 -260 649 -260 z "},"Ů":{"ha":950,"x_min":4,"x_max":946,"o":"m 369 1018 q 406 1109 369 1071 q 518 1147 443 1147 q 622 1113 589 1147 q 656 1026 656 1078 q 619 937 656 974 q 508 900 582 900 q 403 933 436 900 q 369 1018 369 967 m 514 969 q 543 979 538 969 q 549 1017 549 989 q 542 1065 549 1056 q 511 1075 536 1075 q 481 1065 488 1075 q 475 1024 475 1056 q 483 978 475 988 q 514 969 490 969 m 4 822 l 4 900 l 415 900 l 415 822 l 313 796 l 313 386 q 331 202 313 264 q 392 118 350 140 q 515 96 435 96 q 625 119 588 96 q 677 204 663 143 q 693 386 692 265 l 696 796 l 586 821 l 586 900 l 946 900 l 946 821 l 835 796 l 835 386 q 752 73 835 171 q 489 -25 669 -25 q 265 15 346 -25 q 150 142 185 54 q 115 386 115 231 l 115 796 l 4 822 z "},"Ũ":{"ha":950,"x_min":4,"x_max":946,"o":"m 4 0 m 4 822 l 4 900 l 415 900 l 415 822 l 313 796 l 313 386 q 331 202 313 264 q 392 118 350 140 q 515 96 435 96 q 623 119 585 96 q 678 206 661 143 q 696 386 696 268 l 696 796 l 586 821 l 586 900 l 946 900 l 946 821 l 835 796 l 835 386 q 802 149 835 239 q 694 17 769 60 q 489 -25 619 -25 q 265 15 346 -25 q 150 142 185 54 q 115 386 115 231 l 115 796 l 4 822 m 575 972 q 539 976 556 972 q 496 988 522 979 l 357 1033 l 258 979 l 204 1031 l 253 1104 q 309 1159 281 1146 q 374 1172 338 1172 q 453 1158 411 1172 l 592 1113 l 692 1165 l 744 1115 l 696 1042 q 639 986 668 1000 q 575 972 610 972 z "},"V":{"ha":864,"x_min":-18,"x_max":896,"o":"m 375 -17 l 76 797 l -18 815 l -18 900 l 413 900 l 413 814 l 303 797 l 303 786 l 471 240 l 475 203 l 482 203 l 488 240 l 669 797 l 554 814 l 554 900 l 896 900 l 896 814 l 804 797 l 528 -17 l 375 -17 z "},"W":{"ha":1401,"x_min":-18,"x_max":1432,"o":"m 314 -17 l 74 797 l -18 815 l -18 900 l 400 900 l 400 814 l 286 797 l 289 783 l 418 242 l 421 208 l 428 208 l 433 242 l 628 900 l 838 900 l 1044 242 l 1047 208 l 1054 208 l 1060 242 l 1193 785 l 1196 797 l 1076 814 l 1076 900 l 1432 900 l 1432 814 l 1343 797 l 1117 -17 l 939 -17 l 719 657 l 714 690 l 707 690 l 704 657 l 492 -17 l 314 -17 z "},"Ẃ":{"ha":1401,"x_min":-18,"x_max":1432,"o":"m 0 0 m 314 -17 l 74 797 l -18 815 l -18 900 l 400 900 l 400 814 l 286 797 l 289 783 l 418 242 l 421 208 l 428 208 l 433 242 l 628 900 l 838 900 l 1044 242 l 1047 208 l 1054 208 l 1060 242 l 1193 785 l 1196 797 l 1076 814 l 1076 900 l 1432 900 l 1432 814 l 1343 797 l 1117 -17 l 939 -17 l 719 657 l 714 690 l 707 690 l 704 657 l 492 -17 l 314 -17 m 596 1001 l 794 1139 q 826 1158 803 1143 q 867 1172 850 1172 q 924 1144 904 1172 q 943 1075 943 1117 q 936 1026 943 1054 l 631 932 l 596 1001 z "},"Ŵ":{"ha":1401,"x_min":-18,"x_max":1432,"o":"m 0 0 m 314 -17 l 74 797 l -18 815 l -18 900 l 400 900 l 400 814 l 286 797 l 289 783 l 418 242 l 421 208 l 428 208 l 433 242 l 628 900 l 838 900 l 1044 242 l 1047 208 l 1054 208 l 1060 242 l 1193 785 l 1196 797 l 1076 814 l 1076 900 l 1432 900 l 1432 814 l 1343 797 l 1117 -17 l 939 -17 l 719 657 l 714 690 l 707 690 l 704 657 l 492 -17 l 314 -17 m 629 1129 q 678 1165 664 1158 q 704 1172 693 1172 q 728 1165 715 1172 q 753 1147 740 1157 q 774 1131 767 1136 l 942 1001 l 899 932 l 693 1018 l 497 932 l 460 989 l 629 1129 z "},"Ẅ":{"ha":1401,"x_min":-18,"x_max":1432,"o":"m 0 0 m 314 -17 l 74 797 l -18 815 l -18 900 l 400 900 l 400 814 l 286 797 l 289 783 l 418 242 l 421 208 l 428 208 l 433 242 l 628 900 l 838 900 l 1044 242 l 1047 208 l 1054 208 l 1060 242 l 1193 785 l 1196 797 l 1076 814 l 1076 900 l 1432 900 l 1432 814 l 1343 797 l 1117 -17 l 939 -17 l 719 657 l 714 690 l 707 690 l 704 657 l 492 -17 l 314 -17 m 525 965 q 456 994 483 965 q 428 1067 428 1022 q 460 1144 428 1111 q 536 1176 492 1176 q 607 1149 579 1176 q 635 1076 635 1122 q 604 998 635 1031 q 525 965 574 965 m 865 965 q 796 994 824 965 q 768 1067 768 1022 q 800 1144 768 1111 q 876 1176 832 1176 q 947 1149 919 1176 q 975 1076 975 1122 q 944 998 975 1031 q 865 965 914 965 z "},"Ẁ":{"ha":1401,"x_min":-18,"x_max":1432,"o":"m 0 0 m 314 -17 l 74 797 l -18 815 l -18 900 l 400 900 l 400 814 l 286 797 l 289 783 l 418 242 l 421 208 l 428 208 l 433 242 l 628 900 l 838 900 l 1044 242 l 1047 208 l 1054 208 l 1060 242 l 1193 785 l 1196 797 l 1076 814 l 1076 900 l 1432 900 l 1432 814 l 1343 797 l 1117 -17 l 939 -17 l 719 657 l 714 690 l 707 690 l 704 657 l 492 -17 l 314 -17 m 465 1026 q 458 1076 458 1054 q 478 1145 458 1118 q 535 1172 497 1172 q 575 1158 551 1172 q 607 1139 599 1143 l 806 1001 l 771 932 l 465 1026 z "},"X":{"ha":861,"x_min":-4,"x_max":896,"o":"m -4 78 l 113 103 l 350 435 l 110 799 l 10 822 l 10 900 l 442 900 l 442 822 l 349 800 l 349 781 l 481 581 l 636 788 l 636 801 l 543 822 l 543 900 l 883 900 l 883 822 l 782 796 l 546 482 l 796 101 l 896 78 l 896 0 l 475 0 l 475 78 l 563 99 l 563 115 l 417 335 l 258 114 l 258 97 l 336 78 l 336 0 l -4 0 l -4 78 z "},"Y":{"ha":851,"x_min":-15,"x_max":878,"o":"m 225 78 l 336 104 l 336 346 l 75 800 l -15 822 l -15 900 l 369 900 l 369 822 l 282 801 l 282 781 l 450 461 l 464 461 l 633 789 l 633 800 l 535 822 l 535 900 l 878 900 l 878 822 l 778 797 l 533 346 l 533 104 l 644 78 l 644 0 l 225 0 l 225 78 z "},"Ý":{"ha":851,"x_min":-15,"x_max":878,"o":"m 278 1001 l 476 1139 q 508 1158 485 1143 q 549 1172 532 1172 q 606 1144 586 1172 q 625 1075 625 1117 q 618 1026 625 1054 l 313 932 l 278 1001 m 225 0 l 225 78 l 336 104 l 336 346 l 75 800 l -15 822 l -15 900 l 369 900 l 369 822 l 282 801 l 282 781 l 450 461 l 464 461 l 633 789 l 633 800 l 535 822 l 535 900 l 878 900 l 878 822 l 778 797 l 533 346 l 533 104 l 644 78 l 644 0 l 225 0 z "},"Ŷ":{"ha":851,"x_min":-15,"x_max":878,"o":"m 0 0 m 225 78 l 336 104 l 336 346 l 75 800 l -15 822 l -15 900 l 369 900 l 369 822 l 282 801 l 282 781 l 450 461 l 464 461 l 633 789 l 633 800 l 535 822 l 535 900 l 878 900 l 878 822 l 778 797 l 533 346 l 533 104 l 644 78 l 644 0 l 225 0 l 225 78 m 381 1129 q 430 1165 415 1158 q 456 1172 444 1172 q 479 1165 467 1172 q 505 1147 492 1157 q 525 1131 518 1136 l 693 1001 l 650 932 l 444 1018 l 249 932 l 211 989 l 381 1129 z "},"Ÿ":{"ha":851,"x_min":-15,"x_max":878,"o":"m 254 965 q 185 994 213 965 q 157 1067 157 1022 q 189 1144 157 1111 q 265 1176 221 1176 q 336 1149 308 1176 q 364 1076 364 1122 q 333 998 364 1031 q 254 965 303 965 m 594 965 q 525 994 553 965 q 497 1067 497 1022 q 529 1144 497 1111 q 606 1176 561 1176 q 676 1149 649 1176 q 704 1076 704 1122 q 674 998 704 1031 q 594 965 643 965 m 225 78 l 336 104 l 336 346 l 75 800 l -15 822 l -15 900 l 369 900 l 369 822 l 282 801 l 282 781 l 450 461 l 464 461 l 633 789 l 633 800 l 535 822 l 535 900 l 878 900 l 878 822 l 778 797 l 533 346 l 533 104 l 644 78 l 644 0 l 225 0 l 225 78 z "},"Ỵ":{"ha":851,"x_min":-15,"x_max":878,"o":"m 0 0 m 225 78 l 336 104 l 336 346 l 75 800 l -15 822 l -15 900 l 369 900 l 369 822 l 282 801 l 282 781 l 450 461 l 464 461 l 633 789 l 633 800 l 535 822 l 535 900 l 878 900 l 878 822 l 778 797 l 533 346 l 533 104 l 644 78 l 644 0 l 225 0 l 225 78 m 428 -286 q 351 -255 382 -286 q 321 -175 321 -224 q 356 -91 321 -126 q 439 -56 390 -56 q 517 -85 486 -56 q 547 -164 547 -114 q 514 -250 547 -214 q 428 -286 481 -286 z "},"Ỳ":{"ha":851,"x_min":-15,"x_max":878,"o":"m 0 0 m 225 78 l 336 104 l 336 346 l 75 800 l -15 822 l -15 900 l 369 900 l 369 822 l 282 801 l 282 781 l 450 461 l 464 461 l 633 789 l 633 800 l 535 822 l 535 900 l 878 900 l 878 822 l 778 797 l 533 346 l 533 104 l 644 78 l 644 0 l 225 0 l 225 78 m 217 1026 q 210 1076 210 1054 q 229 1145 210 1118 q 286 1172 249 1172 q 326 1158 303 1172 q 358 1139 350 1143 l 557 1001 l 522 932 l 217 1026 z "},"Ỷ":{"ha":851,"x_min":-15,"x_max":878,"o":"m 0 0 m 225 78 l 336 104 l 336 346 l 75 800 l -15 822 l -15 900 l 369 900 l 369 822 l 282 801 l 282 781 l 450 461 l 464 461 l 633 789 l 633 800 l 535 822 l 535 900 l 878 900 l 878 822 l 778 797 l 533 346 l 533 104 l 644 78 l 644 0 l 225 0 l 225 78 m 406 932 q 390 969 390 956 q 403 994 390 982 q 446 1022 415 1006 q 472 1041 463 1032 q 481 1065 481 1050 q 468 1088 481 1082 q 428 1094 456 1094 q 353 1083 393 1094 q 326 1139 326 1113 q 436 1188 326 1188 q 569 1159 522 1188 q 617 1078 617 1131 q 549 990 617 1025 q 506 968 514 975 q 501 942 497 961 l 406 932 z "},"Ȳ":{"ha":851,"x_min":-15,"x_max":878,"o":"m 0 0 m 225 78 l 336 104 l 336 346 l 75 800 l -15 822 l -15 900 l 369 900 l 369 822 l 282 801 l 282 781 l 450 461 l 464 461 l 633 789 l 633 800 l 535 822 l 535 900 l 878 900 l 878 822 l 778 797 l 533 346 l 533 104 l 644 78 l 644 0 l 225 0 l 225 78 m 221 1119 l 701 1119 l 683 1004 l 203 1004 l 221 1119 z "},"Ỹ":{"ha":851,"x_min":-15,"x_max":878,"o":"m 0 0 m 225 78 l 336 104 l 336 346 l 75 800 l -15 822 l -15 900 l 369 900 l 369 822 l 282 801 l 282 781 l 450 461 l 464 461 l 633 789 l 633 800 l 535 822 l 535 900 l 878 900 l 878 822 l 778 797 l 533 346 l 533 104 l 644 78 l 644 0 l 225 0 l 225 78 m 553 972 q 517 976 533 972 q 474 988 500 979 l 335 1033 l 236 979 l 182 1031 l 231 1104 q 287 1159 258 1146 q 351 1172 315 1172 q 431 1158 389 1172 l 569 1113 l 669 1165 l 722 1115 l 674 1042 q 617 986 646 1000 q 553 972 588 972 z "},"Z":{"ha":722,"x_min":7,"x_max":713,"o":"m 7 106 l 468 776 l 468 794 l 144 794 l 117 653 l 19 653 l 19 900 l 704 900 l 704 794 l 243 121 l 243 106 l 586 106 l 615 247 l 713 247 l 713 0 l 7 0 l 7 106 z "},"Ź":{"ha":724,"x_min":7,"x_max":714,"o":"m 188 1001 l 386 1139 q 418 1158 394 1143 q 458 1172 442 1172 q 515 1144 496 1172 q 535 1075 535 1117 q 528 1026 535 1054 l 222 932 l 188 1001 m 7 0 l 8 106 l 469 776 l 469 794 l 146 794 l 118 653 l 21 653 l 21 900 l 706 900 l 706 794 l 244 121 l 244 106 l 588 106 l 617 247 l 714 247 l 714 0 l 7 0 z "},"Ž":{"ha":724,"x_min":7,"x_max":714,"o":"m 368 1106 l 531 1210 l 575 1151 l 439 1019 q 387 972 406 986 q 357 958 368 958 q 327 972 346 958 q 275 1019 308 986 l 149 1142 l 208 1210 l 368 1106 m 8 106 l 469 776 l 469 794 l 146 794 l 118 653 l 21 653 l 21 900 l 706 900 l 706 794 l 244 121 l 244 106 l 588 106 l 617 247 l 714 247 l 714 0 l 7 0 l 8 106 z "},"Ż":{"ha":724,"x_min":7,"x_max":714,"o":"m 356 960 q 279 991 310 960 q 249 1071 249 1022 q 283 1155 249 1119 q 367 1190 318 1190 q 444 1161 414 1190 q 475 1082 475 1132 q 442 996 475 1032 q 356 960 408 960 m 8 106 l 469 776 l 469 794 l 146 794 l 118 653 l 21 653 l 21 900 l 706 900 l 706 794 l 244 121 l 244 106 l 588 106 l 617 247 l 714 247 l 714 0 l 7 0 l 8 106 z "},"Ẓ":{"ha":722,"x_min":7,"x_max":713,"o":"m 7 0 m 7 106 l 468 776 l 468 794 l 144 794 l 117 653 l 19 653 l 19 900 l 704 900 l 704 794 l 243 121 l 243 106 l 586 106 l 615 247 l 713 247 l 713 0 l 7 0 l 7 106 m 354 -286 q 278 -255 308 -286 q 247 -175 247 -224 q 282 -91 247 -126 q 365 -56 317 -56 q 443 -85 413 -56 q 474 -164 474 -114 q 440 -250 474 -214 q 354 -286 407 -286 z "},"a":{"ha":722,"x_min":46,"x_max":711,"o":"m 249 -17 q 97 35 147 -17 q 46 164 46 86 q 110 302 46 251 q 278 369 174 353 l 426 394 l 426 486 q 406 566 426 540 q 324 592 385 592 q 278 589 293 592 q 260 585 263 586 l 240 458 q 213 450 235 456 q 167 444 192 444 q 94 463 118 444 q 71 526 71 482 q 119 626 71 585 q 236 687 167 667 q 369 707 306 707 q 551 664 492 707 q 610 518 610 621 l 610 113 l 711 93 l 711 22 q 681 13 704 19 q 624 -1 658 6 q 556 -8 589 -8 q 478 8 501 -8 q 444 57 456 24 l 432 57 q 360 8 407 32 q 249 -17 313 -17 m 344 103 q 426 126 382 103 l 426 299 q 308 276 349 292 q 255 240 268 261 q 242 188 242 219 q 344 103 242 103 z "},"á":{"ha":722,"x_min":46,"x_max":711,"o":"m 222 803 l 356 963 q 394 1001 376 988 q 431 1015 411 1015 q 469 1001 449 1015 q 503 958 489 986 q 517 894 517 931 l 272 743 l 222 803 m 249 -17 q 97 35 147 -17 q 46 164 46 86 q 110 302 46 251 q 278 369 174 353 l 426 394 l 426 486 q 406 566 426 540 q 324 592 385 592 q 278 589 293 592 q 260 585 263 586 l 240 458 q 213 450 235 456 q 167 444 192 444 q 94 463 118 444 q 71 526 71 482 q 119 626 71 585 q 236 687 167 667 q 369 707 306 707 q 551 664 492 707 q 610 518 610 621 l 610 113 l 711 93 l 711 22 q 681 13 704 19 q 624 -1 658 6 q 556 -8 589 -8 q 478 8 501 -8 q 444 57 456 24 l 432 57 q 360 8 407 32 q 249 -17 313 -17 m 344 103 q 426 126 382 103 l 426 299 q 308 276 349 292 q 255 240 268 261 q 242 188 242 219 q 344 103 242 103 z "},"ă":{"ha":722,"x_min":46,"x_max":711,"o":"m 356 764 q 214 807 267 764 q 139 897 161 850 q 117 957 117 944 l 221 999 q 234 965 221 992 q 279 913 247 938 q 364 888 311 888 q 453 913 418 888 q 503 965 488 938 q 519 999 519 993 l 576 975 q 557 910 576 961 q 488 811 538 858 q 356 764 439 764 m 249 -17 q 97 35 147 -17 q 46 164 46 86 q 110 302 46 251 q 278 369 174 353 l 426 394 l 426 486 q 406 566 426 540 q 324 592 385 592 q 278 589 293 592 q 260 585 263 586 l 240 458 q 213 450 235 456 q 167 444 192 444 q 94 463 118 444 q 71 526 71 482 q 119 626 71 585 q 236 687 167 667 q 369 707 306 707 q 551 664 492 707 q 610 518 610 621 l 610 113 l 711 93 l 711 22 q 681 13 704 19 q 624 -1 658 6 q 556 -8 589 -8 q 478 8 501 -8 q 444 57 456 24 l 432 57 q 360 8 407 32 q 249 -17 313 -17 m 344 103 q 426 126 382 103 l 426 299 q 308 276 349 292 q 255 240 268 261 q 242 188 242 219 q 344 103 242 103 z "},"ắ":{"ha":722,"x_min":46,"x_max":711,"o":"m 46 0 m 249 -17 q 97 35 147 -17 q 46 164 46 86 q 110 302 46 251 q 278 369 174 353 l 426 394 l 426 486 q 406 566 426 540 q 324 592 385 592 q 278 589 293 592 q 260 585 263 586 l 240 458 q 213 450 235 456 q 167 444 192 444 q 94 463 118 444 q 71 526 71 482 q 119 626 71 585 q 236 687 167 667 q 369 707 306 707 q 551 664 492 707 q 610 518 610 621 l 610 113 l 711 93 l 711 22 q 681 13 704 19 q 624 -1 658 6 q 556 -8 589 -8 q 478 8 501 -8 q 444 57 456 24 l 432 57 q 360 8 407 32 q 249 -17 313 -17 m 344 103 q 426 126 382 103 l 426 299 q 308 276 349 292 q 255 240 268 261 q 242 188 242 219 q 344 103 242 103 m 233 999 q 247 965 233 992 q 292 913 260 938 q 376 888 324 888 q 465 913 431 888 q 516 965 500 938 q 532 999 532 993 l 589 975 q 569 910 589 961 q 501 811 550 858 q 368 764 451 764 q 226 807 279 764 q 151 897 174 850 q 129 957 129 944 l 233 999 m 432 1178 q 469 1215 451 1201 q 507 1231 488 1229 q 545 1216 525 1231 q 579 1174 565 1201 q 593 1110 593 1146 l 349 958 l 299 1018 l 432 1178 z "},"ặ":{"ha":722,"x_min":46,"x_max":711,"o":"m 46 0 m 249 -17 q 97 35 147 -17 q 46 164 46 86 q 110 302 46 251 q 278 369 174 353 l 426 394 l 426 486 q 406 566 426 540 q 324 592 385 592 q 278 589 293 592 q 260 585 263 586 l 240 458 q 213 450 235 456 q 167 444 192 444 q 94 463 118 444 q 71 526 71 482 q 119 626 71 585 q 236 687 167 667 q 369 707 306 707 q 551 664 492 707 q 610 518 610 621 l 610 113 l 711 93 l 711 22 q 681 13 704 19 q 624 -1 658 6 q 556 -8 589 -8 q 478 8 501 -8 q 444 57 456 24 l 432 57 q 360 8 407 32 q 249 -17 313 -17 m 344 103 q 426 126 382 103 l 426 299 q 308 276 349 292 q 255 240 268 261 q 242 188 242 219 q 344 103 242 103 m 354 -286 q 278 -255 308 -286 q 247 -175 247 -224 q 282 -91 247 -126 q 365 -56 317 -56 q 443 -85 413 -56 q 474 -164 474 -114 q 440 -250 474 -214 q 354 -286 407 -286 m 235 999 q 248 965 235 992 q 293 913 261 938 q 378 888 325 888 q 467 913 432 888 q 517 965 501 938 q 533 999 533 993 l 590 975 q 571 910 590 961 q 502 811 551 858 q 369 764 453 764 q 228 807 281 764 q 153 897 175 850 q 131 957 131 944 l 235 999 z "},"ằ":{"ha":722,"x_min":46,"x_max":711,"o":"m 46 0 m 249 -17 q 97 35 147 -17 q 46 164 46 86 q 110 302 46 251 q 278 369 174 353 l 426 394 l 426 486 q 406 566 426 540 q 324 592 385 592 q 278 589 293 592 q 260 585 263 586 l 240 458 q 213 450 235 456 q 167 444 192 444 q 94 463 118 444 q 71 526 71 482 q 119 626 71 585 q 236 687 167 667 q 369 707 306 707 q 551 664 492 707 q 610 518 610 621 l 610 113 l 711 93 l 711 22 q 681 13 704 19 q 624 -1 658 6 q 556 -8 589 -8 q 478 8 501 -8 q 444 57 456 24 l 432 57 q 360 8 407 32 q 249 -17 313 -17 m 344 103 q 426 126 382 103 l 426 299 q 308 276 349 292 q 255 240 268 261 q 242 188 242 219 q 344 103 242 103 m 235 999 q 248 965 235 992 q 293 913 261 938 q 378 888 325 888 q 467 913 432 888 q 517 965 501 938 q 533 999 533 993 l 590 975 q 571 910 590 961 q 502 811 551 858 q 369 764 453 764 q 228 807 281 764 q 153 897 175 850 q 131 957 131 944 l 235 999 m 161 1110 q 175 1174 161 1146 q 209 1216 189 1201 q 247 1231 229 1231 q 283 1217 265 1231 q 322 1178 300 1203 l 456 1018 l 406 958 l 161 1110 z "},"ẳ":{"ha":722,"x_min":46,"x_max":711,"o":"m 46 0 m 249 -17 q 97 35 147 -17 q 46 164 46 86 q 110 302 46 251 q 278 369 174 353 l 426 394 l 426 486 q 406 566 426 540 q 324 592 385 592 q 278 589 293 592 q 260 585 263 586 l 240 458 q 213 450 235 456 q 167 444 192 444 q 94 463 118 444 q 71 526 71 482 q 119 626 71 585 q 236 687 167 667 q 369 707 306 707 q 551 664 492 707 q 610 518 610 621 l 610 113 l 711 93 l 711 22 q 681 13 704 19 q 624 -1 658 6 q 556 -8 589 -8 q 478 8 501 -8 q 444 57 456 24 l 432 57 q 360 8 407 32 q 249 -17 313 -17 m 344 103 q 426 126 382 103 l 426 299 q 308 276 349 292 q 255 240 268 261 q 242 188 242 219 q 344 103 242 103 m 235 999 q 248 965 235 992 q 293 913 261 938 q 378 888 325 888 q 467 913 432 888 q 517 965 501 938 q 533 999 533 993 l 590 975 q 571 910 590 961 q 502 811 551 858 q 369 764 453 764 q 228 807 281 764 q 153 897 175 850 q 131 957 131 944 l 235 999 m 315 960 q 300 1004 300 988 q 313 1031 300 1018 q 356 1065 325 1044 q 381 1087 372 1076 q 390 1114 390 1097 q 338 1146 390 1146 q 263 1135 303 1146 q 236 1190 236 1164 q 346 1239 236 1239 q 479 1210 432 1239 q 526 1129 526 1182 q 458 1028 526 1068 q 435 1015 451 1024 q 415 999 419 1006 q 410 985 410 993 q 411 971 410 976 l 315 960 z "},"ẵ":{"ha":722,"x_min":46,"x_max":711,"o":"m 144 1158 q 246 1207 178 1207 q 354 1188 285 1207 l 478 1151 l 582 1197 l 631 1157 l 576 1082 q 481 1033 543 1033 q 371 1054 449 1033 l 243 1090 l 139 1044 l 90 1083 l 144 1158 m 232 999 q 245 965 232 992 q 290 913 258 938 q 375 888 322 888 q 464 913 429 888 q 515 965 499 938 q 531 999 531 993 l 588 975 q 568 910 588 961 q 499 811 549 858 q 367 764 450 764 q 225 807 278 764 q 150 897 172 850 q 128 957 128 944 l 232 999 m 249 -17 q 97 35 147 -17 q 46 164 46 86 q 110 302 46 251 q 278 369 174 353 l 426 394 l 426 486 q 406 566 426 540 q 324 592 385 592 q 278 589 293 592 q 260 585 263 586 l 240 458 q 213 450 235 456 q 167 444 192 444 q 94 463 118 444 q 71 526 71 482 q 119 626 71 585 q 236 687 167 667 q 369 707 306 707 q 551 664 492 707 q 610 518 610 621 l 610 113 l 711 93 l 711 22 q 681 13 704 19 q 624 -1 658 6 q 556 -8 589 -8 q 478 8 501 -8 q 444 57 456 24 l 432 57 q 360 8 407 32 q 249 -17 313 -17 m 344 103 q 426 126 382 103 l 426 299 q 308 276 349 292 q 255 240 268 261 q 242 188 242 219 q 344 103 242 103 z "},"ǎ":{"ha":722,"x_min":46,"x_max":711,"o":"m 46 0 m 249 -17 q 97 35 147 -17 q 46 164 46 86 q 110 302 46 251 q 278 369 174 353 l 426 394 l 426 486 q 406 566 426 540 q 324 592 385 592 q 278 589 293 592 q 260 585 263 586 l 240 458 q 213 450 235 456 q 167 444 192 444 q 94 463 118 444 q 71 526 71 482 q 119 626 71 585 q 236 687 167 667 q 369 707 306 707 q 551 664 492 707 q 610 518 610 621 l 610 113 l 711 93 l 711 22 q 681 13 704 19 q 624 -1 658 6 q 556 -8 589 -8 q 478 8 501 -8 q 444 57 456 24 l 432 57 q 360 8 407 32 q 249 -17 313 -17 m 344 103 q 426 126 382 103 l 426 299 q 308 276 349 292 q 255 240 268 261 q 242 188 242 219 q 344 103 242 103 m 356 747 q 326 761 344 747 q 274 808 307 775 l 147 931 l 207 999 l 367 894 l 529 999 l 574 940 l 438 808 q 385 761 404 775 q 356 747 367 747 z "},"â":{"ha":722,"x_min":46,"x_max":711,"o":"m 343 847 l 181 749 l 136 807 l 276 951 q 318 988 300 975 q 354 1000 336 1000 q 417 963 379 1000 l 567 813 l 511 747 l 343 847 m 249 -17 q 97 35 147 -17 q 46 164 46 86 q 110 302 46 251 q 278 369 174 353 l 426 394 l 426 486 q 406 566 426 540 q 324 592 385 592 q 278 589 293 592 q 260 585 263 586 l 240 458 q 213 450 235 456 q 167 444 192 444 q 94 463 118 444 q 71 526 71 482 q 119 626 71 585 q 236 687 167 667 q 369 707 306 707 q 551 664 492 707 q 610 518 610 621 l 610 113 l 711 93 l 711 22 q 681 13 704 19 q 624 -1 658 6 q 556 -8 589 -8 q 478 8 501 -8 q 444 57 456 24 l 432 57 q 360 8 407 32 q 249 -17 313 -17 m 344 103 q 426 126 382 103 l 426 299 q 308 276 349 292 q 255 240 268 261 q 242 188 242 219 q 344 103 242 103 z "},"ấ":{"ha":722,"x_min":46,"x_max":717,"o":"m 46 0 m 249 -17 q 97 35 147 -17 q 46 164 46 86 q 110 302 46 251 q 278 369 174 353 l 426 394 l 426 486 q 406 566 426 540 q 324 592 385 592 q 278 589 293 592 q 260 585 263 586 l 240 458 q 213 450 235 456 q 167 444 192 444 q 94 463 118 444 q 71 526 71 482 q 119 626 71 585 q 236 687 167 667 q 369 707 306 707 q 551 664 492 707 q 610 518 610 621 l 610 113 l 711 93 l 711 22 q 681 13 704 19 q 624 -1 658 6 q 556 -8 589 -8 q 478 8 501 -8 q 444 57 456 24 l 432 57 q 360 8 407 32 q 249 -17 313 -17 m 344 103 q 426 126 382 103 l 426 299 q 308 276 349 292 q 255 240 268 261 q 242 188 242 219 q 344 103 242 103 m 256 951 q 297 988 279 975 q 333 1000 315 1000 q 396 963 358 1000 l 546 813 l 490 747 l 322 847 l 160 749 l 115 807 l 256 951 m 556 1165 q 593 1203 575 1189 q 631 1218 611 1217 q 669 1203 649 1218 q 703 1161 689 1189 q 717 1097 717 1133 l 472 946 l 422 1006 l 556 1165 z "},"ậ":{"ha":722,"x_min":46,"x_max":711,"o":"m 46 0 m 249 -17 q 97 35 147 -17 q 46 164 46 86 q 110 302 46 251 q 278 369 174 353 l 426 394 l 426 486 q 406 566 426 540 q 324 592 385 592 q 278 589 293 592 q 260 585 263 586 l 240 458 q 213 450 235 456 q 167 444 192 444 q 94 463 118 444 q 71 526 71 482 q 119 626 71 585 q 236 687 167 667 q 369 707 306 707 q 551 664 492 707 q 610 518 610 621 l 610 113 l 711 93 l 711 22 q 681 13 704 19 q 624 -1 658 6 q 556 -8 589 -8 q 478 8 501 -8 q 444 57 456 24 l 432 57 q 360 8 407 32 q 249 -17 313 -17 m 344 103 q 426 126 382 103 l 426 299 q 308 276 349 292 q 255 240 268 261 q 242 188 242 219 q 344 103 242 103 m 354 -286 q 278 -255 308 -286 q 247 -175 247 -224 q 282 -91 247 -126 q 365 -56 317 -56 q 443 -85 413 -56 q 474 -164 474 -114 q 440 -250 474 -214 q 354 -286 407 -286 m 286 951 q 328 988 310 975 q 364 1000 346 1000 q 426 963 389 1000 l 576 813 l 521 747 l 353 847 l 190 749 l 146 807 l 286 951 z "},"ầ":{"ha":722,"x_min":46,"x_max":711,"o":"m 46 0 m 249 -17 q 97 35 147 -17 q 46 164 46 86 q 110 302 46 251 q 278 369 174 353 l 426 394 l 426 486 q 406 566 426 540 q 324 592 385 592 q 278 589 293 592 q 260 585 263 586 l 240 458 q 213 450 235 456 q 167 444 192 444 q 94 463 118 444 q 71 526 71 482 q 119 626 71 585 q 236 687 167 667 q 369 707 306 707 q 551 664 492 707 q 610 518 610 621 l 610 113 l 711 93 l 711 22 q 681 13 704 19 q 624 -1 658 6 q 556 -8 589 -8 q 478 8 501 -8 q 444 57 456 24 l 432 57 q 360 8 407 32 q 249 -17 313 -17 m 344 103 q 426 126 382 103 l 426 299 q 308 276 349 292 q 255 240 268 261 q 242 188 242 219 q 344 103 242 103 m 267 951 q 308 988 290 975 q 344 1000 326 1000 q 407 963 369 1000 l 557 813 l 501 747 l 333 847 l 171 749 l 126 807 l 267 951 m 300 1097 q 314 1161 300 1133 q 348 1203 328 1189 q 386 1218 368 1218 q 422 1204 404 1218 q 461 1165 439 1190 l 594 1006 l 544 946 l 300 1097 z "},"ẩ":{"ha":722,"x_min":46,"x_max":711,"o":"m 46 0 m 249 -17 q 97 35 147 -17 q 46 164 46 86 q 110 302 46 251 q 278 369 174 353 l 426 394 l 426 486 q 406 566 426 540 q 324 592 385 592 q 278 589 293 592 q 260 585 263 586 l 240 458 q 213 450 235 456 q 167 444 192 444 q 94 463 118 444 q 71 526 71 482 q 119 626 71 585 q 236 687 167 667 q 369 707 306 707 q 551 664 492 707 q 610 518 610 621 l 610 113 l 711 93 l 711 22 q 681 13 704 19 q 624 -1 658 6 q 556 -8 589 -8 q 478 8 501 -8 q 444 57 456 24 l 432 57 q 360 8 407 32 q 249 -17 313 -17 m 344 103 q 426 126 382 103 l 426 299 q 308 276 349 292 q 255 240 268 261 q 242 188 242 219 q 344 103 242 103 m 249 951 q 290 988 272 975 q 326 1000 308 1000 q 389 963 351 1000 l 539 813 l 483 747 l 315 847 l 153 749 l 108 807 l 249 951 m 458 947 q 443 992 443 975 q 456 1019 443 1006 q 499 1053 468 1032 q 524 1074 515 1064 q 533 1101 533 1085 q 481 1133 533 1133 q 406 1122 446 1133 q 379 1178 379 1151 q 489 1226 379 1226 q 622 1198 575 1226 q 669 1117 669 1169 q 601 1015 669 1056 q 578 1002 594 1011 q 558 987 563 993 q 553 972 553 981 q 554 958 553 964 l 458 947 z "},"ẫ":{"ha":722,"x_min":46,"x_max":711,"o":"m 144 1161 q 246 1210 178 1210 q 354 1190 285 1210 l 478 1154 l 582 1200 l 631 1160 l 576 1085 q 481 1036 543 1036 q 371 1057 449 1036 l 243 1093 l 139 1047 l 90 1086 l 144 1161 m 283 951 q 325 988 307 975 q 361 1000 343 1000 q 424 963 386 1000 l 574 813 l 518 747 l 350 847 l 188 749 l 143 807 l 283 951 m 249 -17 q 97 35 147 -17 q 46 164 46 86 q 110 302 46 251 q 278 369 174 353 l 426 394 l 426 486 q 406 566 426 540 q 324 592 385 592 q 278 589 293 592 q 260 585 263 586 l 240 458 q 213 450 235 456 q 167 444 192 444 q 94 463 118 444 q 71 526 71 482 q 119 626 71 585 q 236 687 167 667 q 369 707 306 707 q 551 664 492 707 q 610 518 610 621 l 610 113 l 711 93 l 711 22 q 681 13 704 19 q 624 -1 658 6 q 556 -8 589 -8 q 478 8 501 -8 q 444 57 456 24 l 432 57 q 360 8 407 32 q 249 -17 313 -17 m 344 103 q 426 126 382 103 l 426 299 q 308 276 349 292 q 255 240 268 261 q 242 188 242 219 q 344 103 242 103 z "},"ȁ":{"ha":722,"x_min":46,"x_max":711,"o":"m 46 0 m 249 -17 q 97 35 147 -17 q 46 164 46 86 q 110 302 46 251 q 278 369 174 353 l 426 394 l 426 486 q 406 566 426 540 q 324 592 385 592 q 278 589 293 592 q 260 585 263 586 l 240 458 q 213 450 235 456 q 167 444 192 444 q 94 463 118 444 q 71 526 71 482 q 119 626 71 585 q 236 687 167 667 q 369 707 306 707 q 551 664 492 707 q 610 518 610 621 l 610 113 l 711 93 l 711 22 q 681 13 704 19 q 624 -1 658 6 q 556 -8 589 -8 q 478 8 501 -8 q 444 57 456 24 l 432 57 q 360 8 407 32 q 249 -17 313 -17 m 344 103 q 426 126 382 103 l 426 299 q 308 276 349 292 q 255 240 268 261 q 242 188 242 219 q 344 103 242 103 m 326 781 l 258 736 l 72 949 q 117 1008 89 986 q 168 1029 144 1029 q 207 1014 193 1029 q 236 967 221 999 l 326 781 m 567 781 l 499 736 l 313 949 q 357 1008 329 986 q 408 1029 385 1029 q 447 1014 433 1029 q 476 967 461 999 l 567 781 z "},"ä":{"ha":722,"x_min":46,"x_max":711,"o":"m 185 779 q 115 808 143 779 q 88 881 88 836 q 119 958 88 925 q 196 990 151 990 q 267 963 239 990 q 294 890 294 936 q 264 812 294 844 q 185 779 233 779 m 497 779 q 428 808 456 779 q 400 881 400 836 q 432 958 400 925 q 508 990 464 990 q 579 963 551 990 q 607 890 607 936 q 576 812 607 844 q 497 779 546 779 m 249 -17 q 97 35 147 -17 q 46 164 46 86 q 110 302 46 251 q 278 369 174 353 l 426 394 l 426 486 q 406 566 426 540 q 324 592 385 592 q 278 589 293 592 q 260 585 263 586 l 240 458 q 213 450 235 456 q 167 444 192 444 q 94 463 118 444 q 71 526 71 482 q 119 626 71 585 q 236 687 167 667 q 369 707 306 707 q 551 664 492 707 q 610 518 610 621 l 610 113 l 711 93 l 711 22 q 681 13 704 19 q 624 -1 658 6 q 556 -8 589 -8 q 478 8 501 -8 q 444 57 456 24 l 432 57 q 360 8 407 32 q 249 -17 313 -17 m 344 103 q 426 126 382 103 l 426 299 q 308 276 349 292 q 255 240 268 261 q 242 188 242 219 q 344 103 242 103 z "},"ạ":{"ha":722,"x_min":46,"x_max":711,"o":"m 46 0 m 249 -17 q 97 35 147 -17 q 46 164 46 86 q 110 302 46 251 q 278 369 174 353 l 426 394 l 426 486 q 406 566 426 540 q 324 592 385 592 q 278 589 293 592 q 260 585 263 586 l 240 458 q 213 450 235 456 q 167 444 192 444 q 94 463 118 444 q 71 526 71 482 q 119 626 71 585 q 236 687 167 667 q 369 707 306 707 q 551 664 492 707 q 610 518 610 621 l 610 113 l 711 93 l 711 22 q 681 13 704 19 q 624 -1 658 6 q 556 -8 589 -8 q 478 8 501 -8 q 444 57 456 24 l 432 57 q 360 8 407 32 q 249 -17 313 -17 m 344 103 q 426 126 382 103 l 426 299 q 308 276 349 292 q 255 240 268 261 q 242 188 242 219 q 344 103 242 103 m 354 -286 q 278 -255 308 -286 q 247 -175 247 -224 q 282 -91 247 -126 q 365 -56 317 -56 q 443 -85 413 -56 q 474 -164 474 -114 q 440 -250 474 -214 q 354 -286 407 -286 z "},"à":{"ha":722,"x_min":46,"x_max":711,"o":"m 199 894 q 213 958 199 931 q 247 1001 226 986 q 285 1015 267 1015 q 320 1001 303 1015 q 360 963 338 988 l 493 803 l 443 743 l 199 894 m 249 -17 q 97 35 147 -17 q 46 164 46 86 q 110 302 46 251 q 278 369 174 353 l 426 394 l 426 486 q 406 566 426 540 q 324 592 385 592 q 278 589 293 592 q 260 585 263 586 l 240 458 q 213 450 235 456 q 167 444 192 444 q 94 463 118 444 q 71 526 71 482 q 119 626 71 585 q 236 687 167 667 q 369 707 306 707 q 551 664 492 707 q 610 518 610 621 l 610 113 l 711 93 l 711 22 q 681 13 704 19 q 624 -1 658 6 q 556 -8 589 -8 q 478 8 501 -8 q 444 57 456 24 l 432 57 q 360 8 407 32 q 249 -17 313 -17 m 344 103 q 426 126 382 103 l 426 299 q 308 276 349 292 q 255 240 268 261 q 242 188 242 219 q 344 103 242 103 z "},"ả":{"ha":722,"x_min":46,"x_max":711,"o":"m 46 0 m 249 -17 q 97 35 147 -17 q 46 164 46 86 q 110 302 46 251 q 278 369 174 353 l 426 394 l 426 486 q 406 566 426 540 q 324 592 385 592 q 278 589 293 592 q 260 585 263 586 l 240 458 q 213 450 235 456 q 167 444 192 444 q 94 463 118 444 q 71 526 71 482 q 119 626 71 585 q 236 687 167 667 q 369 707 306 707 q 551 664 492 707 q 610 518 610 621 l 610 113 l 711 93 l 711 22 q 681 13 704 19 q 624 -1 658 6 q 556 -8 589 -8 q 478 8 501 -8 q 444 57 456 24 l 432 57 q 360 8 407 32 q 249 -17 313 -17 m 344 103 q 426 126 382 103 l 426 299 q 308 276 349 292 q 255 240 268 261 q 242 188 242 219 q 344 103 242 103 m 313 744 q 297 789 297 772 q 310 816 297 803 q 353 850 322 829 q 378 872 369 861 q 388 899 388 882 q 335 931 388 931 q 260 919 300 931 q 233 975 233 949 q 343 1024 233 1024 q 476 995 429 1024 q 524 914 524 967 q 456 813 524 853 q 433 799 449 808 q 412 784 417 790 q 407 769 407 778 q 408 756 407 761 l 313 744 z "},"ȃ":{"ha":722,"x_min":46,"x_max":711,"o":"m 46 0 m 249 -17 q 97 35 147 -17 q 46 164 46 86 q 110 302 46 251 q 278 369 174 353 l 426 394 l 426 486 q 406 566 426 540 q 324 592 385 592 q 278 589 293 592 q 260 585 263 586 l 240 458 q 213 450 235 456 q 167 444 192 444 q 94 463 118 444 q 71 526 71 482 q 119 626 71 585 q 236 687 167 667 q 369 707 306 707 q 551 664 492 707 q 610 518 610 621 l 610 113 l 711 93 l 711 22 q 681 13 704 19 q 624 -1 658 6 q 556 -8 589 -8 q 478 8 501 -8 q 444 57 456 24 l 432 57 q 360 8 407 32 q 249 -17 313 -17 m 344 103 q 426 126 382 103 l 426 299 q 308 276 349 292 q 255 240 268 261 q 242 188 242 219 q 344 103 242 103 m 486 764 q 473 798 486 771 q 428 850 460 825 q 343 875 396 875 q 254 850 289 875 q 203 797 219 825 q 188 764 188 769 l 131 788 q 150 853 131 801 q 219 951 169 904 q 351 999 268 999 q 493 956 440 999 q 568 865 546 913 q 590 806 590 818 l 486 764 z "},"ā":{"ha":722,"x_min":46,"x_max":711,"o":"m 97 814 l 115 929 l 596 929 l 578 814 l 97 814 m 249 -17 q 97 35 147 -17 q 46 164 46 86 q 110 302 46 251 q 278 369 174 353 l 426 394 l 426 486 q 406 566 426 540 q 324 592 385 592 q 278 589 293 592 q 260 585 263 586 l 240 458 q 213 450 235 456 q 167 444 192 444 q 94 463 118 444 q 71 526 71 482 q 119 626 71 585 q 236 687 167 667 q 369 707 306 707 q 551 664 492 707 q 610 518 610 621 l 610 113 l 711 93 l 711 22 q 681 13 704 19 q 624 -1 658 6 q 556 -8 589 -8 q 478 8 501 -8 q 444 57 456 24 l 432 57 q 360 8 407 32 q 249 -17 313 -17 m 344 103 q 426 126 382 103 l 426 299 q 308 276 349 292 q 255 240 268 261 q 242 188 242 219 q 344 103 242 103 z "},"ą":{"ha":722,"x_min":46,"x_max":711,"o":"m 563 -260 q 465 -233 501 -260 q 428 -157 428 -207 q 454 -73 428 -111 q 522 -7 481 -35 q 470 13 486 -1 q 444 57 454 28 l 432 57 q 360 8 407 32 q 249 -17 313 -17 q 97 35 147 -17 q 46 164 46 86 q 110 302 46 251 q 278 369 174 353 l 426 394 l 426 486 q 406 566 426 540 q 324 592 385 592 q 278 589 293 592 q 260 585 263 586 l 240 458 q 213 450 235 456 q 167 444 192 444 q 94 463 118 444 q 71 526 71 482 q 119 626 71 585 q 236 687 167 667 q 369 707 306 707 q 551 664 492 707 q 610 518 610 621 l 610 113 l 711 93 l 711 22 q 679 12 704 19 q 625 -1 654 4 q 557 -112 557 -60 q 606 -160 557 -160 q 678 -132 632 -160 l 711 -189 q 690 -210 711 -192 q 636 -244 669 -228 q 563 -260 603 -260 m 344 103 q 426 126 382 103 l 426 299 q 308 276 349 292 q 255 240 268 261 q 242 188 242 219 q 344 103 242 103 z "},"å":{"ha":722,"x_min":46,"x_max":711,"o":"m 342 779 q 233 812 267 779 q 199 901 199 844 q 237 997 199 958 q 351 1035 275 1035 q 459 1001 425 1035 q 493 910 493 967 q 455 816 493 853 q 342 779 417 779 m 347 846 q 381 859 371 846 q 390 907 390 872 q 380 954 390 943 q 344 965 369 965 q 311 953 321 965 q 301 907 301 940 q 312 858 301 869 q 347 846 322 846 m 249 -17 q 97 35 147 -17 q 46 164 46 86 q 110 302 46 251 q 278 369 174 353 l 426 394 l 426 486 q 406 566 426 540 q 324 592 385 592 q 278 589 293 592 q 260 585 263 586 l 240 458 q 213 450 235 456 q 167 444 192 444 q 94 463 118 444 q 71 526 71 482 q 119 626 71 585 q 236 687 167 667 q 369 707 306 707 q 551 664 492 707 q 610 518 610 621 l 610 113 l 711 93 l 711 22 q 681 13 704 19 q 624 -1 658 6 q 556 -8 589 -8 q 478 8 501 -8 q 444 57 456 24 l 432 57 q 360 8 407 32 q 249 -17 313 -17 m 344 103 q 426 126 382 103 l 426 299 q 308 276 349 292 q 255 240 268 261 q 242 188 242 219 q 344 103 242 103 z "},"ǻ":{"ha":722,"x_min":46,"x_max":711,"o":"m 46 0 m 249 -17 q 97 35 147 -17 q 46 164 46 86 q 110 302 46 251 q 278 369 174 353 l 426 394 l 426 486 q 406 566 426 540 q 324 592 385 592 q 278 589 293 592 q 260 585 263 586 l 240 458 q 213 450 235 456 q 167 444 192 444 q 94 463 118 444 q 71 526 71 482 q 119 626 71 585 q 236 687 167 667 q 369 707 306 707 q 551 664 492 707 q 610 518 610 621 l 610 113 l 711 93 l 711 22 q 681 13 704 19 q 624 -1 658 6 q 556 -8 589 -8 q 478 8 501 -8 q 444 57 456 24 l 432 57 q 360 8 407 32 q 249 -17 313 -17 m 344 103 q 426 126 382 103 l 426 299 q 308 276 349 292 q 255 240 268 261 q 242 188 242 219 q 344 103 242 103 m 214 901 q 252 997 214 958 q 367 1035 290 1035 q 474 1001 439 1035 q 508 910 508 967 q 470 816 508 853 q 357 779 432 779 q 248 812 282 779 q 214 901 214 844 m 363 846 q 396 859 386 846 q 406 907 406 872 q 395 954 406 943 q 360 965 385 965 q 326 953 336 965 q 317 907 317 940 q 327 858 317 869 q 363 846 338 846 m 433 1311 q 471 1349 453 1335 q 508 1364 489 1363 q 547 1349 526 1364 q 581 1307 567 1335 q 594 1243 594 1279 l 350 1092 l 300 1151 l 433 1311 z "},"ã":{"ha":722,"x_min":46,"x_max":711,"o":"m 471 782 q 419 790 449 782 q 361 806 389 797 l 233 847 l 129 794 l 81 840 l 135 926 q 236 982 168 982 q 344 960 275 982 l 468 918 l 572 971 l 621 925 l 567 838 q 471 782 533 782 m 249 -17 q 97 35 147 -17 q 46 164 46 86 q 110 302 46 251 q 278 369 174 353 l 426 394 l 426 486 q 406 566 426 540 q 324 592 385 592 q 278 589 293 592 q 260 585 263 586 l 240 458 q 213 450 235 456 q 167 444 192 444 q 94 463 118 444 q 71 526 71 482 q 119 626 71 585 q 236 687 167 667 q 369 707 306 707 q 551 664 492 707 q 610 518 610 621 l 610 113 l 711 93 l 711 22 q 681 13 704 19 q 624 -1 658 6 q 556 -8 589 -8 q 478 8 501 -8 q 444 57 456 24 l 432 57 q 360 8 407 32 q 249 -17 313 -17 m 344 103 q 426 126 382 103 l 426 299 q 308 276 349 292 q 255 240 268 261 q 242 188 242 219 q 344 103 242 103 z "},"æ":{"ha":1047,"x_min":46,"x_max":1021,"o":"m 426 486 q 406 566 426 540 q 324 592 385 592 q 278 589 293 592 q 260 585 263 586 l 240 458 q 213 450 235 456 q 167 444 192 444 q 94 463 118 444 q 71 526 71 482 q 119 626 71 585 q 236 687 167 667 q 369 707 306 707 q 564 653 508 707 q 747 707 640 707 q 958 624 896 707 q 1021 428 1021 542 q 1006 335 1021 360 q 956 311 990 311 l 615 311 q 657 156 617 206 q 799 106 697 106 q 890 113 850 106 q 951 128 929 121 q 978 139 972 136 l 1004 81 q 968 52 1004 78 q 876 5 932 26 q 753 -17 819 -17 q 603 3 665 -17 q 503 65 542 22 q 407 10 471 38 q 249 -17 343 -17 q 97 35 147 -17 q 46 164 46 86 q 114 315 46 265 q 290 374 182 364 l 426 385 l 426 486 m 836 415 q 840 457 840 440 q 823 562 840 532 q 749 592 806 592 q 656 542 682 592 q 626 399 631 492 l 836 415 m 426 299 q 306 281 346 293 q 254 247 267 268 q 242 188 242 226 q 344 103 242 103 q 426 122 383 103 l 426 299 z "},"ǽ":{"ha":1047,"x_min":46,"x_max":1021,"o":"m 46 0 m 426 486 q 406 566 426 540 q 324 592 385 592 q 278 589 293 592 q 260 585 263 586 l 240 458 q 213 450 235 456 q 167 444 192 444 q 94 463 118 444 q 71 526 71 482 q 119 626 71 585 q 236 687 167 667 q 369 707 306 707 q 564 653 508 707 q 747 707 640 707 q 958 624 896 707 q 1021 428 1021 542 q 1006 335 1021 360 q 956 311 990 311 l 615 311 q 657 156 617 206 q 799 106 697 106 q 890 113 850 106 q 951 128 929 121 q 978 139 972 136 l 1004 81 q 968 52 1004 78 q 876 5 932 26 q 753 -17 819 -17 q 603 3 665 -17 q 503 65 542 22 q 407 10 471 38 q 249 -17 343 -17 q 97 35 147 -17 q 46 164 46 86 q 114 315 46 265 q 290 374 182 364 l 426 385 l 426 486 m 836 415 q 840 457 840 440 q 823 562 840 532 q 749 592 806 592 q 656 542 682 592 q 626 399 631 492 l 836 415 m 426 299 q 306 281 346 293 q 254 247 267 268 q 242 188 242 226 q 344 103 242 103 q 426 122 383 103 l 426 299 m 593 963 q 631 1000 613 986 q 668 1015 649 1014 q 706 1001 686 1015 q 740 958 726 986 q 754 894 754 931 l 510 743 l 460 803 l 593 963 z "},"b":{"ha":754,"x_min":-21,"x_max":713,"o":"m 408 -11 q 253 43 311 -11 l 238 43 l 183 0 l 92 0 l 92 836 l -21 858 l -21 939 l 224 971 l 275 951 l 275 654 l 263 642 l 267 635 q 349 683 299 660 q 469 707 400 707 q 646 633 579 707 q 713 400 713 558 q 669 172 713 265 q 557 34 626 79 q 408 -11 488 -11 m 361 96 q 478 153 442 96 q 515 353 515 210 q 483 534 515 483 q 379 585 451 585 q 275 565 325 585 l 275 110 q 361 96 311 96 z "},"c":{"ha":631,"x_min":28,"x_max":603,"o":"m 588 69 q 556 44 588 67 q 471 3 524 22 q 351 -17 418 -17 q 106 67 183 -17 q 28 329 28 150 q 76 547 28 463 q 199 669 124 632 q 357 707 274 707 q 533 657 463 707 q 603 525 603 607 q 580 460 603 483 q 492 438 557 438 q 463 442 478 438 q 443 447 447 446 l 418 585 q 398 589 414 586 q 361 592 382 592 q 281 573 310 592 q 238 506 251 554 q 225 368 225 458 q 240 213 225 268 q 295 132 254 158 q 415 106 336 106 q 487 110 454 106 q 539 121 519 115 q 563 128 558 126 l 588 69 z "},"ć":{"ha":619,"x_min":35,"x_max":610,"o":"m 340 963 q 378 1001 361 988 q 415 1015 396 1015 q 453 1001 433 1015 q 488 958 474 986 q 501 894 501 931 l 257 743 l 207 803 l 340 963 m 594 69 q 563 44 594 67 q 478 3 531 22 q 358 -17 425 -17 q 113 67 190 -17 q 35 329 35 150 q 83 547 35 463 q 206 669 131 632 q 364 707 281 707 q 540 657 469 707 q 610 525 610 607 q 587 460 610 483 q 499 438 564 438 q 469 442 485 438 q 450 447 454 446 l 425 585 q 405 589 421 586 q 368 592 389 592 q 288 573 317 592 q 245 506 258 554 q 232 368 232 458 q 247 213 232 268 q 302 132 261 158 q 422 106 343 106 q 494 110 461 106 q 546 121 526 115 q 569 128 565 126 l 594 69 z "},"č":{"ha":619,"x_min":35,"x_max":610,"o":"m 343 747 q 313 761 332 747 q 261 808 294 775 l 135 931 l 194 999 l 354 894 l 517 999 l 561 940 l 425 808 q 373 761 392 775 q 343 747 354 747 m 358 -17 q 113 67 190 -17 q 35 329 35 150 q 83 547 35 463 q 206 669 131 632 q 364 707 281 707 q 540 657 469 707 q 610 525 610 607 q 587 460 610 483 q 499 438 564 438 q 469 442 485 438 q 450 447 454 446 l 425 585 q 405 589 421 586 q 368 592 389 592 q 288 573 317 592 q 245 506 258 554 q 232 368 232 458 q 247 213 232 268 q 302 132 261 158 q 422 106 343 106 q 494 110 461 106 q 546 121 526 115 q 569 128 565 126 l 594 69 q 563 44 594 67 q 478 3 531 22 q 358 -17 425 -17 z "},"ç":{"ha":619,"x_min":35,"x_max":610,"o":"m 332 -269 q 268 -263 294 -269 q 215 -243 242 -257 l 243 -178 q 328 -196 285 -196 q 364 -189 351 -196 q 376 -161 376 -182 q 369 -140 376 -147 q 344 -129 361 -132 l 304 -121 l 272 -89 l 306 -14 q 100 81 165 -3 q 35 329 35 165 q 83 547 35 463 q 206 669 131 632 q 364 707 281 707 q 540 657 469 707 q 610 525 610 607 q 587 460 610 483 q 499 438 564 438 q 450 447 476 438 l 425 585 q 368 592 401 592 q 288 573 317 592 q 245 506 258 554 q 232 368 232 458 q 247 213 232 268 q 302 132 261 158 q 422 106 343 106 q 494 110 461 106 q 546 121 526 115 q 569 128 565 126 l 594 69 q 565 46 594 67 q 489 6 536 25 q 381 -15 442 -12 l 381 -42 l 410 -49 q 481 -81 458 -61 q 504 -144 504 -100 q 460 -237 504 -206 q 332 -269 417 -269 z "},"ĉ":{"ha":631,"x_min":28,"x_max":603,"o":"m 28 0 m 588 69 q 556 44 588 67 q 471 3 524 22 q 351 -17 418 -17 q 106 67 183 -17 q 28 329 28 150 q 76 547 28 463 q 199 669 124 632 q 357 707 274 707 q 533 657 463 707 q 603 525 603 607 q 580 460 603 483 q 492 438 557 438 q 463 442 478 438 q 443 447 447 446 l 418 585 q 398 589 414 586 q 361 592 382 592 q 281 573 310 592 q 238 506 251 554 q 225 368 225 458 q 240 213 225 268 q 295 132 254 158 q 415 106 336 106 q 487 110 454 106 q 539 121 519 115 q 563 128 558 126 l 588 69 m 282 951 q 324 988 306 975 q 360 1000 342 1000 q 422 963 385 1000 l 572 813 l 517 747 l 349 847 l 186 749 l 142 807 l 282 951 z "},"ċ":{"ha":631,"x_min":28,"x_max":603,"o":"m 28 0 m 588 69 q 556 44 588 67 q 471 3 524 22 q 351 -17 418 -17 q 106 67 183 -17 q 28 329 28 150 q 76 547 28 463 q 199 669 124 632 q 357 707 274 707 q 533 657 463 707 q 603 525 603 607 q 580 460 603 483 q 492 438 557 438 q 463 442 478 438 q 443 447 447 446 l 418 585 q 398 589 414 586 q 361 592 382 592 q 281 573 310 592 q 238 506 251 554 q 225 368 225 458 q 240 213 225 268 q 295 132 254 158 q 415 106 336 106 q 487 110 454 106 q 539 121 519 115 q 563 128 558 126 l 588 69 m 350 779 q 274 810 304 779 q 243 890 243 842 q 278 974 243 939 q 361 1010 313 1010 q 439 981 408 1010 q 469 901 469 951 q 436 815 469 851 q 350 779 403 779 z "},"d":{"ha":789,"x_min":42,"x_max":775,"o":"m 304 -17 q 111 64 181 -17 q 42 307 42 144 q 84 529 42 439 q 196 663 126 619 q 349 707 265 707 q 486 668 429 707 l 492 672 l 479 685 l 479 836 l 367 868 l 367 949 l 611 971 l 663 951 l 663 124 l 775 101 l 775 21 l 531 -11 l 499 57 l 496 57 q 419 5 467 26 q 304 -17 372 -17 m 374 106 q 479 133 429 106 l 479 576 q 374 592 421 592 q 272 532 304 592 q 239 331 239 472 q 271 154 239 203 q 374 106 303 106 z "},"ð":{"ha":729,"x_min":47,"x_max":714,"o":"m 389 -19 q 128 62 210 -19 q 47 319 47 143 q 90 511 47 433 q 206 627 133 589 q 367 665 278 665 q 431 662 404 665 q 472 654 458 658 q 489 649 486 650 q 422 789 464 742 l 267 710 l 219 804 l 318 854 q 156 875 254 875 l 156 963 q 196 967 164 964 q 272 971 228 971 q 467 929 381 971 l 586 990 l 633 896 l 565 861 q 677 678 640 789 q 714 444 714 568 q 629 85 714 190 q 389 -19 544 -19 m 389 86 q 472 112 444 86 q 507 189 499 138 q 515 335 515 240 q 510 458 515 399 q 504 535 506 518 q 483 540 500 536 q 438 549 465 544 q 378 553 410 553 q 274 488 304 553 q 244 313 244 422 q 276 142 244 199 q 389 86 307 86 z "},"ď":{"ha":806,"x_min":47,"x_max":886,"o":"m 731 751 q 750 821 743 781 q 757 893 757 861 q 750 944 757 919 q 731 983 743 968 q 803 1014 757 1014 q 865 990 843 1014 q 886 938 886 967 q 865 855 886 896 q 818 781 844 814 q 792 751 792 749 l 731 751 m 310 -17 q 117 64 186 -17 q 47 307 47 144 q 90 529 47 439 q 201 663 132 619 q 354 707 271 707 q 492 668 435 707 l 497 672 l 485 685 l 485 836 l 372 868 l 372 949 l 617 971 l 668 951 l 668 124 l 781 101 l 781 21 l 536 -11 l 507 57 l 501 57 q 425 5 472 26 q 310 -17 378 -17 m 379 106 q 485 133 435 106 l 485 576 q 379 592 426 592 q 277 532 310 592 q 244 331 244 472 q 276 154 244 203 q 379 106 308 106 z "},"đ":{"ha":758,"x_min":39,"x_max":772,"o":"m 301 -17 q 108 64 178 -17 q 39 307 39 144 q 81 521 39 435 q 193 648 124 607 q 346 689 263 689 q 483 650 426 689 l 489 654 l 476 667 l 476 754 l 229 754 l 229 861 l 476 861 l 476 879 l 400 910 l 400 951 l 608 971 l 660 951 l 660 861 l 711 861 l 711 754 l 660 754 l 660 124 l 772 101 l 772 21 l 528 -11 l 499 57 l 493 57 q 417 5 464 26 q 301 -17 369 -17 m 371 106 q 476 133 426 106 l 476 558 q 371 574 418 574 q 269 519 301 574 q 236 331 236 465 q 268 154 236 203 q 371 106 300 106 z "},"ḍ":{"ha":789,"x_min":42,"x_max":775,"o":"m 42 0 m 304 -17 q 111 64 181 -17 q 42 307 42 144 q 84 529 42 439 q 196 663 126 619 q 349 707 265 707 q 486 668 429 707 l 492 672 l 479 685 l 479 836 l 367 868 l 367 949 l 611 971 l 663 951 l 663 124 l 775 101 l 775 21 l 531 -11 l 499 57 l 496 57 q 419 5 467 26 q 304 -17 372 -17 m 374 106 q 479 133 429 106 l 479 576 q 374 592 421 592 q 272 532 304 592 q 239 331 239 472 q 271 154 239 203 q 374 106 303 106 m 388 -286 q 311 -255 342 -286 q 281 -175 281 -224 q 315 -91 281 -126 q 399 -56 350 -56 q 476 -85 446 -56 q 507 -164 507 -114 q 474 -250 507 -214 q 388 -286 440 -286 z "},"ǳ":{"ha":1425,"x_min":42,"x_max":1394,"o":"m 42 0 m 304 -17 q 111 64 181 -17 q 42 307 42 144 q 84 529 42 439 q 196 663 126 619 q 349 707 265 707 q 486 668 429 707 l 492 672 l 479 685 l 479 836 l 367 868 l 367 949 l 611 971 l 663 951 l 663 124 l 775 101 l 775 21 l 531 -11 l 499 57 l 496 57 q 419 5 467 26 q 304 -17 372 -17 m 374 106 q 479 133 429 106 l 479 576 q 374 592 421 592 q 272 532 304 592 q 239 331 239 472 q 271 154 239 203 q 374 106 303 106 m 810 0 l 810 111 l 1154 583 l 956 583 l 925 482 l 826 482 l 826 689 l 1378 689 l 1378 578 l 1029 126 l 1014 106 l 1264 106 l 1290 225 l 1394 225 l 1394 0 l 810 0 z "},"ǆ":{"ha":1425,"x_min":42,"x_max":1394,"o":"m 42 0 m 304 -17 q 111 64 181 -17 q 42 307 42 144 q 84 529 42 439 q 196 663 126 619 q 349 707 265 707 q 486 668 429 707 l 492 672 l 479 685 l 479 836 l 367 868 l 367 949 l 611 971 l 663 951 l 663 124 l 775 101 l 775 21 l 531 -11 l 499 57 l 496 57 q 419 5 467 26 q 304 -17 372 -17 m 374 106 q 479 133 429 106 l 479 576 q 374 592 421 592 q 272 532 304 592 q 239 331 239 472 q 271 154 239 203 q 374 106 303 106 m 810 0 l 810 111 l 1154 583 l 956 583 l 925 482 l 826 482 l 826 689 l 1378 689 l 1378 578 l 1029 126 l 1014 106 l 1264 106 l 1290 225 l 1394 225 l 1394 0 l 810 0 m 1099 747 q 1069 761 1088 747 q 1017 808 1050 775 l 890 931 l 950 999 l 1110 894 l 1272 999 l 1317 940 l 1181 808 q 1128 761 1147 775 q 1099 747 1110 747 z "},"e":{"ha":678,"x_min":28,"x_max":631,"o":"m 363 -17 q 111 62 194 -17 q 28 331 28 140 q 69 533 28 449 q 184 663 110 618 q 357 707 258 707 q 568 624 506 707 q 631 428 631 542 q 615 335 631 360 q 565 311 600 311 l 225 311 q 267 156 226 206 q 408 106 307 106 q 499 113 460 106 q 560 128 539 121 q 588 139 582 136 l 614 81 q 578 52 614 78 q 485 5 542 26 q 363 -17 429 -17 m 435 413 q 439 457 439 438 q 422 562 439 532 q 347 592 404 592 q 255 543 281 592 q 225 401 229 494 l 435 413 z "},"é":{"ha":667,"x_min":38,"x_max":640,"o":"m 224 803 l 357 963 q 395 1001 378 988 q 432 1015 413 1015 q 470 1001 450 1015 q 504 958 490 986 q 518 894 518 931 l 274 743 l 224 803 m 372 -17 q 121 62 204 -17 q 38 331 38 140 q 78 533 38 449 q 194 663 119 618 q 367 707 268 707 q 578 624 515 707 q 640 428 640 542 q 625 335 640 360 q 575 311 610 311 l 235 311 q 276 156 236 206 q 418 106 317 106 q 509 113 469 106 q 570 128 549 121 q 597 139 592 136 l 624 81 q 588 52 624 78 q 495 5 551 26 q 372 -17 439 -17 m 444 413 q 449 457 449 438 q 431 562 449 532 q 357 592 414 592 q 265 543 290 592 q 235 401 239 494 l 444 413 z "},"ĕ":{"ha":678,"x_min":28,"x_max":631,"o":"m 28 0 m 363 -17 q 111 62 194 -17 q 28 331 28 140 q 69 533 28 449 q 184 663 110 618 q 357 707 258 707 q 568 624 506 707 q 631 428 631 542 q 615 335 631 360 q 565 311 600 311 l 225 311 q 267 156 226 206 q 408 106 307 106 q 499 113 460 106 q 560 128 539 121 q 588 139 582 136 l 614 81 q 578 52 614 78 q 485 5 542 26 q 363 -17 429 -17 m 435 413 q 439 457 439 438 q 422 562 439 532 q 347 592 404 592 q 255 543 281 592 q 225 401 229 494 l 435 413 m 226 999 q 240 965 226 992 q 285 913 253 938 q 369 888 317 888 q 458 913 424 888 q 509 965 493 938 q 525 999 525 993 l 582 975 q 563 910 582 961 q 494 811 543 858 q 361 764 444 764 q 219 807 272 764 q 144 897 167 850 q 122 957 122 944 l 226 999 z "},"ě":{"ha":667,"x_min":38,"x_max":640,"o":"m 342 747 q 312 761 331 747 q 260 808 293 775 l 133 931 l 193 999 l 353 894 l 515 999 l 560 940 l 424 808 q 372 761 390 775 q 342 747 353 747 m 372 -17 q 121 62 204 -17 q 38 331 38 140 q 78 533 38 449 q 194 663 119 618 q 367 707 268 707 q 578 624 515 707 q 640 428 640 542 q 625 335 640 360 q 575 311 610 311 l 235 311 q 276 156 236 206 q 418 106 317 106 q 509 113 469 106 q 570 128 549 121 q 597 139 592 136 l 624 81 q 588 52 624 78 q 495 5 551 26 q 372 -17 439 -17 m 444 413 q 449 457 449 438 q 431 562 449 532 q 357 592 414 592 q 265 543 290 592 q 235 401 239 494 l 444 413 z "},"ê":{"ha":667,"x_min":38,"x_max":640,"o":"m 342 847 l 179 749 l 135 807 l 275 951 q 317 988 299 975 q 353 1000 335 1000 q 415 963 378 1000 l 565 813 l 510 747 l 342 847 m 372 -17 q 121 62 204 -17 q 38 331 38 140 q 78 533 38 449 q 194 663 119 618 q 367 707 268 707 q 578 624 515 707 q 640 428 640 542 q 625 335 640 360 q 575 311 610 311 l 235 311 q 276 156 236 206 q 418 106 317 106 q 509 113 469 106 q 570 128 549 121 q 597 139 592 136 l 624 81 q 588 52 624 78 q 495 5 551 26 q 372 -17 439 -17 m 444 413 q 449 457 449 438 q 431 562 449 532 q 357 592 414 592 q 265 543 290 592 q 235 401 239 494 l 444 413 z "},"ế":{"ha":678,"x_min":28,"x_max":708,"o":"m 28 0 m 363 -17 q 111 62 194 -17 q 28 331 28 140 q 69 533 28 449 q 184 663 110 618 q 357 707 258 707 q 568 624 506 707 q 631 428 631 542 q 615 335 631 360 q 565 311 600 311 l 225 311 q 267 156 226 206 q 408 106 307 106 q 499 113 460 106 q 560 128 539 121 q 588 139 582 136 l 614 81 q 578 52 614 78 q 485 5 542 26 q 363 -17 429 -17 m 435 413 q 439 457 439 438 q 422 562 439 532 q 347 592 404 592 q 255 543 281 592 q 225 401 229 494 l 435 413 m 247 951 q 289 988 271 975 q 325 1000 307 1000 q 388 963 350 1000 l 538 813 l 482 747 l 314 847 l 151 749 l 107 807 l 247 951 m 547 1165 q 585 1203 567 1189 q 622 1218 603 1217 q 660 1203 640 1218 q 694 1161 681 1189 q 708 1097 708 1133 l 464 946 l 414 1006 l 547 1165 z "},"ệ":{"ha":678,"x_min":28,"x_max":631,"o":"m 28 0 m 363 -17 q 111 62 194 -17 q 28 331 28 140 q 69 533 28 449 q 184 663 110 618 q 357 707 258 707 q 568 624 506 707 q 631 428 631 542 q 615 335 631 360 q 565 311 600 311 l 225 311 q 267 156 226 206 q 408 106 307 106 q 499 113 460 106 q 560 128 539 121 q 588 139 582 136 l 614 81 q 578 52 614 78 q 485 5 542 26 q 363 -17 429 -17 m 435 413 q 439 457 439 438 q 422 562 439 532 q 347 592 404 592 q 255 543 281 592 q 225 401 229 494 l 435 413 m 346 -286 q 269 -255 300 -286 q 239 -175 239 -224 q 274 -91 239 -126 q 357 -56 308 -56 q 435 -85 404 -56 q 465 -164 465 -114 q 432 -250 465 -214 q 346 -286 399 -286 m 278 951 q 319 988 301 975 q 356 1000 338 1000 q 418 963 381 1000 l 568 813 l 513 747 l 344 847 l 182 749 l 138 807 l 278 951 z "},"ề":{"ha":678,"x_min":28,"x_max":631,"o":"m 28 0 m 363 -17 q 111 62 194 -17 q 28 331 28 140 q 69 533 28 449 q 184 663 110 618 q 357 707 258 707 q 568 624 506 707 q 631 428 631 542 q 615 335 631 360 q 565 311 600 311 l 225 311 q 267 156 226 206 q 408 106 307 106 q 499 113 460 106 q 560 128 539 121 q 588 139 582 136 l 614 81 q 578 52 614 78 q 485 5 542 26 q 363 -17 429 -17 m 435 413 q 439 457 439 438 q 422 562 439 532 q 347 592 404 592 q 255 543 281 592 q 225 401 229 494 l 435 413 m 258 951 q 300 988 282 975 q 336 1000 318 1000 q 399 963 361 1000 l 549 813 l 493 747 l 325 847 l 163 749 l 118 807 l 258 951 m 292 1097 q 306 1161 292 1133 q 340 1203 319 1189 q 378 1218 360 1218 q 413 1204 396 1218 q 453 1165 431 1190 l 586 1006 l 536 946 l 292 1097 z "},"ể":{"ha":678,"x_min":28,"x_max":661,"o":"m 28 0 m 363 -17 q 111 62 194 -17 q 28 331 28 140 q 69 533 28 449 q 184 663 110 618 q 357 707 258 707 q 568 624 506 707 q 631 428 631 542 q 615 335 631 360 q 565 311 600 311 l 225 311 q 267 156 226 206 q 408 106 307 106 q 499 113 460 106 q 560 128 539 121 q 588 139 582 136 l 614 81 q 578 52 614 78 q 485 5 542 26 q 363 -17 429 -17 m 435 413 q 439 457 439 438 q 422 562 439 532 q 347 592 404 592 q 255 543 281 592 q 225 401 229 494 l 435 413 m 240 951 q 282 988 264 975 q 318 1000 300 1000 q 381 963 343 1000 l 531 813 l 475 747 l 307 847 l 144 749 l 100 807 l 240 951 m 450 947 q 435 992 435 975 q 447 1019 435 1006 q 490 1053 460 1032 q 516 1074 507 1064 q 525 1101 525 1085 q 472 1133 525 1133 q 397 1122 438 1133 q 371 1178 371 1151 q 481 1226 371 1226 q 614 1198 567 1226 q 661 1117 661 1169 q 593 1015 661 1056 q 570 1002 586 1011 q 549 987 554 993 q 544 972 544 981 q 546 958 544 964 l 450 947 z "},"ễ":{"ha":678,"x_min":28,"x_max":631,"o":"m 136 1161 q 238 1210 169 1210 q 346 1190 276 1210 l 469 1154 l 574 1200 l 622 1160 l 568 1085 q 472 1036 535 1036 q 363 1057 440 1036 l 235 1093 l 131 1047 l 82 1086 l 136 1161 m 275 951 q 317 988 299 975 q 353 1000 335 1000 q 415 963 378 1000 l 565 813 l 510 747 l 342 847 l 179 749 l 135 807 l 275 951 m 363 -17 q 111 62 194 -17 q 28 331 28 140 q 69 533 28 449 q 184 663 110 618 q 357 707 258 707 q 568 624 506 707 q 631 428 631 542 q 615 335 631 360 q 565 311 600 311 l 225 311 q 267 156 226 206 q 408 106 307 106 q 499 113 460 106 q 560 128 539 121 q 588 139 582 136 l 614 81 q 578 52 614 78 q 485 5 542 26 q 363 -17 429 -17 m 435 413 q 439 457 439 438 q 422 562 439 532 q 347 592 404 592 q 255 543 281 592 q 225 401 229 494 l 435 413 z "},"ȅ":{"ha":678,"x_min":28,"x_max":631,"o":"m 28 0 m 363 -17 q 111 62 194 -17 q 28 331 28 140 q 69 533 28 449 q 184 663 110 618 q 357 707 258 707 q 568 624 506 707 q 631 428 631 542 q 615 335 631 360 q 565 311 600 311 l 225 311 q 267 156 226 206 q 408 106 307 106 q 499 113 460 106 q 560 128 539 121 q 588 139 582 136 l 614 81 q 578 52 614 78 q 485 5 542 26 q 363 -17 429 -17 m 435 413 q 439 457 439 438 q 422 562 439 532 q 347 592 404 592 q 255 543 281 592 q 225 401 229 494 l 435 413 m 318 781 l 250 736 l 64 949 q 108 1008 81 986 q 160 1029 136 1029 q 199 1014 185 1029 q 228 967 213 999 l 318 781 m 558 781 l 490 736 l 304 949 q 349 1008 321 986 q 400 1029 376 1029 q 439 1014 425 1029 q 468 967 453 999 l 558 781 z "},"ë":{"ha":667,"x_min":38,"x_max":640,"o":"m 188 779 q 118 808 146 779 q 90 881 90 836 q 122 958 90 925 q 199 990 154 990 q 269 963 242 990 q 297 890 297 936 q 267 812 297 844 q 188 779 236 779 m 500 779 q 431 808 458 779 q 403 881 403 836 q 435 958 403 925 q 511 990 467 990 q 582 963 554 990 q 610 890 610 936 q 579 812 610 844 q 500 779 549 779 m 372 -17 q 121 62 204 -17 q 38 331 38 140 q 78 533 38 449 q 194 663 119 618 q 367 707 268 707 q 578 624 515 707 q 640 428 640 542 q 625 335 640 360 q 575 311 610 311 l 235 311 q 276 156 236 206 q 418 106 317 106 q 509 113 469 106 q 570 128 549 121 q 597 139 592 136 l 624 81 q 588 52 624 78 q 495 5 551 26 q 372 -17 439 -17 m 444 413 q 449 457 449 438 q 431 562 449 532 q 357 592 414 592 q 265 543 290 592 q 235 401 239 494 l 444 413 z "},"ė":{"ha":667,"x_min":38,"x_max":640,"o":"m 350 779 q 274 810 304 779 q 243 890 243 842 q 278 974 243 939 q 361 1010 313 1010 q 439 981 408 1010 q 469 901 469 951 q 436 815 469 851 q 350 779 403 779 m 372 -17 q 121 62 204 -17 q 38 331 38 140 q 78 533 38 449 q 194 663 119 618 q 367 707 268 707 q 578 624 515 707 q 640 428 640 542 q 625 335 640 360 q 575 311 610 311 l 235 311 q 276 156 236 206 q 418 106 317 106 q 509 113 469 106 q 570 128 549 121 q 597 139 592 136 l 624 81 q 588 52 624 78 q 495 5 551 26 q 372 -17 439 -17 m 444 413 q 449 457 449 438 q 431 562 449 532 q 357 592 414 592 q 265 543 290 592 q 235 401 239 494 l 444 413 z "},"ẹ":{"ha":678,"x_min":28,"x_max":631,"o":"m 28 0 m 363 -17 q 111 62 194 -17 q 28 331 28 140 q 69 533 28 449 q 184 663 110 618 q 357 707 258 707 q 568 624 506 707 q 631 428 631 542 q 615 335 631 360 q 565 311 600 311 l 225 311 q 267 156 226 206 q 408 106 307 106 q 499 113 460 106 q 560 128 539 121 q 588 139 582 136 l 614 81 q 578 52 614 78 q 485 5 542 26 q 363 -17 429 -17 m 435 413 q 439 457 439 438 q 422 562 439 532 q 347 592 404 592 q 255 543 281 592 q 225 401 229 494 l 435 413 m 346 -286 q 269 -255 300 -286 q 239 -175 239 -224 q 274 -91 239 -126 q 357 -56 308 -56 q 435 -85 404 -56 q 465 -164 465 -114 q 432 -250 465 -214 q 346 -286 399 -286 z "},"è":{"ha":667,"x_min":38,"x_max":640,"o":"m 192 894 q 206 958 192 931 q 240 1001 219 986 q 278 1015 260 1015 q 313 1001 296 1015 q 353 963 331 988 l 486 803 l 436 743 l 192 894 m 372 -17 q 121 62 204 -17 q 38 331 38 140 q 78 533 38 449 q 194 663 119 618 q 367 707 268 707 q 578 624 515 707 q 640 428 640 542 q 625 335 640 360 q 575 311 610 311 l 235 311 q 276 156 236 206 q 418 106 317 106 q 509 113 469 106 q 570 128 549 121 q 597 139 592 136 l 624 81 q 588 52 624 78 q 495 5 551 26 q 372 -17 439 -17 m 444 413 q 449 457 449 438 q 431 562 449 532 q 357 592 414 592 q 265 543 290 592 q 235 401 239 494 l 444 413 z "},"ẻ":{"ha":678,"x_min":28,"x_max":631,"o":"m 28 0 m 363 -17 q 111 62 194 -17 q 28 331 28 140 q 69 533 28 449 q 184 663 110 618 q 357 707 258 707 q 568 624 506 707 q 631 428 631 542 q 615 335 631 360 q 565 311 600 311 l 225 311 q 267 156 226 206 q 408 106 307 106 q 499 113 460 106 q 560 128 539 121 q 588 139 582 136 l 614 81 q 578 52 614 78 q 485 5 542 26 q 363 -17 429 -17 m 435 413 q 439 457 439 438 q 422 562 439 532 q 347 592 404 592 q 255 543 281 592 q 225 401 229 494 l 435 413 m 304 744 q 289 789 289 772 q 301 816 289 803 q 344 850 314 829 q 370 872 361 861 q 379 899 379 882 q 326 931 379 931 q 251 919 292 931 q 225 975 225 949 q 335 1024 225 1024 q 468 995 421 1024 q 515 914 515 967 q 447 813 515 853 q 424 799 440 808 q 403 784 408 790 q 399 769 399 778 q 400 756 399 761 l 304 744 z "},"ȇ":{"ha":678,"x_min":28,"x_max":631,"o":"m 28 0 m 363 -17 q 111 62 194 -17 q 28 331 28 140 q 69 533 28 449 q 184 663 110 618 q 357 707 258 707 q 568 624 506 707 q 631 428 631 542 q 615 335 631 360 q 565 311 600 311 l 225 311 q 267 156 226 206 q 408 106 307 106 q 499 113 460 106 q 560 128 539 121 q 588 139 582 136 l 614 81 q 578 52 614 78 q 485 5 542 26 q 363 -17 429 -17 m 435 413 q 439 457 439 438 q 422 562 439 532 q 347 592 404 592 q 255 543 281 592 q 225 401 229 494 l 435 413 m 478 764 q 465 798 478 771 q 419 850 451 825 q 335 875 388 875 q 246 850 281 875 q 195 797 211 825 q 179 764 179 769 l 122 788 q 142 853 122 801 q 210 951 161 904 q 343 999 260 999 q 485 956 432 999 q 560 865 538 913 q 582 806 582 818 l 478 764 z "},"ē":{"ha":667,"x_min":38,"x_max":640,"o":"m 97 814 l 115 929 l 596 929 l 578 814 l 97 814 m 372 -17 q 121 62 204 -17 q 38 331 38 140 q 78 533 38 449 q 194 663 119 618 q 367 707 268 707 q 578 624 515 707 q 640 428 640 542 q 625 335 640 360 q 575 311 610 311 l 235 311 q 276 156 236 206 q 418 106 317 106 q 509 113 469 106 q 570 128 549 121 q 597 139 592 136 l 624 81 q 588 52 624 78 q 495 5 551 26 q 372 -17 439 -17 m 444 413 q 449 457 449 438 q 431 562 449 532 q 357 592 414 592 q 265 543 290 592 q 235 401 239 494 l 444 413 z "},"ę":{"ha":667,"x_min":38,"x_max":640,"o":"m 440 -260 q 342 -233 379 -260 q 306 -157 306 -207 q 388 -17 306 -78 l 372 -17 q 121 62 204 -17 q 38 331 38 140 q 78 533 38 449 q 194 663 119 618 q 367 707 268 707 q 578 624 515 707 q 640 428 640 542 q 625 335 640 360 q 575 311 610 311 l 235 311 q 276 156 236 206 q 418 106 317 106 q 509 113 469 106 q 570 128 549 121 q 597 139 592 136 l 624 81 q 593 56 624 79 q 525 17 563 33 q 435 -112 435 -51 q 483 -160 435 -160 q 556 -132 510 -160 l 589 -189 q 568 -210 589 -192 q 514 -244 547 -228 q 440 -260 481 -260 m 444 413 q 449 457 449 438 q 431 562 449 532 q 357 592 414 592 q 265 543 290 592 q 235 401 239 494 l 444 413 z "},"ẽ":{"ha":678,"x_min":28,"x_max":631,"o":"m 28 0 m 363 -17 q 111 62 194 -17 q 28 331 28 140 q 69 533 28 449 q 184 663 110 618 q 357 707 258 707 q 568 624 506 707 q 631 428 631 542 q 615 335 631 360 q 565 311 600 311 l 225 311 q 267 156 226 206 q 408 106 307 106 q 499 113 460 106 q 560 128 539 121 q 588 139 582 136 l 614 81 q 578 52 614 78 q 485 5 542 26 q 363 -17 429 -17 m 435 413 q 439 457 439 438 q 422 562 439 532 q 347 592 404 592 q 255 543 281 592 q 225 401 229 494 l 435 413 m 136 926 q 238 982 169 982 q 346 960 276 982 l 469 918 l 574 971 l 622 925 l 568 838 q 472 782 535 782 q 420 790 450 782 q 363 806 390 797 l 235 847 l 131 794 l 82 840 l 136 926 z "},"ə":{"ha":678,"x_min":47,"x_max":650,"o":"m 315 703 q 567 624 483 703 q 650 356 650 546 q 609 153 650 238 q 494 24 568 68 q 321 -21 419 -21 q 110 62 172 -21 q 47 258 47 144 q 63 351 47 326 q 113 375 78 375 l 453 375 q 411 531 451 481 q 269 581 371 581 q 178 573 218 581 q 117 558 139 565 q 90 547 96 550 l 64 606 q 100 634 64 608 q 192 681 136 660 q 315 703 249 703 m 243 274 q 239 229 239 249 q 256 124 239 154 q 331 94 274 94 q 423 143 397 94 q 453 285 449 192 l 243 274 z "},"f":{"ha":485,"x_min":26,"x_max":560,"o":"m 26 76 l 136 96 l 136 586 l 32 586 l 32 676 l 136 701 q 214 904 136 829 q 436 979 292 979 q 526 960 493 979 q 560 893 560 942 q 547 846 560 865 q 519 817 535 826 q 504 808 504 807 q 470 819 497 811 q 410 835 443 828 q 354 843 376 843 q 319 840 336 843 l 319 696 l 500 696 l 500 640 l 482 586 l 319 586 l 319 101 l 464 81 l 464 0 l 26 0 l 26 76 z "},"g":{"ha":667,"x_min":13,"x_max":692,"o":"m 300 -231 q 89 -194 165 -231 q 13 -76 13 -157 q 47 9 13 -28 q 135 79 81 46 q 117 139 117 103 q 141 202 117 172 q 199 250 165 232 q 72 329 115 269 q 29 458 29 389 q 112 642 29 578 q 326 706 194 706 q 485 665 419 706 q 549 703 508 685 q 621 722 589 722 q 692 654 692 722 q 673 599 692 622 q 635 564 654 575 l 607 583 q 576 603 589 597 q 549 608 564 608 q 582 543 571 578 q 593 478 593 508 q 555 356 593 410 q 450 271 517 301 q 300 240 383 240 l 281 240 l 281 185 l 443 158 q 566 128 521 146 q 635 77 611 110 q 658 -11 658 44 q 608 -126 658 -76 q 476 -203 558 -176 q 300 -231 393 -231 m 307 340 q 364 351 344 340 q 392 390 383 361 q 400 478 400 419 q 384 576 400 549 q 314 603 368 603 q 257 592 276 603 q 230 553 238 581 q 222 469 222 525 q 228 390 222 417 q 253 352 235 364 q 307 340 271 340 m 331 -133 q 488 -64 488 -133 q 474 -18 488 -35 q 418 6 460 -1 l 203 39 q 178 -53 178 -11 q 212 -115 178 -96 q 331 -133 246 -133 z "},"ǵ":{"ha":667,"x_min":13,"x_max":692,"o":"m 13 0 m 300 -231 q 89 -194 165 -231 q 13 -76 13 -157 q 47 9 13 -28 q 135 79 81 46 q 117 139 117 103 q 141 202 117 172 q 199 250 165 232 q 72 329 115 269 q 29 458 29 389 q 112 642 29 578 q 326 706 194 706 q 485 665 419 706 q 549 703 508 685 q 621 722 589 722 q 692 654 692 722 q 673 599 692 622 q 635 564 654 575 l 607 583 q 576 603 589 597 q 549 608 564 608 q 582 543 571 578 q 593 478 593 508 q 555 356 593 410 q 450 271 517 301 q 300 240 383 240 l 281 240 l 281 185 l 443 158 q 566 128 521 146 q 635 77 611 110 q 658 -11 658 44 q 608 -126 658 -76 q 476 -203 558 -176 q 300 -231 393 -231 m 307 340 q 364 351 344 340 q 392 390 383 361 q 400 478 400 419 q 384 576 400 549 q 314 603 368 603 q 257 592 276 603 q 230 553 238 581 q 222 469 222 525 q 228 390 222 417 q 253 352 235 364 q 307 340 271 340 m 331 -133 q 488 -64 488 -133 q 474 -18 488 -35 q 418 6 460 -1 l 203 39 q 178 -53 178 -11 q 212 -115 178 -96 q 331 -133 246 -133 m 403 963 q 440 1000 422 986 q 478 1015 458 1014 q 516 1001 496 1015 q 550 958 536 986 q 564 894 564 931 l 319 743 l 269 803 l 403 963 z "},"ğ":{"ha":667,"x_min":13,"x_max":692,"o":"m 328 764 q 186 807 239 764 q 111 897 133 850 q 89 957 89 944 l 193 999 q 206 965 193 992 q 251 913 219 938 q 336 888 283 888 q 425 913 390 888 q 476 965 460 938 q 492 999 492 993 l 549 975 q 529 910 549 961 q 460 811 510 858 q 328 764 411 764 m 300 -231 q 89 -194 165 -231 q 13 -76 13 -157 q 47 9 13 -28 q 135 79 81 46 q 117 139 117 103 q 141 202 117 172 q 199 250 165 232 q 72 329 115 269 q 29 458 29 389 q 112 642 29 578 q 326 706 194 706 q 485 665 419 706 q 549 703 508 685 q 621 722 589 722 q 692 654 692 722 q 673 599 692 622 q 635 564 654 575 l 607 583 q 576 603 589 597 q 549 608 564 608 q 582 543 571 578 q 593 478 593 508 q 555 356 593 410 q 450 271 517 301 q 300 240 383 240 l 281 240 l 281 185 l 443 158 q 566 128 521 146 q 635 77 611 110 q 658 -11 658 44 q 608 -126 658 -76 q 476 -203 558 -176 q 300 -231 393 -231 m 307 340 q 364 351 344 340 q 392 390 383 361 q 400 478 400 419 q 384 576 400 549 q 314 603 368 603 q 257 592 276 603 q 230 553 238 581 q 222 469 222 525 q 228 390 222 417 q 253 352 235 364 q 307 340 271 340 m 331 -133 q 488 -64 488 -133 q 474 -18 488 -35 q 418 6 460 -1 l 203 39 q 178 -53 178 -11 q 212 -115 178 -96 q 331 -133 246 -133 z "},"ǧ":{"ha":667,"x_min":13,"x_max":692,"o":"m 13 0 m 300 -231 q 89 -194 165 -231 q 13 -76 13 -157 q 47 9 13 -28 q 135 79 81 46 q 117 139 117 103 q 141 202 117 172 q 199 250 165 232 q 72 329 115 269 q 29 458 29 389 q 112 642 29 578 q 326 706 194 706 q 485 665 419 706 q 549 703 508 685 q 621 722 589 722 q 692 654 692 722 q 673 599 692 622 q 635 564 654 575 l 607 583 q 576 603 589 597 q 549 608 564 608 q 582 543 571 578 q 593 478 593 508 q 555 356 593 410 q 450 271 517 301 q 300 240 383 240 l 281 240 l 281 185 l 443 158 q 566 128 521 146 q 635 77 611 110 q 658 -11 658 44 q 608 -126 658 -76 q 476 -203 558 -176 q 300 -231 393 -231 m 307 340 q 364 351 344 340 q 392 390 383 361 q 400 478 400 419 q 384 576 400 549 q 314 603 368 603 q 257 592 276 603 q 230 553 238 581 q 222 469 222 525 q 228 390 222 417 q 253 352 235 364 q 307 340 271 340 m 331 -133 q 488 -64 488 -133 q 474 -18 488 -35 q 418 6 460 -1 l 203 39 q 178 -53 178 -11 q 212 -115 178 -96 q 331 -133 246 -133 m 328 747 q 298 761 317 747 q 246 808 279 775 l 119 931 l 179 999 l 339 894 l 501 999 l 546 940 l 410 808 q 358 761 376 775 q 328 747 339 747 z "},"ĝ":{"ha":667,"x_min":13,"x_max":692,"o":"m 13 0 m 300 -231 q 89 -194 165 -231 q 13 -76 13 -157 q 47 9 13 -28 q 135 79 81 46 q 117 139 117 103 q 141 202 117 172 q 199 250 165 232 q 72 329 115 269 q 29 458 29 389 q 112 642 29 578 q 326 706 194 706 q 485 665 419 706 q 549 703 508 685 q 621 722 589 722 q 692 654 692 722 q 673 599 692 622 q 635 564 654 575 l 607 583 q 576 603 589 597 q 549 608 564 608 q 582 543 571 578 q 593 478 593 508 q 555 356 593 410 q 450 271 517 301 q 300 240 383 240 l 281 240 l 281 185 l 443 158 q 566 128 521 146 q 635 77 611 110 q 658 -11 658 44 q 608 -126 658 -76 q 476 -203 558 -176 q 300 -231 393 -231 m 307 340 q 364 351 344 340 q 392 390 383 361 q 400 478 400 419 q 384 576 400 549 q 314 603 368 603 q 257 592 276 603 q 230 553 238 581 q 222 469 222 525 q 228 390 222 417 q 253 352 235 364 q 307 340 271 340 m 331 -133 q 488 -64 488 -133 q 474 -18 488 -35 q 418 6 460 -1 l 203 39 q 178 -53 178 -11 q 212 -115 178 -96 q 331 -133 246 -133 m 258 951 q 300 988 282 975 q 336 1000 318 1000 q 399 963 361 1000 l 549 813 l 493 747 l 325 847 l 163 749 l 118 807 l 258 951 z "},"ģ":{"ha":667,"x_min":13,"x_max":692,"o":"m 297 750 q 254 761 272 750 q 219 792 236 772 q 228 804 222 794 q 241 833 235 814 q 247 881 247 853 q 242 939 247 908 q 233 988 238 969 q 228 1011 229 1006 l 289 1011 q 316 983 289 1014 q 365 913 343 953 q 388 832 388 874 q 365 774 388 799 q 297 750 342 750 m 300 -231 q 89 -194 165 -231 q 13 -76 13 -157 q 47 9 13 -28 q 135 79 81 46 q 117 139 117 103 q 141 202 117 172 q 199 250 165 232 q 72 329 115 269 q 29 458 29 389 q 112 642 29 578 q 326 706 194 706 q 485 665 419 706 q 549 703 508 685 q 621 722 589 722 q 692 654 692 722 q 673 599 692 622 q 635 564 654 575 l 607 583 q 576 603 589 597 q 549 608 564 608 q 582 543 571 578 q 593 478 593 508 q 555 356 593 410 q 450 271 517 301 q 300 240 383 240 l 281 240 l 281 185 l 443 158 q 566 128 521 146 q 635 77 611 110 q 658 -11 658 44 q 608 -126 658 -76 q 476 -203 558 -176 q 300 -231 393 -231 m 307 340 q 364 351 344 340 q 392 390 383 361 q 400 478 400 419 q 384 576 400 549 q 314 603 368 603 q 257 592 276 603 q 230 553 238 581 q 222 469 222 525 q 228 390 222 417 q 253 352 235 364 q 307 340 271 340 m 331 -133 q 488 -64 488 -133 q 474 -18 488 -35 q 418 6 460 -1 l 203 39 q 178 -53 178 -11 q 212 -115 178 -96 q 331 -133 246 -133 z "},"ġ":{"ha":667,"x_min":13,"x_max":692,"o":"m 13 0 m 300 -231 q 89 -194 165 -231 q 13 -76 13 -157 q 47 9 13 -28 q 135 79 81 46 q 117 139 117 103 q 141 202 117 172 q 199 250 165 232 q 72 329 115 269 q 29 458 29 389 q 112 642 29 578 q 326 706 194 706 q 485 665 419 706 q 549 703 508 685 q 621 722 589 722 q 692 654 692 722 q 673 599 692 622 q 635 564 654 575 l 607 583 q 576 603 589 597 q 549 608 564 608 q 582 543 571 578 q 593 478 593 508 q 555 356 593 410 q 450 271 517 301 q 300 240 383 240 l 281 240 l 281 185 l 443 158 q 566 128 521 146 q 635 77 611 110 q 658 -11 658 44 q 608 -126 658 -76 q 476 -203 558 -176 q 300 -231 393 -231 m 307 340 q 364 351 344 340 q 392 390 383 361 q 400 478 400 419 q 384 576 400 549 q 314 603 368 603 q 257 592 276 603 q 230 553 238 581 q 222 469 222 525 q 228 390 222 417 q 253 352 235 364 q 307 340 271 340 m 331 -133 q 488 -64 488 -133 q 474 -18 488 -35 q 418 6 460 -1 l 203 39 q 178 -53 178 -11 q 212 -115 178 -96 q 331 -133 246 -133 m 326 779 q 250 810 281 779 q 219 890 219 842 q 254 974 219 939 q 338 1010 289 1010 q 415 981 385 1010 q 446 901 446 951 q 413 815 446 851 q 326 779 379 779 z "},"h":{"ha":833,"x_min":22,"x_max":821,"o":"m 25 76 l 135 96 l 135 836 l 22 858 l 22 939 l 267 971 l 318 951 l 318 651 l 307 640 l 308 635 q 404 684 347 661 q 521 707 461 707 q 718 510 718 707 l 718 96 l 821 76 l 821 0 l 438 0 l 438 76 l 535 96 l 535 478 q 527 541 535 518 q 496 576 519 564 q 425 588 472 588 q 318 574 374 588 l 318 96 l 415 76 l 415 0 l 25 0 l 25 76 z "},"ħ":{"ha":833,"x_min":24,"x_max":821,"o":"m 25 76 l 135 96 l 135 747 l 24 747 l 24 854 l 135 854 l 135 878 l 58 910 l 58 951 l 267 971 l 318 951 l 318 854 l 506 854 l 506 747 l 318 747 l 318 633 l 307 622 l 308 617 q 404 666 347 643 q 521 689 461 689 q 718 492 718 689 l 718 96 l 821 76 l 821 0 l 438 0 l 438 76 l 535 96 l 535 460 q 527 523 535 500 q 496 558 519 546 q 425 569 472 569 q 318 556 374 569 l 318 96 l 415 76 l 415 0 l 25 0 l 25 76 z "},"ĥ":{"ha":833,"x_min":11,"x_max":821,"o":"m 11 0 m 25 76 l 135 96 l 135 836 l 22 858 l 22 939 l 267 971 l 318 951 l 318 651 l 307 640 l 308 635 q 404 684 347 661 q 521 707 461 707 q 718 510 718 707 l 718 96 l 821 76 l 821 0 l 438 0 l 438 76 l 535 96 l 535 478 q 527 541 535 518 q 496 576 519 564 q 425 588 472 588 q 318 574 374 588 l 318 96 l 415 76 l 415 0 l 25 0 l 25 76 m 151 1165 q 193 1201 175 1189 q 229 1214 211 1214 q 292 1176 254 1214 l 442 1026 l 386 961 l 218 1061 l 56 963 l 11 1021 l 151 1165 z "},"ḥ":{"ha":833,"x_min":22,"x_max":821,"o":"m 22 0 m 25 76 l 135 96 l 135 836 l 22 858 l 22 939 l 267 971 l 318 951 l 318 651 l 307 640 l 308 635 q 404 684 347 661 q 521 707 461 707 q 718 510 718 707 l 718 96 l 821 76 l 821 0 l 438 0 l 438 76 l 535 96 l 535 478 q 527 541 535 518 q 496 576 519 564 q 425 588 472 588 q 318 574 374 588 l 318 96 l 415 76 l 415 0 l 25 0 l 25 76 m 410 -286 q 333 -255 364 -286 q 303 -175 303 -224 q 338 -91 303 -126 q 421 -56 372 -56 q 499 -85 468 -56 q 529 -164 529 -114 q 496 -250 529 -214 q 410 -286 463 -286 z "},"i":{"ha":432,"x_min":26,"x_max":417,"o":"m 204 779 q 128 810 158 779 q 97 890 97 842 q 132 974 97 939 q 215 1010 167 1010 q 293 981 263 1010 q 324 901 324 951 q 290 815 324 851 q 204 779 257 779 m 26 76 l 136 96 l 136 568 l 26 590 l 26 671 l 268 703 l 319 683 l 319 96 l 417 76 l 417 0 l 26 0 l 26 76 z "},"ı":{"ha":432,"x_min":24,"x_max":417,"o":"m 26 76 l 136 96 l 136 568 l 24 590 l 24 671 l 268 703 l 319 683 l 319 96 l 417 76 l 417 0 l 26 0 l 26 76 z "},"í":{"ha":432,"x_min":24,"x_max":417,"o":"m 51 803 l 185 963 q 223 1001 206 988 q 260 1015 240 1015 q 298 1001 278 1015 q 332 958 318 986 q 346 894 346 931 l 101 743 l 51 803 m 26 0 l 26 76 l 136 96 l 136 568 l 24 590 l 24 671 l 268 703 l 319 683 l 319 96 l 417 76 l 417 0 l 26 0 z "},"ĭ":{"ha":432,"x_min":-3,"x_max":457,"o":"m 0 0 m 26 76 l 136 96 l 136 568 l 24 590 l 24 671 l 268 703 l 319 683 l 319 96 l 417 76 l 417 0 l 26 0 l 26 76 m 101 999 q 115 965 101 992 q 160 913 128 938 q 244 888 192 888 q 333 913 299 888 q 384 965 368 938 q 400 999 400 993 l 457 975 q 438 910 457 961 q 369 811 418 858 q 236 764 319 764 q 94 807 147 764 q 19 897 42 850 q -3 957 -3 944 l 101 999 z "},"ǐ":{"ha":432,"x_min":14,"x_max":440,"o":"m 14 0 m 26 76 l 136 96 l 136 568 l 24 590 l 24 671 l 268 703 l 319 683 l 319 96 l 417 76 l 417 0 l 26 0 l 26 76 m 222 747 q 192 761 211 747 q 140 808 174 775 l 14 931 l 74 999 l 233 894 l 396 999 l 440 940 l 304 808 q 252 761 271 775 q 222 747 233 747 z "},"î":{"ha":432,"x_min":-12,"x_max":418,"o":"m 128 951 q 169 988 151 975 q 206 1000 188 1000 q 268 963 231 1000 l 418 813 l 363 747 l 194 847 l 32 749 l -12 807 l 128 951 m 26 76 l 136 96 l 136 568 l 24 590 l 24 671 l 268 703 l 319 683 l 319 96 l 417 76 l 417 0 l 26 0 l 26 76 z "},"ȉ":{"ha":432,"x_min":-61,"x_max":433,"o":"m 0 0 m 26 76 l 136 96 l 136 568 l 24 590 l 24 671 l 268 703 l 319 683 l 319 96 l 417 76 l 417 0 l 26 0 l 26 76 m 193 781 l 125 736 l -61 949 q -17 1008 -44 986 q 35 1029 11 1029 q 74 1014 60 1029 q 103 967 88 999 l 193 781 m 433 781 l 365 736 l 179 949 q 224 1008 196 986 q 275 1029 251 1029 q 314 1014 300 1029 q 343 967 328 999 l 433 781 z "},"ï":{"ha":436,"x_min":-74,"x_max":446,"o":"m 24 779 q -46 808 -18 779 q -74 881 -74 836 q -42 958 -74 925 q 35 990 -10 990 q 106 963 78 990 q 133 890 133 936 q 103 812 133 844 q 24 779 72 779 m 336 779 q 267 808 294 779 q 239 881 239 836 q 271 958 239 925 q 347 990 303 990 q 418 963 390 990 q 446 890 446 936 q 415 812 446 844 q 336 779 385 779 m 31 0 l 31 76 l 140 96 l 140 568 l 28 590 l 28 671 l 272 703 l 324 683 l 324 96 l 421 76 l 421 0 l 31 0 z "},"ị":{"ha":432,"x_min":26,"x_max":417,"o":"m 26 0 m 204 779 q 128 810 158 779 q 97 890 97 842 q 132 974 97 939 q 215 1010 167 1010 q 293 981 263 1010 q 324 901 324 951 q 290 815 324 851 q 204 779 257 779 m 26 76 l 136 96 l 136 568 l 26 590 l 26 671 l 268 703 l 319 683 l 319 96 l 417 76 l 417 0 l 26 0 l 26 76 m 221 -286 q 144 -255 175 -286 q 114 -175 114 -224 q 149 -91 114 -126 q 232 -56 183 -56 q 310 -85 279 -56 q 340 -164 340 -114 q 307 -250 340 -214 q 221 -286 274 -286 z "},"ì":{"ha":432,"x_min":24,"x_max":417,"o":"m 36 894 q 50 958 36 931 q 84 1001 64 986 q 122 1015 104 1015 q 158 1001 140 1015 q 197 963 175 988 l 331 803 l 281 743 l 36 894 m 26 76 l 136 96 l 136 568 l 24 590 l 24 671 l 268 703 l 319 683 l 319 96 l 417 76 l 417 0 l 26 0 l 26 76 z "},"ỉ":{"ha":432,"x_min":24,"x_max":417,"o":"m 24 0 m 26 76 l 136 96 l 136 568 l 24 590 l 24 671 l 268 703 l 319 683 l 319 96 l 417 76 l 417 0 l 26 0 l 26 76 m 179 744 q 164 789 164 772 q 176 816 164 803 q 219 850 189 829 q 245 872 236 861 q 254 899 254 882 q 201 931 254 931 q 126 919 167 931 q 100 975 100 949 q 210 1024 100 1024 q 343 995 296 1024 q 390 914 390 967 q 322 813 390 853 q 299 799 315 808 q 278 784 283 790 q 274 769 274 778 q 275 756 274 761 l 179 744 z "},"ȋ":{"ha":432,"x_min":-3,"x_max":457,"o":"m 0 0 m 26 76 l 136 96 l 136 568 l 24 590 l 24 671 l 268 703 l 319 683 l 319 96 l 417 76 l 417 0 l 26 0 l 26 76 m 353 764 q 340 798 353 771 q 294 850 326 825 q 210 875 263 875 q 121 850 156 875 q 70 797 86 825 q 54 764 54 769 l -3 788 q 17 853 -3 801 q 85 951 36 904 q 218 999 135 999 q 360 956 307 999 q 435 865 413 913 q 457 806 457 818 l 353 764 z "},"ĳ":{"ha":838,"x_min":26,"x_max":754,"o":"m 26 0 m 204 779 q 128 810 158 779 q 97 890 97 842 q 132 974 97 939 q 215 1010 167 1010 q 293 981 263 1010 q 324 901 324 951 q 290 815 324 851 q 204 779 257 779 m 26 76 l 136 96 l 136 568 l 26 590 l 26 671 l 268 703 l 319 683 l 319 96 l 417 76 l 417 0 l 26 0 l 26 76 m 635 779 q 558 810 589 779 q 528 890 528 842 q 563 974 528 939 q 646 1010 597 1010 q 724 981 693 1010 q 754 901 754 951 q 721 815 754 851 q 635 779 688 779 m 581 -235 q 507 -229 542 -235 q 451 -217 472 -224 q 425 -210 431 -211 l 425 -139 l 567 -107 l 567 568 l 454 590 l 454 671 l 699 703 l 750 683 l 750 -110 q 707 -201 750 -167 q 581 -235 664 -235 z "},"ī":{"ha":432,"x_min":-49,"x_max":417,"o":"m -49 814 l -31 929 l 415 929 l 397 814 l -49 814 m 26 0 l 26 76 l 136 96 l 136 568 l 24 590 l 24 671 l 268 703 l 319 683 l 319 96 l 417 76 l 417 0 l 26 0 z "},"į":{"ha":432,"x_min":26,"x_max":446,"o":"m 204 779 q 128 810 158 779 q 97 890 97 842 q 132 974 97 939 q 215 1010 167 1010 q 293 981 263 1010 q 324 901 324 951 q 290 815 324 851 q 204 779 257 779 m 136 96 l 136 568 l 26 590 l 26 671 l 268 703 l 319 683 l 319 96 l 417 76 l 417 0 l 361 0 q 313 -52 333 -22 q 292 -112 292 -82 q 340 -160 292 -160 q 413 -132 367 -160 l 446 -189 q 425 -210 446 -192 q 371 -244 404 -228 q 297 -260 338 -260 q 199 -233 236 -260 q 163 -157 163 -207 q 192 -67 163 -107 q 268 0 221 -28 l 26 0 l 26 76 l 136 96 z "},"ĩ":{"ha":432,"x_min":-43,"x_max":497,"o":"m 0 0 m 26 76 l 136 96 l 136 568 l 24 590 l 24 671 l 268 703 l 319 683 l 319 96 l 417 76 l 417 0 l 26 0 l 26 76 m 11 926 q 113 982 44 982 q 221 960 151 982 l 344 918 l 449 971 l 497 925 l 443 838 q 347 782 410 782 q 295 790 325 782 q 238 806 265 797 l 110 847 l 6 794 l -43 840 l 11 926 z "},"j":{"ha":406,"x_min":-7,"x_max":322,"o":"m 203 779 q 126 810 157 779 q 96 890 96 842 q 131 974 96 939 q 214 1010 165 1010 q 292 981 261 1010 q 322 901 322 951 q 289 815 322 851 q 203 779 256 779 m 149 -235 q 75 -229 110 -235 q 19 -217 40 -224 q -7 -210 -1 -211 l -7 -139 l 135 -107 l 135 568 l 22 590 l 22 671 l 267 703 l 318 683 l 318 -110 q 275 -201 318 -167 q 149 -235 232 -235 z "},"ȷ":{"ha":406,"x_min":-7,"x_max":318,"o":"m 135 -107 l 135 568 l 22 590 l 22 671 l 267 703 l 318 683 l 318 -110 q 275 -201 318 -167 q 149 -235 232 -235 q 75 -229 110 -235 q 19 -217 40 -224 q -7 -210 -1 -211 l -7 -139 l 135 -107 z "},"ĵ":{"ha":406,"x_min":-7,"x_max":442,"o":"m 0 0 m 135 -107 l 135 568 l 22 590 l 22 671 l 267 703 l 318 683 l 318 -110 q 275 -201 318 -167 q 149 -235 232 -235 q 75 -229 110 -235 q 19 -217 40 -224 q -7 -210 -1 -211 l -7 -139 l 135 -107 m 151 951 q 193 988 175 975 q 229 1000 211 1000 q 292 963 254 1000 l 442 813 l 386 747 l 218 847 l 56 749 l 11 807 l 151 951 z "},"k":{"ha":756,"x_min":21,"x_max":790,"o":"m 132 96 l 132 843 l 21 865 l 21 939 l 278 971 l 315 921 l 315 431 l 368 431 l 493 586 l 493 599 l 417 614 l 417 693 l 743 693 l 743 619 l 643 597 l 494 413 l 669 111 l 790 76 l 790 0 l 499 0 l 499 26 q 485 74 499 51 l 342 329 l 315 329 l 315 96 l 399 76 l 399 0 l 22 0 l 22 76 l 132 96 z "},"ķ":{"ha":753,"x_min":21,"x_max":790,"o":"m 132 96 l 132 843 l 21 865 l 21 939 l 278 971 l 315 921 l 315 431 l 368 431 l 493 586 l 493 599 l 417 617 l 417 693 l 743 693 l 743 617 l 643 597 l 494 413 l 669 111 l 790 76 l 790 0 l 499 0 l 499 26 q 485 74 499 51 l 342 329 l 315 329 l 315 96 l 399 76 l 399 0 l 22 0 l 22 76 l 132 96 m 342 -294 q 347 -271 343 -289 q 356 -222 351 -253 q 361 -164 361 -192 q 355 -117 361 -136 q 342 -87 349 -97 q 333 -75 336 -78 q 368 -44 350 -56 q 411 -33 386 -33 q 476 -58 454 -33 q 497 -115 497 -82 q 476 -197 497 -157 q 429 -267 456 -236 q 403 -294 403 -297 l 342 -294 z "},"ĸ":{"ha":763,"x_min":26,"x_max":797,"o":"m 139 96 l 139 568 l 26 590 l 26 671 l 271 703 l 322 683 l 322 431 l 375 431 l 500 586 l 500 599 l 424 614 l 424 693 l 750 693 l 750 619 l 650 597 l 501 413 l 676 111 l 797 76 l 797 0 l 506 0 l 506 26 q 492 74 506 51 l 349 329 l 322 329 l 322 96 l 406 76 l 406 0 l 29 0 l 29 76 l 139 96 z "},"l":{"ha":432,"x_min":15,"x_max":408,"o":"m 18 76 l 128 96 l 128 836 l 15 858 l 15 939 l 260 971 l 311 951 l 311 96 l 408 76 l 408 0 l 18 0 l 18 76 z "},"ĺ":{"ha":432,"x_min":-4,"x_max":417,"o":"m -4 1008 l 193 1136 q 283 1179 260 1179 q 329 1152 314 1179 q 344 1089 344 1125 q 336 1039 344 1060 l 31 944 l -4 1008 m 26 0 l 26 76 l 136 96 l 136 836 l 24 858 l 24 939 l 268 971 l 319 951 l 319 96 l 417 76 l 417 0 l 26 0 z "},"ľ":{"ha":451,"x_min":21,"x_max":531,"o":"m 376 751 q 392 826 386 782 q 399 900 399 869 q 392 950 399 925 q 376 983 385 975 q 449 1014 403 1014 q 510 990 489 1014 q 531 936 531 965 q 510 853 531 894 q 463 781 489 813 q 438 751 438 749 l 376 751 m 24 0 l 24 76 l 133 96 l 133 836 l 21 858 l 21 939 l 265 971 l 317 951 l 317 96 l 414 76 l 414 0 l 24 0 z "},"ļ":{"ha":432,"x_min":21,"x_max":414,"o":"m 24 0 l 24 76 l 133 96 l 133 836 l 21 858 l 21 939 l 265 971 l 317 951 l 317 96 l 414 76 l 414 0 l 24 0 m 151 -294 q 157 -271 153 -289 q 166 -222 161 -253 q 171 -164 171 -192 q 165 -117 171 -136 q 152 -87 158 -97 q 143 -75 146 -78 q 178 -44 160 -56 q 221 -33 196 -33 q 285 -58 264 -33 q 307 -115 307 -82 q 286 -197 307 -157 q 239 -267 265 -236 q 213 -294 213 -297 l 151 -294 z "},"ŀ":{"ha":432,"x_min":15,"x_max":538,"o":"m 15 0 m 18 76 l 128 96 l 128 836 l 15 858 l 15 939 l 260 971 l 311 951 l 311 96 l 408 76 l 408 0 l 18 0 l 18 76 m 429 411 q 358 440 386 411 q 331 513 331 468 q 363 590 331 557 q 439 622 394 622 q 510 595 482 622 q 538 524 538 568 q 507 444 538 478 q 429 411 476 411 z "},"ǉ":{"ha":838,"x_min":15,"x_max":754,"o":"m 15 0 m 18 76 l 128 96 l 128 836 l 15 858 l 15 939 l 260 971 l 311 951 l 311 96 l 408 76 l 408 0 l 18 0 l 18 76 m 635 779 q 558 810 589 779 q 528 890 528 842 q 563 974 528 939 q 646 1010 597 1010 q 724 981 693 1010 q 754 901 754 951 q 721 815 754 851 q 635 779 688 779 m 581 -235 q 507 -229 542 -235 q 451 -217 472 -224 q 425 -210 431 -211 l 425 -139 l 567 -107 l 567 568 l 454 590 l 454 671 l 699 703 l 750 683 l 750 -110 q 707 -201 750 -167 q 581 -235 664 -235 z "},"ł":{"ha":440,"x_min":25,"x_max":421,"o":"m 31 76 l 140 96 l 140 414 l 25 374 l 25 456 l 140 499 l 140 836 l 28 858 l 28 939 l 272 971 l 324 951 l 324 567 l 421 603 l 421 515 l 324 481 l 324 96 l 421 76 l 421 0 l 31 0 l 31 76 z "},"m":{"ha":1249,"x_min":24,"x_max":1238,"o":"m 26 76 l 136 96 l 136 568 l 24 590 l 24 671 l 268 703 l 319 638 q 428 688 371 669 q 529 707 485 707 q 699 631 651 707 q 810 683 736 660 q 938 707 885 707 q 1136 510 1136 707 l 1136 96 l 1238 76 l 1238 0 l 854 0 l 854 76 l 951 96 l 951 472 q 928 564 951 540 q 842 588 906 588 q 778 583 814 588 q 721 571 743 578 q 728 510 728 532 l 728 96 l 829 76 l 829 0 l 446 0 l 446 76 l 543 96 l 543 472 q 520 564 543 540 q 433 588 497 588 q 319 571 382 588 l 319 96 l 417 76 l 417 0 l 26 0 l 26 76 z "},"n":{"ha":838,"x_min":29,"x_max":825,"o":"m 29 76 l 139 96 l 139 568 l 29 590 l 29 671 l 271 703 l 310 638 l 315 638 q 423 690 367 671 q 525 710 479 710 q 722 510 722 710 l 722 96 l 825 76 l 825 0 l 442 0 l 442 76 l 539 96 l 539 478 q 516 563 539 540 q 429 585 493 585 q 322 574 382 585 l 322 96 l 419 76 l 419 0 l 29 0 l 29 76 z "},"ń":{"ha":838,"x_min":29,"x_max":825,"o":"m 294 803 l 428 963 q 466 1001 449 988 q 503 1015 483 1015 q 541 1001 521 1015 q 575 958 561 986 q 589 894 589 931 l 344 743 l 294 803 m 29 76 l 139 96 l 139 568 l 29 590 l 29 671 l 271 703 l 310 638 l 315 638 q 423 690 367 671 q 525 710 479 710 q 722 510 722 710 l 722 96 l 825 76 l 825 0 l 442 0 l 442 76 l 539 96 l 539 478 q 516 563 539 540 q 429 585 493 585 q 322 574 382 585 l 322 96 l 419 76 l 419 0 l 29 0 l 29 76 z "},"ŉ":{"ha":833,"x_min":14,"x_max":825,"o":"m 14 0 m 14 751 q 30 826 24 782 q 36 900 36 869 q 29 950 36 925 q 14 983 22 975 q 86 1014 40 1014 q 147 990 126 1014 q 168 936 168 965 q 147 853 168 894 q 101 781 126 813 q 75 751 75 749 l 14 751 m 29 76 l 139 96 l 139 568 l 29 590 l 29 671 l 271 703 l 310 638 l 315 638 q 423 690 367 671 q 525 710 479 710 q 722 510 722 710 l 722 96 l 825 76 l 825 0 l 442 0 l 442 76 l 539 96 l 539 478 q 516 563 539 540 q 429 585 493 585 q 322 574 382 585 l 322 96 l 419 76 l 419 0 l 29 0 l 29 76 z "},"ň":{"ha":838,"x_min":29,"x_max":825,"o":"m 417 747 q 387 761 406 747 q 335 808 368 775 l 208 931 l 268 999 l 428 894 l 590 999 l 635 940 l 499 808 q 447 761 465 775 q 417 747 428 747 m 29 76 l 139 96 l 139 568 l 29 590 l 29 671 l 271 703 l 310 638 l 315 638 q 423 690 367 671 q 525 710 479 710 q 722 510 722 710 l 722 96 l 825 76 l 825 0 l 442 0 l 442 76 l 539 96 l 539 478 q 516 563 539 540 q 429 585 493 585 q 322 574 382 585 l 322 96 l 419 76 l 419 0 l 29 0 l 29 76 z "},"ņ":{"ha":838,"x_min":29,"x_max":825,"o":"m 29 76 l 139 96 l 139 568 l 29 590 l 29 671 l 271 703 l 310 638 l 315 638 q 423 690 367 671 q 525 710 479 710 q 722 510 722 710 l 722 96 l 825 76 l 825 0 l 442 0 l 442 76 l 539 96 l 539 478 q 516 563 539 540 q 429 585 493 585 q 322 574 382 585 l 322 96 l 419 76 l 419 0 l 29 0 l 29 76 m 356 -294 q 361 -271 357 -289 q 370 -222 365 -253 q 375 -164 375 -192 q 369 -117 375 -136 q 356 -87 363 -97 q 347 -75 350 -78 q 382 -44 364 -56 q 425 -33 400 -33 q 490 -58 468 -33 q 511 -115 511 -82 q 490 -197 511 -157 q 443 -267 469 -236 q 417 -294 417 -297 l 356 -294 z "},"ṅ":{"ha":838,"x_min":29,"x_max":825,"o":"m 29 0 m 29 76 l 139 96 l 139 568 l 29 590 l 29 671 l 271 703 l 310 638 l 315 638 q 423 690 367 671 q 525 710 479 710 q 722 510 722 710 l 722 96 l 825 76 l 825 0 l 442 0 l 442 76 l 539 96 l 539 478 q 516 563 539 540 q 429 585 493 585 q 322 574 382 585 l 322 96 l 419 76 l 419 0 l 29 0 l 29 76 m 413 779 q 336 810 367 779 q 306 890 306 842 q 340 974 306 939 q 424 1010 375 1010 q 501 981 471 1010 q 532 901 532 951 q 499 815 532 851 q 413 779 465 779 z "},"ŋ":{"ha":806,"x_min":29,"x_max":722,"o":"m 553 -235 q 469 -228 513 -235 q 397 -210 426 -221 l 397 -139 l 539 -107 l 539 478 q 516 563 539 540 q 429 585 493 585 q 322 574 382 585 l 322 96 l 419 76 l 419 0 l 29 0 l 29 76 l 139 96 l 139 568 l 29 590 l 29 671 l 271 703 l 310 638 l 315 638 q 423 690 367 671 q 525 710 479 710 q 722 510 722 710 l 722 -110 q 678 -202 722 -169 q 553 -235 633 -235 z "},"ɲ":{"ha":833,"x_min":-7,"x_max":821,"o":"m 149 -235 q 65 -228 108 -235 q -7 -210 22 -221 l -7 -139 l 135 -107 l 135 568 l 25 590 l 25 671 l 267 703 l 306 638 l 311 638 q 419 690 363 671 q 521 710 475 710 q 718 510 718 710 l 718 96 l 821 76 l 821 0 l 438 0 l 438 76 l 535 96 l 535 478 q 512 563 535 540 q 425 585 489 585 q 318 574 378 585 l 318 -110 q 274 -202 318 -169 q 149 -235 229 -235 z "},"ǌ":{"ha":1243,"x_min":29,"x_max":1160,"o":"m 29 0 m 29 76 l 139 96 l 139 568 l 29 590 l 29 671 l 271 703 l 310 638 l 315 638 q 423 690 367 671 q 525 710 479 710 q 722 510 722 710 l 722 96 l 825 76 l 825 0 l 442 0 l 442 76 l 539 96 l 539 478 q 516 563 539 540 q 429 585 493 585 q 322 574 382 585 l 322 96 l 419 76 l 419 0 l 29 0 l 29 76 m 1040 779 q 964 810 994 779 q 933 890 933 842 q 968 974 933 939 q 1051 1010 1003 1010 q 1129 981 1099 1010 q 1160 901 1160 951 q 1126 815 1160 851 q 1040 779 1093 779 m 986 -235 q 913 -229 947 -235 q 857 -217 878 -224 q 831 -210 836 -211 l 831 -139 l 972 -107 l 972 568 l 860 590 l 860 671 l 1104 703 l 1156 683 l 1156 -110 q 1113 -201 1156 -167 q 986 -235 1069 -235 z "},"ñ":{"ha":838,"x_min":29,"x_max":825,"o":"m 544 782 q 492 790 522 782 q 435 806 463 797 l 307 847 l 203 794 l 154 840 l 208 926 q 310 982 242 982 q 418 960 349 982 l 542 918 l 646 971 l 694 925 l 640 838 q 544 782 607 782 m 29 76 l 139 96 l 139 568 l 29 590 l 29 671 l 271 703 l 310 638 l 315 638 q 423 690 367 671 q 525 710 479 710 q 722 510 722 710 l 722 96 l 825 76 l 825 0 l 442 0 l 442 76 l 539 96 l 539 478 q 516 563 539 540 q 429 585 493 585 q 322 574 382 585 l 322 96 l 419 76 l 419 0 l 29 0 l 29 76 z "},"o":{"ha":736,"x_min":35,"x_max":701,"o":"m 357 -19 q 110 71 186 -19 q 35 333 35 161 q 72 520 35 435 q 188 658 108 606 q 389 710 267 710 q 625 617 549 710 q 701 365 701 525 q 620 89 701 197 q 357 -19 539 -19 m 381 86 q 461 115 435 86 q 496 197 488 144 q 504 340 504 250 q 494 488 504 435 q 456 566 483 540 q 374 592 428 592 q 283 566 313 592 q 242 488 253 540 q 232 340 232 436 q 242 191 232 243 q 285 113 253 139 q 381 86 317 86 z "},"ó":{"ha":750,"x_min":42,"x_max":708,"o":"m 383 963 q 422 1001 404 988 q 458 1015 439 1015 q 497 1001 476 1015 q 531 958 517 986 q 544 894 544 931 l 300 743 l 250 803 l 383 963 m 364 -19 q 117 71 193 -19 q 42 333 42 161 q 78 520 42 435 q 194 658 115 606 q 396 710 274 710 q 632 617 556 710 q 708 365 708 525 q 627 89 708 197 q 364 -19 546 -19 m 388 86 q 468 115 442 86 q 503 197 494 144 q 511 340 511 250 q 501 488 511 435 q 463 566 490 540 q 381 592 435 592 q 290 566 319 592 q 249 488 260 540 q 239 340 239 436 q 249 191 239 243 q 292 113 260 139 q 388 86 324 86 z "},"ŏ":{"ha":736,"x_min":35,"x_max":701,"o":"m 35 0 m 357 -19 q 110 71 186 -19 q 35 333 35 161 q 72 520 35 435 q 188 658 108 606 q 389 710 267 710 q 625 617 549 710 q 701 365 701 525 q 620 89 701 197 q 357 -19 539 -19 m 381 86 q 461 115 435 86 q 496 197 488 144 q 504 340 504 250 q 494 488 504 435 q 456 566 483 540 q 374 592 428 592 q 283 566 313 592 q 242 488 253 540 q 232 340 232 436 q 242 191 232 243 q 285 113 253 139 q 381 86 317 86 m 242 999 q 255 965 242 992 q 300 913 268 938 q 385 888 332 888 q 474 913 439 888 q 524 965 508 938 q 540 999 540 993 l 597 975 q 578 910 597 961 q 509 811 558 858 q 376 764 460 764 q 235 807 288 764 q 160 897 182 850 q 138 957 138 944 l 242 999 z "}}}
